<svg version="1.1" xmlns="http://www.w3.org/2000/svg" viewBox="0 0 1203.2860281808034 559.785677228655" width="1203.2860281808034" height="559.785677228655">
  <!-- svg-source:excalidraw -->
  
  <defs>
    <style>
      @font-face {
        font-family: "Virgil";
        src: url("https://excalidraw.com/Virgil.woff2");
      }
      @font-face {
        font-family: "Cascadia";
        src: url("https://excalidraw.com/Cascadia.woff2");
      }
    </style>
  </defs>
  <rect x="0" y="0" width="1203.2860281808034" height="559.785677228655" fill="#ffffff"></rect><g stroke-linecap="round" transform="translate(10 10) rotate(0 369.7142682756696 242.28570120675204)"><path d="M-0.36 0.49 C188.21 -2, 375.4 -1.58, 739.78 -0.75 M-0.02 -0.35 C295.4 -0.09, 590.52 0.38, 739.64 -0.33 M739.02 0.14 C738.21 176.98, 737.94 353.84, 738.63 483.86 M739.48 -0.22 C739.66 184.63, 740.05 369.45, 739.38 484.88 M739.38 484.32 C589.52 485, 440.06 485.11, -0.59 484.06 M739.46 484.21 C542.84 484.37, 346.9 484.85, -0.34 484.41 M-0.07 485.03 C0.53 338.87, 0.41 193.01, 0.27 0.23 M0.4 484.35 C-1.99 361.68, -1.32 238.72, 0.02 0.28" stroke="#000000" stroke-width="1" fill="none"></path></g><g stroke-linecap="round" transform="translate(376.8572562081472 303.1428091866628) rotate(0 63.42856270926336 60.000021798270154)"><path d="M44.5 1.93 C53.16 -1.47, 65.75 -0.13, 75.34 1.62 C84.94 3.36, 94.58 6.82, 102.05 12.41 C109.52 18, 116.2 26.75, 120.17 35.16 C124.15 43.57, 126.21 53.55, 125.89 62.88 C125.58 72.21, 123.28 83, 118.27 91.14 C113.27 99.28, 104.32 107.03, 95.85 111.74 C87.39 116.45, 77.21 118.85, 67.47 119.41 C57.72 119.97, 46.45 118.72, 37.39 115.08 C28.34 111.44, 19.35 104.83, 13.14 97.57 C6.93 90.31, 2.04 80.84, 0.14 71.54 C-1.75 62.24, -1.36 50.69, 1.79 41.78 C4.93 32.87, 9.88 24.99, 19.02 18.1 C28.17 11.21, 48.22 3.25, 56.63 0.44 C65.04 -2.37, 69.36 0.15, 69.47 1.22 M59.31 0.63 C68.68 -0.82, 81.84 1.91, 90.89 5.66 C99.94 9.41, 107.83 15.81, 113.6 23.14 C119.37 30.47, 123.87 40.53, 125.49 49.64 C127.1 58.75, 126.47 68.97, 123.31 77.81 C120.14 86.65, 113.4 96.06, 106.49 102.69 C99.58 109.33, 91.08 115.16, 81.82 117.62 C72.56 120.08, 60.78 119.43, 50.94 117.44 C41.1 115.45, 30.22 111.17, 22.79 105.68 C15.35 100.2, 10.3 93.05, 6.32 84.54 C2.34 76.04, -1.65 64.11, -1.07 54.66 C-0.49 45.21, 4.37 35.62, 9.79 27.84 C15.2 20.05, 22.8 12.52, 31.43 7.97 C40.06 3.42, 56.58 1.62, 61.57 0.55 C66.57 -0.52, 61.35 0.54, 61.41 1.54" stroke="#000000" stroke-width="1" fill="none"></path></g><g stroke-linecap="round" transform="translate(146.28570556640625 106.85710362025657) rotate(0 63.42856270926336 60.000021798270154)"><path d="M81.8 3.84 C91.11 5.6, 102.28 11.49, 109.32 17.79 C116.36 24.1, 121.29 32.92, 124.06 41.68 C126.83 50.44, 127.84 61.04, 125.97 70.36 C124.09 79.69, 118.89 90.36, 112.83 97.64 C106.76 104.92, 98.4 110.41, 89.56 114.06 C80.72 117.71, 69.76 120.12, 59.79 119.55 C49.83 118.98, 38.23 115.57, 29.78 110.64 C21.32 105.72, 14 98.06, 9.08 89.99 C4.16 81.91, 0.78 71.52, 0.27 62.2 C-0.24 52.88, 2.09 42.2, 6.02 34.05 C9.94 25.9, 16.07 18.89, 23.83 13.32 C31.6 7.74, 42.14 2.2, 52.62 0.58 C63.1 -1.03, 80.58 2.64, 86.72 3.63 C92.87 4.61, 89.82 5.5, 89.52 6.5 M60.28 0.46 C69.35 -0.77, 80.74 1.17, 89.47 4.85 C98.2 8.53, 106.73 15.19, 112.69 22.55 C118.64 29.9, 123.5 39.89, 125.2 48.97 C126.89 58.05, 125.77 67.97, 122.85 77 C119.94 86.03, 114.46 96.41, 107.69 103.15 C100.91 109.89, 91.73 114.88, 82.21 117.42 C72.68 119.96, 60.33 119.9, 50.52 118.39 C40.71 116.89, 30.71 114.23, 23.37 108.37 C16.03 102.52, 10.46 91.94, 6.48 83.26 C2.51 74.58, -0.91 65.39, -0.48 56.29 C-0.06 47.2, 3.85 36.49, 9.03 28.67 C14.21 20.85, 22.06 14.06, 30.59 9.4 C39.12 4.74, 55.3 1.89, 60.21 0.69 C65.12 -0.52, 60.01 1.21, 60.07 2.18" stroke="#000000" stroke-width="1" fill="none"></path></g><g stroke-linecap="round" transform="translate(395.4286847795747 102.57138933454189) rotate(0 63.42856270926336 60.000021798270154)"><path d="M61.52 0.78 C70.71 -0.36, 81.63 1.74, 90.22 5.59 C98.8 9.45, 107.23 16.56, 113.04 23.92 C118.86 31.29, 123.27 40.59, 125.1 49.8 C126.93 59.02, 127.05 70.23, 124 79.21 C120.95 88.19, 113.94 97.38, 106.79 103.69 C99.64 110.01, 90.46 114.54, 81.1 117.09 C71.74 119.65, 60.3 120.73, 50.61 119.02 C40.91 117.32, 30.63 112.69, 22.9 106.87 C15.17 101.04, 8.16 92.76, 4.22 84.06 C0.28 75.36, -1.79 63.94, -0.75 54.66 C0.28 45.38, 5.14 36.11, 10.45 28.39 C15.75 20.67, 21.72 13.1, 31.09 8.33 C40.46 3.57, 59.63 0.75, 66.67 -0.2 C73.71 -1.16, 73.33 1.57, 73.34 2.6 M86.17 3.77 C95.4 5.83, 103.97 12.53, 110.35 19.39 C116.73 26.24, 122.05 35.93, 124.45 44.89 C126.85 53.85, 127.13 64.1, 124.73 73.15 C122.32 82.2, 116.38 92.03, 110.04 99.19 C103.7 106.34, 95.69 112.9, 86.68 116.07 C77.68 119.24, 65.97 119.46, 56.01 118.21 C46.04 116.96, 34.81 113.47, 26.89 108.59 C18.98 103.71, 13.22 97.1, 8.53 88.92 C3.83 80.74, -1.05 68.99, -1.27 59.51 C-1.49 50.03, 2.5 40.2, 7.23 32.04 C11.96 23.89, 18.89 15.75, 27.1 10.57 C35.3 5.39, 46.58 2.02, 56.46 0.95 C66.34 -0.12, 81.43 3.39, 86.39 4.14 C91.35 4.89, 86.64 4.68, 86.24 5.45" stroke="#000000" stroke-width="1" fill="none"></path></g><g stroke-linecap="round" transform="translate(283.142961774553 148.28565325055706) rotate(0 15.42859758649547 15.428575788225544)"><path d="M1.21 9 C1.21 9, 1.21 9, 1.21 9 M1.21 9 C1.21 9, 1.21 9, 1.21 9 M0.68 16.76 C3.84 11.16, 8.02 6.23, 9.93 1.73 M0.39 15.96 C4.07 11.84, 7.74 7.23, 11.75 3.37 M2.26 21.99 C9.33 14.17, 11.98 7.22, 17.46 4.91 M0.52 21.76 C5.47 16.72, 9.64 11.47, 16.41 2.66 M3.4 21.7 C8 19.02, 15.77 11.67, 21.05 1.72 M4.8 24.02 C8.73 19.7, 11.72 13.88, 23.6 3.35 M5.18 25.97 C12.28 21.22, 19.48 14.09, 25.89 3.71 M6.65 28.03 C11.25 23.17, 14.43 17.93, 25.28 5.57 M10.27 29.79 C16.31 23, 23.33 13.76, 30.74 5.31 M9.43 29.48 C16.17 23.78, 21.37 16.76, 28.79 7.59 M15.46 30.69 C18.89 24.4, 23.95 18.6, 31.5 10.2 M13.65 31.5 C20.1 23.66, 27.98 15.28, 30.67 11.33 M18.83 30.67 C24.07 24.56, 26.02 19.37, 32.93 15.16 M19.86 31.33 C24.59 24.92, 28.03 19.75, 33.16 15.93" stroke="#ced4da" stroke-width="0.5" fill="none"></path><path d="M19.49 0.28 C22.74 0.45, 25.68 2.66, 27.61 5.15 C29.54 7.64, 31.25 11.72, 31.07 15.22 C30.9 18.72, 28.74 23.7, 26.56 26.15 C24.37 28.59, 21.09 29.56, 17.96 29.89 C14.84 30.22, 10.74 29.85, 7.79 28.13 C4.84 26.41, 1.34 22.81, 0.27 19.59 C-0.81 16.38, -0.03 11.99, 1.34 8.85 C2.71 5.71, 5.15 2.2, 8.49 0.75 C11.82 -0.7, 19.05 -0.26, 21.35 0.15 C23.66 0.57, 22.43 2.91, 22.32 3.25 M16.01 0.94 C19.27 0.99, 23.31 2.2, 25.95 4.08 C28.59 5.97, 31.36 8.87, 31.84 12.25 C32.33 15.62, 30.88 21.42, 28.85 24.33 C26.83 27.25, 23.08 28.97, 19.69 29.76 C16.3 30.54, 11.63 30.33, 8.51 29.03 C5.39 27.73, 2.49 25, 0.96 21.97 C-0.56 18.93, -1.46 13.89, -0.66 10.84 C0.14 7.79, 2.92 5.44, 5.76 3.66 C8.61 1.87, 14.88 0.79, 16.42 0.13 C17.96 -0.52, 15.18 -0.71, 15.02 -0.27" stroke="#000000" stroke-width="1" fill="none"></path></g><g stroke-linecap="round" transform="translate(270.0000435965403 359.71429007394) rotate(0 15.42859758649547 15.428575788225544)"><path d="M0.3 9.53 C0.3 9.53, 0.3 9.53, 0.3 9.53 M0.3 9.53 C0.3 9.53, 0.3 9.53, 0.3 9.53 M1.4 14.8 C3.61 11.29, 6.52 7.06, 8.93 4.47 M0.6 15.44 C3.19 12.59, 5.32 10.23, 10.57 4.57 M2.03 22.55 C5.22 14.42, 9.31 11.96, 20.13 0.35 M1.81 20.85 C6.22 15.56, 10.46 9.19, 17.88 0.9 M1.49 22.81 C9.5 20, 12.81 11.2, 21 1.24 M3.8 24.82 C10.15 16.69, 15.01 10.57, 22.64 3.34 M4.73 26.83 C12.49 21.82, 17.86 15.62, 24.04 3.53 M6.8 27.79 C13.4 19.25, 19.6 12.36, 25.91 5.31 M8.95 30.28 C17.05 22.3, 22.67 14.83, 26.79 7.41 M8.64 31.05 C17.01 22, 24.05 12.51, 29.07 7.61 M13.07 31.04 C18.88 23.76, 25.17 17.54, 29.26 13.62 M13.88 30.46 C17.88 26.98, 21.33 21.6, 30.38 11.99 M17.67 32.5 C22.01 23.85, 27.27 19.88, 31.03 16.95 M18.34 32.54 C21.55 26.33, 25.99 22.81, 31.8 16.43" stroke="#be4bdb" stroke-width="0.5" fill="none"></path><path d="M8.41 1.59 C10.81 -0.08, 15.01 -0.08, 18.1 0.65 C21.18 1.37, 24.75 3.26, 26.92 5.96 C29.09 8.66, 31.31 13.39, 31.13 16.84 C30.95 20.29, 28.19 24.41, 25.83 26.66 C23.46 28.9, 20.14 30, 16.92 30.3 C13.7 30.61, 9.31 30.2, 6.48 28.49 C3.66 26.78, 1.01 23.2, -0.03 20.05 C-1.07 16.89, -1.43 12.94, 0.27 9.57 C1.96 6.19, 7.73 1.29, 10.12 -0.2 C12.51 -1.7, 14.42 0.17, 14.59 0.58 M12.38 0.39 C15.41 -0.36, 19.2 1.02, 21.8 2.54 C24.4 4.06, 26.48 6.71, 27.96 9.51 C29.44 12.32, 31.38 16.39, 30.68 19.36 C29.99 22.33, 26.64 25.55, 23.78 27.35 C20.92 29.14, 16.79 30.51, 13.52 30.15 C10.25 29.8, 6.58 27.54, 4.18 25.22 C1.78 22.9, -0.77 19.34, -0.89 16.23 C-1.01 13.12, 1.38 9.41, 3.46 6.57 C5.53 3.72, 10.32 0.25, 11.57 -0.85 C12.82 -1.95, 10.69 -0.67, 10.94 -0.04" stroke="#000000" stroke-width="1" fill="none"></path></g><g stroke-linecap="round" transform="translate(321.14288330078034 359.9999346051891) rotate(0 15.42859758649547 15.428575788225544)"><path d="M3.75 4.59 C3.75 4.59, 3.75 4.59, 3.75 4.59 M3.75 4.59 C3.75 4.59, 3.75 4.59, 3.75 4.59 M-1.2 15.33 C3.82 9.33, 7.95 1.6, 14.1 -1.3 M-0.4 15.54 C4.95 8.92, 10.92 2.96, 14.23 -1.01 M4.96 17.64 C6.47 11.86, 13.65 7.65, 16.82 0.43 M3.26 17.83 C8.76 11.11, 13.18 4.94, 17.36 0.48 M2.89 23.16 C9.56 17.37, 10.23 12.97, 20.83 1.96 M4.9 22.74 C9.71 14.66, 16.55 9.8, 22.93 0.84 M4.58 28.53 C12.07 21.4, 18.32 11.25, 24.26 4.28 M5.54 28.15 C8.83 22.63, 13.77 17.15, 26.04 4.43 M9.09 29.8 C13.28 23.74, 17.98 18.42, 27.88 8.7 M9.86 29.7 C14.46 23.47, 18.64 17.89, 28.08 7.72 M12.4 30.37 C16.21 25.86, 21.1 20.51, 32.98 8.52 M11.82 31.46 C17.58 25.49, 21.41 20.46, 31.35 10.73 M17.18 31.14 C18.93 26.25, 25.34 22.45, 31.92 16.3 M17.21 31.83 C19.18 28.18, 23.87 24.95, 31.4 17.03" stroke="#ced4da" stroke-width="0.5" fill="none"></path><path d="M22.72 0.98 C25.5 2.18, 28.83 5.62, 30.01 8.89 C31.19 12.16, 30.81 17.47, 29.81 20.61 C28.81 23.76, 26.69 26.12, 24.02 27.75 C21.35 29.38, 17.24 30.81, 13.81 30.38 C10.37 29.95, 5.7 27.72, 3.43 25.18 C1.16 22.64, 0.16 18.55, 0.17 15.16 C0.19 11.77, 1.46 7.47, 3.53 4.84 C5.6 2.21, 9.42 -0.32, 12.58 -0.62 C15.75 -0.93, 20.64 2.49, 22.53 3.01 C24.42 3.53, 23.91 2.49, 23.94 2.49 M12.93 0.01 C16.25 -1.07, 21.55 -1.04, 24.49 0.76 C27.44 2.56, 29.73 7.51, 30.61 10.81 C31.48 14.1, 31.14 17.59, 29.73 20.52 C28.31 23.46, 25.12 26.79, 22.13 28.41 C19.14 30.03, 15.1 30.96, 11.8 30.25 C8.5 29.54, 4.36 26.57, 2.31 24.15 C0.26 21.74, -0.76 18.89, -0.51 15.76 C-0.26 12.64, 1.79 8.07, 3.83 5.38 C5.86 2.68, 10.29 0.19, 11.69 -0.42 C13.1 -1.04, 11.83 1.55, 12.25 1.69" stroke="#000000" stroke-width="1" fill="none"></path></g><g stroke-linecap="round" transform="translate(184.28575788225407 266.57141549246626) rotate(0 15.42859758649547 15.428575788225544)"><path d="M1.25 7.71 C1.25 7.71, 1.25 7.71, 1.25 7.71 M1.25 7.71 C1.25 7.71, 1.25 7.71, 1.25 7.71 M0.19 14.52 C3.09 10.14, 4.46 8.69, 10.61 3.64 M0.37 15.19 C2.41 12.91, 5.05 10.25, 10.88 2.49 M1.64 18 C6.89 13.99, 13.72 6.76, 16.12 3.66 M1.82 19.9 C4.41 15.28, 7.56 11.88, 16.17 1.44 M4.63 24.54 C7.66 16.44, 12.06 11.15, 22.27 3.01 M4.21 22.9 C8.82 16.88, 16.66 9.29, 21.16 2.86 M6.82 27.49 C11.22 22.6, 12.59 16.18, 24.99 3.75 M6.44 26.3 C11.58 20.35, 16.77 14.8, 25.15 4.4 M9.9 29.6 C14.48 23.3, 19.81 14.69, 29.71 6.61 M9.79 29.42 C14.56 22.44, 19.97 17.24, 28.72 6.48 M12.93 29.83 C19.67 23.11, 25.59 17.14, 29.92 8.82 M14.02 30.51 C17.83 24.69, 22.6 20.2, 32.13 9.72 M15.5 30.56 C19.7 27.8, 24.98 23.17, 32.36 13.38 M16.19 31.74 C22.1 26.37, 28.43 19.41, 33.09 15.05" stroke="#be4bdb" stroke-width="0.5" fill="none"></path><path d="M19.98 1.22 C22.86 2.11, 26.18 4.69, 28 7.61 C29.81 10.54, 31.49 15.4, 30.89 18.8 C30.29 22.19, 27.04 26.07, 24.38 28.01 C21.73 29.94, 18.19 30.52, 14.95 30.41 C11.7 30.29, 7.47 29.35, 4.9 27.31 C2.33 25.26, 0.15 21.37, -0.47 18.12 C-1.1 14.87, -0.48 10.82, 1.16 7.81 C2.8 4.79, 5.62 0.98, 9.38 0.03 C13.14 -0.91, 21.24 1.53, 23.73 2.11 C26.21 2.7, 24.63 3.4, 24.29 3.55 M13.24 1.21 C15.93 0.73, 19.38 1.41, 22.26 2.99 C25.13 4.58, 29.35 7.77, 30.5 10.7 C31.66 13.64, 30.62 17.64, 29.2 20.6 C27.79 23.56, 24.92 27.01, 22.02 28.47 C19.11 29.94, 15.06 30.09, 11.77 29.39 C8.47 28.7, 4.09 26.74, 2.24 24.3 C0.38 21.86, 0.34 18.21, 0.66 14.76 C0.99 11.32, 2.13 6.22, 4.16 3.64 C6.18 1.05, 11.06 -0.35, 12.81 -0.72 C14.57 -1.1, 14.74 1.08, 14.66 1.38" stroke="#000000" stroke-width="1" fill="none"></path></g><g stroke-linecap="round" transform="translate(183.14291817801313 229.71420288085938) rotate(0 15.42859758649547 15.428575788225544)"><path d="M4.13 4.91 C4.13 4.91, 4.13 4.91, 4.13 4.91 M4.13 4.91 C4.13 4.91, 4.13 4.91, 4.13 4.91 M0.8 13.76 C4.84 6.51, 11.79 2.2, 15.32 -1.27 M1.47 13.69 C6.7 8.5, 11.54 2.81, 14.16 0.4 M1.2 18.84 C8.19 14.66, 11.98 6.56, 18.65 0.22 M3.09 18.33 C7.64 11.95, 13.39 5.73, 16.43 1.38 M5.41 22.6 C6.04 18.34, 9.47 15.86, 21.97 3.85 M3.78 22.42 C10.67 17.26, 16.02 9.32, 21.82 2.2 M7.24 27.39 C11.76 19.2, 14.73 15.96, 23.76 4.69 M6.05 26.76 C13.82 17.79, 21.98 9.62, 24.42 5.11 M10.51 27.76 C16.96 20.35, 21.12 17.15, 27.77 6.85 M10.32 28.88 C14.39 23.09, 20.25 17.16, 27.64 8.16 M12.64 30.89 C18.69 24.29, 25.48 17.98, 29.72 10 M13.32 31.18 C19.36 23.71, 26.71 16.92, 30.62 10.73 M17.14 29.01 C23.55 25.26, 28.1 21.49, 32.41 15.06 M18.32 30.1 C24.34 25.31, 28.79 20.76, 34.08 12.86" stroke="#ced4da" stroke-width="0.5" fill="none"></path><path d="M14.99 -0.86 C18.09 -1, 21.9 1.47, 24.57 3.49 C27.24 5.51, 30.15 8.13, 31.01 11.26 C31.88 14.39, 31.45 19.25, 29.76 22.24 C28.07 25.24, 24.02 28, 20.88 29.21 C17.75 30.41, 14 30.54, 10.96 29.46 C7.91 28.38, 4.36 25.56, 2.6 22.72 C0.83 19.89, 0.11 15.46, 0.37 12.48 C0.63 9.5, 0.97 6.91, 4.17 4.86 C7.37 2.82, 16.34 0.65, 19.59 0.2 C22.84 -0.26, 23.81 1.88, 23.66 2.14 M21.12 -0.76 C24.29 0.08, 27.41 4.52, 29 7.47 C30.59 10.42, 31.28 13.81, 30.64 16.94 C29.99 20.06, 27.66 23.98, 25.14 26.25 C22.61 28.51, 18.85 30.44, 15.49 30.52 C12.13 30.61, 7.57 28.58, 4.96 26.74 C2.36 24.89, 0.39 22.5, -0.14 19.45 C-0.68 16.4, 0.36 11.58, 1.74 8.43 C3.12 5.29, 5.22 1.67, 8.13 0.58 C11.04 -0.51, 17.06 2.05, 19.19 1.91 C21.31 1.77, 20.92 -0.32, 20.88 -0.27" stroke="#000000" stroke-width="1" fill="none"></path></g><g stroke-linecap="round" transform="translate(100.85723876953216 145.71430751255502) rotate(0 15.42859758649547 15.428575788225544)"><path d="M6.08 3.96 C6.08 3.96, 6.08 3.96, 6.08 3.96 M6.08 3.96 C6.08 3.96, 6.08 3.96, 6.08 3.96 M2.08 13.09 C2.81 12.41, 6.65 10.09, 13.02 1.89 M2.01 15.26 C4.81 12.37, 7.11 8.57, 14.79 1 M3.31 20.15 C10.98 12.07, 14.74 7.18, 17.04 3.11 M2.8 19.1 C7.37 13.96, 12.11 7.81, 18.2 0.68 M2.58 23.74 C6.8 18.42, 12.82 15.46, 23.23 4.23 M2.4 26.29 C10.94 17.82, 16.71 9.73, 21.58 3 M7.77 28.19 C10.08 20.47, 17.39 14.1, 26.53 6.62 M7.13 27.58 C13.07 21.1, 19.86 12.24, 26.95 4.71 M8.53 31.98 C13.35 23.82, 22.41 16.68, 27.78 8.41 M9.65 30.03 C17.11 22.24, 24.45 12.98, 29.09 8.74 M12.71 32.91 C17.02 28.89, 21.62 20.29, 29.25 14.36 M13 32.08 C16.75 28.59, 21.21 23.93, 29.99 12.68 M16.48 33.54 C21.18 29.56, 25.87 23.05, 30.54 20.39 M17.41 33.73 C22.35 28.5, 27.5 23.28, 28.66 19.36" stroke="#ced4da" stroke-width="0.5" fill="none"></path><path d="M14.09 -0.24 C17.42 -0.48, 22.68 1.64, 25.28 3.84 C27.89 6.04, 29.13 9.87, 29.7 12.94 C30.27 16.02, 30.21 19.46, 28.7 22.29 C27.2 25.12, 23.79 28.6, 20.66 29.93 C17.53 31.26, 13.13 31.29, 9.91 30.26 C6.68 29.24, 3.09 26.76, 1.31 23.78 C-0.47 20.8, -1.55 15.65, -0.77 12.37 C0.01 9.09, 2.98 6.11, 5.97 4.09 C8.97 2.07, 14.95 0.84, 17.18 0.27 C19.41 -0.3, 19.4 0.34, 19.38 0.68 M13.32 0.59 C16.53 0.07, 22.42 1.32, 25.2 3.11 C27.99 4.91, 29.46 8.24, 30.02 11.38 C30.58 14.51, 30.07 19.07, 28.57 21.94 C27.06 24.81, 24.12 27.31, 20.99 28.6 C17.87 29.88, 12.8 30.43, 9.81 29.62 C6.82 28.81, 4.65 26.64, 3.05 23.71 C1.46 20.78, 0.01 15.44, 0.24 12.02 C0.47 8.6, 1.8 5.03, 4.42 3.18 C7.05 1.34, 14.47 1.53, 15.99 0.95 C17.51 0.37, 13.71 -0.36, 13.53 -0.28" stroke="#000000" stroke-width="1" fill="none"></path></g><g stroke-linecap="round" transform="translate(52.857186453683425 139.42855834960938) rotate(0 15.42859758649547 15.428575788225544)"><path d="M1.91 8.28 C1.91 8.28, 1.91 8.28, 1.91 8.28 M1.91 8.28 C1.91 8.28, 1.91 8.28, 1.91 8.28 M-1.18 14.59 C4.47 11.44, 8.74 7.12, 11.96 3.14 M0.64 16.23 C5.07 11.08, 8.73 7.42, 11.21 4.81 M1.1 23.82 C6.03 14.59, 14.11 6.45, 21.2 0.02 M0.05 21.57 C6.95 14.02, 12.85 6.31, 18.77 -0.75 M2.07 23.64 C8.55 17.55, 17.41 9.8, 24.13 3.06 M4.61 25.28 C10.9 16.5, 17.56 8.17, 22.89 1.44 M6.91 25.63 C12.59 19.11, 19.63 10.09, 28.42 4.87 M6.3 27.5 C15.21 18.56, 21.73 9.11, 26.51 4.48 M11.1 27.99 C16.25 23.68, 22.43 13.83, 29.1 8.77 M9.15 30.27 C16.99 21.92, 23.4 13.73, 29.42 6.93 M14.48 29.86 C20.57 24.44, 22.09 19.67, 31.96 10.24 M13.66 30.99 C20.21 25.07, 25.61 17.26, 30.28 12.37 M19.82 30.33 C23.01 28.29, 23.35 26.53, 31.93 18.48 M20.03 31.07 C22.31 29.14, 24.58 24.77, 30.78 17.73" stroke="#ced4da" stroke-width="0.5" fill="none"></path><path d="M8.6 1.77 C11.4 0.26, 16.53 -1.06, 19.88 -0.32 C23.23 0.42, 26.93 3.46, 28.68 6.22 C30.42 8.97, 30.71 13, 30.36 16.23 C30 19.46, 28.78 23.35, 26.55 25.61 C24.33 27.87, 20.3 29.54, 17.02 29.8 C13.74 30.06, 9.76 28.76, 6.87 27.17 C3.99 25.59, 0.58 23.39, -0.3 20.3 C-1.17 17.21, -0.26 11.99, 1.59 8.64 C3.45 5.3, 9.03 1.61, 10.83 0.22 C12.62 -1.17, 12.22 -0.02, 12.38 0.3 M15.1 0.39 C18.03 0.17, 22.11 0.75, 24.55 2.57 C26.98 4.4, 29.03 8.09, 29.7 11.33 C30.37 14.57, 30.12 19.14, 28.58 22.03 C27.04 24.91, 23.46 27.17, 20.45 28.64 C17.44 30.11, 13.48 31.63, 10.5 30.86 C7.51 30.09, 4.52 26.99, 2.56 24.02 C0.6 21.05, -1.5 16.14, -1.26 13.04 C-1.03 9.94, 1.19 7.8, 3.98 5.42 C6.77 3.04, 13.8 -0.4, 15.46 -1.24 C17.12 -2.09, 14.11 -0.08, 13.94 0.35" stroke="#000000" stroke-width="1" fill="none"></path></g><g stroke-linecap="round" transform="translate(191.42861502511096 63.71427263532314) rotate(0 15.42859758649547 15.428575788225544)"><path d="M6.4 2.92 C6.4 2.92, 6.4 2.92, 6.4 2.92 M6.4 2.92 C6.4 2.92, 6.4 2.92, 6.4 2.92 M2.12 12.87 C5.03 11.15, 6.92 8.35, 11.85 2.86 M3.56 12.96 C5.36 9.98, 8.47 7.29, 13.31 1.86 M3.27 20.15 C4.53 18.06, 6.87 14.06, 18.42 2.26 M1.02 20.7 C6.38 13.99, 11.57 7.78, 17.65 1.82 M2.84 22.55 C11.36 16.95, 18.22 9.56, 23.26 4.18 M4.47 24.65 C8.66 18.46, 13.28 11.94, 21.65 3.93 M4.57 26.34 C12.5 19.06, 17.95 15.62, 26.12 7.1 M6.43 28.13 C10.51 22.27, 14.1 18.7, 25.74 5.5 M7.32 30.23 C17.05 22.29, 21.24 15.23, 30.42 9.08 M9.6 30.43 C16.02 22.29, 22.61 15.57, 28.58 7.47 M12.4 33.42 C16.91 24.94, 22.07 21.95, 28.71 13 M13.53 31.79 C19.9 25.01, 24.39 18.53, 30.84 11.06 M18.11 32.23 C22.2 26.31, 26.57 24.73, 33.85 14.13 M18.89 31.71 C23.43 27.3, 25.39 22.22, 33.06 16.04" stroke="#ced4da" stroke-width="0.5" fill="none"></path><path d="M17.51 0.62 C20.66 0.94, 23.65 3.25, 25.82 5.49 C27.99 7.73, 30.27 10.86, 30.52 14.08 C30.77 17.3, 29.36 22.05, 27.33 24.81 C25.29 27.57, 21.61 29.85, 18.31 30.62 C15.01 31.4, 10.51 31.11, 7.51 29.46 C4.52 27.8, 1.34 23.75, 0.33 20.7 C-0.68 17.66, 0.41 14.19, 1.46 11.18 C2.51 8.18, 3.96 4.55, 6.62 2.67 C9.28 0.79, 15.47 0.13, 17.42 -0.1 C19.37 -0.34, 18.29 0.96, 18.32 1.25 M21.23 0.9 C24.4 1.61, 26.93 4.34, 28.4 7.13 C29.87 9.92, 30.64 14.45, 30.06 17.64 C29.47 20.83, 27.52 24.15, 24.89 26.26 C22.27 28.38, 17.45 30.19, 14.3 30.34 C11.16 30.49, 8.36 29.44, 6.03 27.15 C3.69 24.85, 1.05 19.97, 0.31 16.57 C-0.44 13.16, -0.32 9.17, 1.55 6.71 C3.42 4.25, 8.52 2.86, 11.52 1.81 C14.53 0.76, 18.06 0.5, 19.6 0.39 C21.15 0.27, 20.7 0.78, 20.78 1.1" stroke="#000000" stroke-width="1" fill="none"></path></g><g stroke-linecap="round" transform="translate(192.85718645368343 17.999986921037817) rotate(0 15.42859758649547 15.428575788225544)"><path d="M1.78 8.17 C1.78 8.17, 1.78 8.17, 1.78 8.17 M1.78 8.17 C1.78 8.17, 1.78 8.17, 1.78 8.17 M1.52 14.5 C5.96 10.26, 9.1 6.44, 13.34 1.69 M1.62 14.76 C4.73 11.69, 8.2 8.02, 12.13 1.75 M1.07 19.86 C7.96 12.89, 12.94 9.07, 17.89 3.15 M1.61 19.91 C5.4 14.8, 9.69 9.61, 17.45 3.56 M1.8 25.16 C9.05 19.55, 14.49 14.17, 23.58 2.01 M3.9 24.05 C7.47 18.89, 10.76 14.77, 23.33 2.57 M4.57 28.24 C11.63 19.32, 22.53 11.5, 27.65 3.15 M6.35 28.4 C12.56 19.34, 21.03 10.56, 26.05 5.32 M8.19 32.66 C12.97 24.43, 18.65 20.52, 30.68 7.53 M8.4 31.68 C14.61 23.77, 22.21 15.02, 29.07 6.74 M15.26 30.22 C17.08 25.14, 24.4 18.72, 31.52 12.37 M13.63 32.43 C18.32 25.51, 23.28 20.24, 29.58 11.06 M20.05 31.2 C20.21 29.64, 24.49 26.77, 29.66 16.02 M19.55 31.9 C21.94 27.24, 23.71 25.45, 31.47 16.35" stroke="#ced4da" stroke-width="0.5" fill="none"></path><path d="M9.39 0.63 C12.29 -0.98, 16.99 -0.7, 20.03 0.2 C23.06 1.11, 25.77 3.42, 27.59 6.06 C29.42 8.7, 31.14 12.84, 30.97 16.05 C30.8 19.25, 28.87 23.01, 26.55 25.31 C24.24 27.62, 20.52 29.26, 17.06 29.86 C13.6 30.46, 8.5 30.69, 5.78 28.91 C3.06 27.12, 1.42 22.55, 0.71 19.14 C0.01 15.73, -0.01 11.52, 1.55 8.43 C3.11 5.34, 8.24 1.89, 10.09 0.58 C11.94 -0.72, 12.54 0.2, 12.66 0.61 M8.09 1.33 C10.55 -0.47, 14.75 -0.91, 17.89 -0.2 C21.03 0.52, 24.97 3.07, 26.94 5.61 C28.92 8.14, 29.84 11.55, 29.75 15.01 C29.66 18.48, 28.41 23.77, 26.38 26.4 C24.36 29.03, 21.01 30.56, 17.59 30.81 C14.18 31.06, 8.84 29.48, 5.89 27.91 C2.94 26.34, 0.54 24.66, -0.1 21.41 C-0.73 18.15, 0.78 11.65, 2.06 8.38 C3.34 5.12, 6.56 2.91, 7.57 1.83 C8.59 0.74, 7.95 1.52, 8.15 1.88" stroke="#000000" stroke-width="1" fill="none"></path></g><g stroke-linecap="round" transform="translate(338.57147216796784 155.1428440638947) rotate(0 15.42859758649547 15.428575788225544)"><path d="M3.68 4.53 C3.68 4.53, 3.68 4.53, 3.68 4.53 M3.68 4.53 C3.68 4.53, 3.68 4.53, 3.68 4.53 M-0.73 16.31 C1.44 13.13, 4.04 10.48, 11.1 1.35 M-0.46 15.16 C4.55 10.42, 8.91 5.51, 11.17 1.28 M1.5 20.1 C4.44 15.29, 10.54 9.68, 15.92 2.71 M1.55 17.88 C4.61 14.21, 7.59 11.96, 16.33 2.61 M4.37 23.23 C8.05 19.74, 11.96 15.9, 19.51 2.23 M3.26 23.08 C8.97 15.09, 15.71 9.02, 20.07 4.81 M6.44 24.72 C11.98 21.5, 18.6 14.56, 23.67 5.27 M6.59 25.37 C11.07 20.6, 15.83 15.2, 25.84 3.29 M10.49 28.33 C15.46 20.61, 24.74 14.32, 28.54 7.64 M9.51 28.2 C14.01 23.74, 17.67 18.35, 27.75 6.92 M11.37 29.79 C17.29 25.87, 21.86 19.31, 30.2 11.14 M13.58 30.69 C16.8 25.56, 21.67 19.99, 28.89 10.31 M18.37 29.27 C23.43 26.38, 27.31 20.13, 28.77 16.38 M18.99 30.69 C22.18 24.57, 27.93 20.2, 29.07 18.13" stroke="#ced4da" stroke-width="0.5" fill="none"></path><path d="M12.69 0.77 C15.68 0.02, 20.66 0.31, 23.5 2.02 C26.33 3.74, 28.79 7.79, 29.7 11.06 C30.61 14.32, 30.33 18.55, 28.96 21.61 C27.59 24.67, 24.45 28.06, 21.47 29.4 C18.48 30.74, 13.98 30.38, 11.06 29.63 C8.13 28.88, 5.83 27.39, 3.94 24.91 C2.04 22.44, -0.25 18.16, -0.31 14.78 C-0.36 11.4, 1.22 6.97, 3.6 4.62 C5.99 2.27, 12.12 1.39, 14.01 0.65 C15.9 -0.09, 14.77 0.2, 14.95 0.2 M17.9 -0.46 C20.87 -0.14, 24.78 2.57, 26.89 5.08 C28.99 7.59, 30.67 11.27, 30.54 14.6 C30.41 17.93, 28.13 22.36, 26.12 25.04 C24.11 27.72, 21.58 30.31, 18.49 30.68 C15.4 31.06, 10.63 29.13, 7.58 27.29 C4.54 25.44, 1.13 22.34, 0.24 19.6 C-0.66 16.86, 1.16 13.88, 2.23 10.84 C3.3 7.79, 3.99 3.12, 6.68 1.33 C9.37 -0.46, 16.49 0.25, 18.39 0.11 C20.3 -0.04, 18.03 0.11, 18.11 0.47" stroke="#000000" stroke-width="1" fill="none"></path></g><g stroke-linecap="round" transform="translate(440.0000435965403 62.28570120675158) rotate(0 15.42859758649547 15.428575788225544)"><path d="M6.99 2.1 C6.99 2.1, 6.99 2.1, 6.99 2.1 M6.99 2.1 C6.99 2.1, 6.99 2.1, 6.99 2.1 M4.79 11.22 C6.43 9.14, 8.51 7.07, 13.48 1.53 M3.82 12.61 C6.7 9.53, 9.45 4.76, 13.42 1.09 M2.48 19.29 C9.82 12.9, 16.33 4.99, 18.66 -0.81 M0.26 20.45 C5.14 14.72, 11.41 10.55, 18.55 -0.29 M3.84 25.18 C9.41 19.8, 14.58 12.43, 20.74 4.15 M3.69 23.54 C10.25 15.63, 18.74 7.75, 23.31 2.5 M4.31 27.53 C12.7 22.74, 17.35 15.05, 27.84 3.35 M4.97 27.95 C12.86 19.6, 20.13 11.81, 25.86 4.95 M7.67 30.45 C12.45 27.43, 18.65 21.13, 29.85 5.64 M7.53 31.76 C15.72 22.2, 22.99 13.53, 29.13 7.1 M12.9 29.82 C19.5 24.12, 23.48 21.42, 30.92 10.14 M13.79 30.56 C19.05 24.71, 23.87 17.31, 30.09 11.43 M18.21 31.87 C23.24 28.13, 24.33 21.81, 31.26 17.14 M19.88 29.66 C22.45 26.75, 27.09 21.08, 33.32 14.48" stroke="#ced4da" stroke-width="0.5" fill="none"></path><path d="M18.36 -0.14 C21.33 0.19, 24.43 2.31, 26.54 4.73 C28.65 7.14, 30.83 11.13, 31.02 14.34 C31.21 17.56, 29.73 21.5, 27.69 24.04 C25.64 26.59, 22.15 28.66, 18.74 29.61 C15.33 30.57, 10.14 31.28, 7.23 29.8 C4.31 28.32, 2.3 24.06, 1.25 20.76 C0.2 17.46, -0.04 13.14, 0.92 10.01 C1.89 6.89, 3.96 3.63, 7.06 2.01 C10.16 0.4, 17.38 0.36, 19.51 0.31 C21.65 0.27, 20.19 1.41, 19.87 1.73 M16.54 -0.42 C19.59 -0.22, 23.85 2.22, 26.05 4.56 C28.25 6.91, 29.54 10.18, 29.74 13.64 C29.94 17.1, 29.05 22.52, 27.26 25.34 C25.46 28.16, 22.31 30.02, 18.95 30.56 C15.58 31.1, 10.18 29.9, 7.09 28.59 C3.99 27.28, 1.3 25.84, 0.39 22.69 C-0.53 19.54, 0.6 13.04, 1.6 9.68 C2.6 6.32, 3.81 4.16, 6.39 2.53 C8.97 0.9, 15.31 0.13, 17.1 -0.09 C18.89 -0.31, 17.04 0.83, 17.12 1.22" stroke="#000000" stroke-width="1" fill="none"></path></g><g stroke-linecap="round" transform="translate(434.2857578822541 15.1428440638947) rotate(0 15.42859758649547 15.428575788225544)"><path d="M0.85 8.69 C0.85 8.69, 0.85 8.69, 0.85 8.69 M0.85 8.69 C0.85 8.69, 0.85 8.69, 0.85 8.69 M-0.46 16.15 C3.07 12.34, 6.6 7.53, 11.01 3.85 M0.94 15.44 C5.15 10.73, 7.68 6.36, 10.57 4.51 M-0.65 22.18 C5.15 16.85, 9.43 11.03, 15.37 2.09 M0.51 19.75 C4.6 16.43, 10.26 10.72, 15.89 2.21 M4.88 24.06 C8.86 20.01, 10.88 12.96, 23.45 4.62 M3.23 22.82 C9.5 17.35, 15.79 10.69, 21.79 2.26 M6.21 28.71 C11.11 23.85, 13.11 18.41, 24.45 5.68 M6.63 26.8 C12.68 19.93, 19.29 11.74, 26.05 3.99 M8.77 28.99 C16.49 24.36, 20.92 17.17, 27.14 8.6 M10.08 29.32 C14.93 22.56, 20.66 15.98, 28.6 6.99 M12.87 31.92 C18.36 24.51, 26.84 16.12, 28.55 12.69 M13.6 30.24 C19.15 23.71, 23.16 17.63, 29.84 11.92 M19.56 31.95 C24.12 24.79, 26.21 20.07, 32.37 17.02 M17.46 30.8 C23.31 26.42, 26.54 21.78, 29.85 17.07" stroke="#ced4da" stroke-width="0.5" fill="none"></path><path d="M19.09 0.07 C22.23 0.61, 25.74 3.92, 27.58 6.73 C29.41 9.54, 30.49 13.63, 30.12 16.93 C29.75 20.24, 27.74 24.39, 25.36 26.56 C22.99 28.73, 18.86 29.68, 15.86 29.96 C12.87 30.24, 10.02 29.99, 7.41 28.26 C4.8 26.52, 1.29 22.84, 0.21 19.57 C-0.88 16.3, -0.49 11.54, 0.92 8.62 C2.32 5.7, 5.19 3.3, 8.63 2.06 C12.07 0.82, 18.94 1.25, 21.55 1.19 C24.16 1.13, 24.31 1.41, 24.28 1.7 M14.43 -0.63 C17.59 -0.99, 22.14 0.15, 24.67 2.22 C27.19 4.29, 28.75 8.35, 29.58 11.78 C30.42 15.2, 31.06 19.98, 29.67 22.75 C28.28 25.52, 24.52 27.31, 21.24 28.39 C17.96 29.47, 12.94 29.88, 9.99 29.23 C7.03 28.57, 5.36 27.25, 3.51 24.48 C1.66 21.71, -1.39 16.06, -1.11 12.6 C-0.83 9.15, 2.53 5.86, 5.18 3.74 C7.82 1.62, 13 0.38, 14.76 -0.11 C16.53 -0.6, 15.63 0.49, 15.77 0.82" stroke="#000000" stroke-width="1" fill="none"></path></g><g stroke-linecap="round" transform="translate(433.42864990234466 224.8571995326447) rotate(0 15.42859758649547 15.428575788225544)"><path d="M8.68 0.92 C8.68 0.92, 8.68 0.92, 8.68 0.92 M8.68 0.92 C8.68 0.92, 8.68 0.92, 8.68 0.92 M6.13 10.24 C8.45 7.83, 9.85 6.37, 14.4 1.78 M5.47 11.7 C7.32 7.97, 9.5 6.25, 15.02 0.23 M3.7 20.58 C8.01 15.19, 11.86 7.78, 19.43 -0.47 M1.27 19.81 C7.67 15.8, 11.63 8.76, 19.56 -0.78 M5.31 25.13 C12.01 15.89, 15.69 10.61, 25.28 2.55 M4.08 23.51 C10.43 18.22, 15.6 12.26, 22.92 1.29 M8.95 27.69 C15.56 17.97, 21.55 11.58, 27.49 5.37 M7.04 27.31 C14.81 19.13, 21.23 11.24, 25.8 4.55 M10.28 30.84 C19.25 21.5, 25.65 11.38, 30.8 7.35 M10.61 29 C17.36 20.97, 24.25 13.54, 29.2 8.21 M16.43 28.54 C19.95 26.54, 22.48 20.79, 31.06 12.74 M14.75 30.66 C20.44 22.31, 26.58 16.28, 30.28 12.7 M19.04 33.84 C20.92 26.63, 25.36 24.7, 31.54 18.24 M17.83 33.05 C23.73 25.96, 29.37 19.82, 31.58 16.97" stroke="#ced4da" stroke-width="0.5" fill="none"></path><path d="M8.75 0.84 C11.46 -0.67, 16.62 -0.9, 19.9 -0.07 C23.18 0.77, 26.58 3.15, 28.43 5.85 C30.28 8.55, 31.53 12.57, 31.01 16.16 C30.48 19.75, 27.67 24.98, 25.27 27.37 C22.88 29.76, 19.77 30.5, 16.63 30.5 C13.49 30.49, 9.2 29.3, 6.45 27.36 C3.7 25.42, 0.85 21.99, 0.14 18.85 C-0.57 15.71, 0.17 11.51, 2.19 8.54 C4.21 5.57, 10.18 2.33, 12.28 1.02 C14.37 -0.28, 14.64 0.57, 14.75 0.7 M12.35 -0.12 C15.36 -0.88, 19.4 -0.62, 22.25 1.24 C25.11 3.1, 28.23 7.73, 29.49 11.03 C30.76 14.33, 31.18 18.16, 29.86 21.04 C28.53 23.91, 24.6 26.51, 21.57 28.31 C18.53 30.1, 14.52 32.52, 11.66 31.78 C8.8 31.05, 6.44 26.65, 4.39 23.89 C2.35 21.13, -0.47 18.33, -0.6 15.21 C-0.74 12.08, 1.34 7.5, 3.59 5.13 C5.84 2.76, 11.21 1.67, 12.87 0.99 C14.53 0.32, 13.43 0.82, 13.54 1.08" stroke="#000000" stroke-width="1" fill="none"></path></g><g stroke-linecap="round" transform="translate(432.0000784737722 264.2857360839844) rotate(0 15.42859758649547 15.428575788225544)"><path d="M1.93 8.3 C1.93 8.3, 1.93 8.3, 1.93 8.3 M1.93 8.3 C1.93 8.3, 1.93 8.3, 1.93 8.3 M-0.74 17.61 C4.2 11.07, 10.34 5.64, 13.77 1.42 M1.13 16.33 C3.65 11.56, 8.74 7.51, 11.78 2.47 M2.13 21.23 C7.98 13.65, 11.82 7.08, 16.55 2.38 M1.36 20.79 C5.94 16.56, 7.49 12.97, 16.24 3.39 M5.66 24.65 C9.43 15.41, 17.15 12.55, 22.69 2.76 M4.05 24.41 C10.21 18.18, 15.68 10.41, 21.43 3.6 M6.56 29.84 C8.37 24.44, 13.52 18.93, 25.9 7.31 M6.17 28.24 C10.17 22.98, 14.45 18.1, 25.08 6.74 M12.16 30.31 C16.03 23.89, 19.11 18.79, 28.93 8.99 M10.32 28.71 C14.2 24.09, 18.7 19.06, 29.79 7.21 M12.42 31.97 C18.47 26.35, 20.77 22.46, 29.83 15.41 M14.55 30.02 C17.67 25.02, 23.12 20.54, 29.79 13.55 M19.44 30.93 C19.86 27.99, 25.31 25.83, 31.43 20.02 M18.69 32.74 C21.63 28.67, 25.44 23.19, 30.23 17.47" stroke="#ced4da" stroke-width="0.5" fill="none"></path><path d="M19.87 0.97 C22.85 1.89, 26.28 4.74, 27.92 7.57 C29.55 10.4, 30.23 14.87, 29.69 17.97 C29.16 21.07, 26.88 23.99, 24.7 26.16 C22.52 28.34, 19.82 30.79, 16.62 31.03 C13.42 31.27, 8.28 29.76, 5.48 27.61 C2.67 25.47, 0.43 21.33, -0.21 18.17 C-0.86 15.01, -0.03 11.52, 1.62 8.65 C3.28 5.78, 6.33 2.37, 9.71 0.95 C13.09 -0.47, 19.81 -0.04, 21.9 0.13 C23.98 0.3, 22.46 1.63, 22.24 1.98 M11.35 -0.63 C14.28 -1.57, 18.08 -0.6, 21.21 1.03 C24.35 2.66, 28.63 6.26, 30.16 9.14 C31.69 12.01, 31.48 15.25, 30.37 18.28 C29.26 21.32, 26.03 25.11, 23.48 27.35 C20.93 29.59, 18.45 32.01, 15.05 31.71 C11.65 31.42, 5.58 28.12, 3.08 25.56 C0.58 23, 0.12 19.58, 0.06 16.36 C0 13.14, 0.66 8.84, 2.73 6.27 C4.79 3.7, 10.87 1.84, 12.46 0.97 C14.06 0.1, 12.25 0.81, 12.32 1.05" stroke="#000000" stroke-width="1" fill="none"></path></g><g stroke-linecap="round" transform="translate(534.2857578822541 145.1428440638947) rotate(0 15.42859758649547 15.428575788225544)"><path d="M3.76 5.92 C3.76 5.92, 3.76 5.92, 3.76 5.92 M3.76 5.92 C3.76 5.92, 3.76 5.92, 3.76 5.92 M2.43 14.39 C4.05 12.72, 6.91 10.27, 12.66 1.26 M1.01 14.46 C5.53 10.19, 10.87 4.36, 13.82 0.88 M2.81 20.52 C5.23 14.58, 8.69 11.07, 18.38 -1.3 M2.37 20.93 C6.04 14.56, 10.31 9.54, 19.39 0.73 M3.91 24.67 C8.24 18.42, 18.96 8.94, 23.38 1.19 M3.66 25.23 C8.49 19.89, 11.73 13.73, 24.23 0.15 M8.64 25.05 C13.74 19.38, 18.76 14.45, 27.68 2.4 M7.04 27.22 C12.64 20.25, 18.62 12.13, 27.11 4.02 M11.67 29.43 C15.86 21.74, 21.38 17.43, 29.85 6.18 M10.06 28.64 C16.96 21.25, 23.43 14.23, 28.07 7.2 M15.13 31.25 C18.33 24.71, 23.31 20.98, 33.64 10.04 M13.19 29.94 C18.25 25.15, 23.82 19.46, 31.78 9.65 M18.05 29.69 C22.62 27.02, 27.88 21.52, 32.28 17.99 M19.68 29.99 C22.93 26.57, 24.91 24.06, 30 18.1" stroke="#ced4da" stroke-width="0.5" fill="none"></path><path d="M13.21 -0.5 C16.39 -1.26, 20.74 -0.44, 23.58 1.23 C26.43 2.89, 29.36 6.07, 30.26 9.5 C31.16 12.93, 30.18 18.61, 28.98 21.8 C27.78 24.98, 25.79 27.24, 23.06 28.61 C20.33 29.99, 15.91 30.67, 12.58 30.05 C9.26 29.42, 5.11 27.35, 3.11 24.85 C1.12 22.35, 0.51 18.19, 0.61 15.05 C0.71 11.9, 1.43 8.45, 3.69 6.01 C5.94 3.56, 11.86 1.33, 14.15 0.39 C16.44 -0.56, 17.31 0.24, 17.43 0.35 M11.6 -0.71 C14.68 -1.3, 19.53 0.87, 22.58 2.69 C25.64 4.51, 28.92 7.31, 29.92 10.21 C30.92 13.1, 29.84 16.76, 28.58 20.05 C27.31 23.35, 24.81 28.42, 22.34 29.97 C19.86 31.52, 16.96 30.12, 13.74 29.36 C10.52 28.6, 5.36 27.75, 3.04 25.41 C0.72 23.06, -0.25 18.46, -0.18 15.28 C-0.11 12.1, 1.23 8.76, 3.46 6.35 C5.69 3.94, 11.6 1.65, 13.2 0.83 C14.79 0.01, 13 1.2, 13.04 1.43" stroke="#000000" stroke-width="1" fill="none"></path></g><g stroke-linecap="round" transform="translate(454.2857578822541 425.1428440638947) rotate(0 15.42859758649547 15.428575788225544)"><path d="M1.83 6.89 C1.83 6.89, 1.83 6.89, 1.83 6.89 M1.83 6.89 C1.83 6.89, 1.83 6.89, 1.83 6.89 M0.51 15.53 C3.23 13.13, 4.84 8.96, 13.6 1.36 M0.44 14.98 C6 8.96, 9.71 4.42, 11.94 1.15 M1.69 17.57 C6.13 12.82, 10.84 6.01, 16.75 -1.14 M1.59 18.09 C5.11 13.73, 9.55 10.6, 18.15 1.17 M2.46 24.04 C12.52 15.26, 16.94 7.28, 21.15 0.1 M5.04 22.38 C8.28 16.04, 14.09 10.38, 22.62 2.16 M7.6 25.51 C12.76 20.34, 19.39 10.62, 25.58 4.68 M5.61 27.1 C10.88 19.67, 18.3 12.77, 24.75 4.37 M10.26 27.04 C17.52 20.52, 24.37 11.03, 28.81 7.85 M9.54 28.5 C14.35 23.48, 19.28 16.16, 27 8.66 M12.65 30.03 C16.6 27.29, 21.86 22.17, 29.55 10.84 M11.82 31.31 C18.26 24.94, 24.6 16.98, 30.58 11.51 M14.95 34.76 C21.89 27.67, 29.44 20.63, 29.61 14.55 M17.01 32.11 C21.88 26.28, 26.8 20.52, 31.38 16.42" stroke="#ced4da" stroke-width="0.5" fill="none"></path><path d="M11.96 -0.55 C14.98 -1.53, 19.71 -1.1, 22.51 0.67 C25.3 2.43, 27.4 6.91, 28.72 10.04 C30.04 13.17, 31.18 16.48, 30.41 19.44 C29.65 22.39, 26.94 25.9, 24.11 27.75 C21.28 29.59, 16.63 30.79, 13.42 30.5 C10.22 30.21, 7.13 28.23, 4.88 26 C2.63 23.78, 0.39 20.36, -0.09 17.14 C-0.56 13.92, -0.21 9.51, 2.02 6.68 C4.25 3.84, 11.28 1.26, 13.28 0.13 C15.29 -1.01, 14.09 -0.34, 14.03 -0.15 M13.29 0.74 C16.57 0.38, 21.46 1.1, 24.06 2.73 C26.66 4.37, 28.12 7.2, 28.89 10.56 C29.66 13.92, 29.63 19.99, 28.68 22.9 C27.72 25.81, 26.07 26.77, 23.14 28.02 C20.21 29.27, 14.5 31.04, 11.1 30.42 C7.71 29.8, 4.64 26.85, 2.78 24.31 C0.91 21.77, -0.42 18.33, -0.08 15.17 C0.26 12, 2.46 7.67, 4.82 5.31 C7.18 2.94, 12.51 1.72, 14.09 0.97 C15.67 0.21, 14.44 0.49, 14.31 0.79" stroke="#000000" stroke-width="1" fill="none"></path></g><g stroke-linecap="round" transform="translate(450.0000435965403 453.71427263532314) rotate(0 15.42859758649547 15.428575788225544)"><path d="M6.77 3.24 C6.77 3.24, 6.77 3.24, 6.77 3.24 M6.77 3.24 C6.77 3.24, 6.77 3.24, 6.77 3.24 M4.5 12.74 C9.34 7, 12.69 4.25, 15.14 1.96 M4.03 13.45 C6.94 8.71, 11.07 4.41, 14.96 0.6 M2.27 18.52 C7.97 12.75, 11.64 6.68, 16.09 1.06 M2.78 18.64 C7.57 13.79, 13.58 8.1, 18.41 3.07 M5.75 26.34 C10.99 16.95, 17.03 8.66, 21.31 2.81 M4.09 23.97 C10.06 17.03, 16.73 8.9, 23.37 3.77 M6.1 28.15 C15.86 19.47, 21.03 9.61, 26.84 4.76 M7.69 26.46 C13.58 20.51, 20 11.75, 26.53 5.53 M8.13 31.82 C16.66 23.48, 22.24 15.41, 28.99 7.78 M9.58 30.22 C15.8 23.91, 19.7 17.91, 29.8 7.2 M14.13 30.63 C21.21 25.78, 25.91 17.16, 30.32 13.02 M15.42 29.86 C19.19 26.55, 21.38 23.32, 30.98 13.05 M21.98 30.42 C24.01 29.38, 26.09 23.3, 31.5 17.43 M19.33 30.47 C24.02 25.05, 28.77 21.96, 33.37 16.1" stroke="#ced4da" stroke-width="0.5" fill="none"></path><path d="M15.74 0.29 C18.84 0.19, 22.73 1.33, 25.37 3.65 C28.02 5.97, 31.21 10.76, 31.61 14.22 C32.01 17.67, 29.88 21.74, 27.77 24.37 C25.66 27, 22.12 29.07, 18.94 30.01 C15.76 30.96, 11.61 31.39, 8.69 30.04 C5.76 28.68, 2.62 25.13, 1.38 21.87 C0.14 18.62, 0.31 13.64, 1.24 10.5 C2.16 7.36, 4.16 4.82, 6.93 3.06 C9.7 1.29, 15.92 0.33, 17.85 -0.12 C19.78 -0.56, 18.62 0.11, 18.52 0.38 M10.56 1.04 C13.59 -0.41, 17.65 -1.46, 20.56 -0.52 C23.48 0.41, 26.17 3.42, 28.05 6.64 C29.94 9.86, 32.5 15.48, 31.87 18.79 C31.24 22.1, 26.97 24.49, 24.27 26.47 C21.58 28.45, 18.84 30.54, 15.71 30.68 C12.58 30.82, 7.95 29.27, 5.51 27.3 C3.07 25.33, 1.58 22.04, 1.08 18.86 C0.58 15.69, 0.91 11.12, 2.52 8.23 C4.14 5.33, 9.47 2.76, 10.79 1.49 C12.1 0.22, 10.28 0.45, 10.42 0.62" stroke="#000000" stroke-width="1" fill="none"></path></g><g stroke-linecap="round" transform="translate(511.14288330078034 349.4285583496094) rotate(0 15.42859758649547 15.428575788225544)"><path d="M2.46 7.44 C2.46 7.44, 2.46 7.44, 2.46 7.44 M2.46 7.44 C2.46 7.44, 2.46 7.44, 2.46 7.44 M-0.32 18.65 C1.53 14, 7.11 10.12, 14.43 2.02 M0.57 16.43 C2.16 14.26, 4.31 11.13, 12.73 2.2 M1.41 19.64 C6.1 12.98, 10.5 7.45, 15.64 3.77 M1.53 19.32 C8.01 14.05, 13.63 7.84, 17.65 3.34 M5.29 24.92 C8.36 18.57, 12.5 11.4, 21.27 4.61 M2.92 23.66 C9.47 16.96, 14.85 12.19, 22.23 4.23 M6.18 29.24 C10.52 22.05, 13.7 19.5, 25.11 6.63 M4.49 28.43 C12.59 20.73, 17.87 13.54, 25.88 6.53 M10.81 29.72 C17.03 21, 23.52 15.25, 28.43 7.2 M9.2 30.58 C14.4 22.95, 19.91 18.09, 27.85 8.29 M14.34 31.33 C21.73 23.86, 25.35 17.04, 32.55 8.73 M13.57 31.3 C18.2 25.45, 22.86 21.8, 32.59 9.42 M17.44 33.82 C23.51 28.48, 24.51 21.68, 34.64 15.32 M17.49 32.55 C20.57 28.9, 25.99 23.88, 33.31 15.02" stroke="#ced4da" stroke-width="0.5" fill="none"></path><path d="M10.52 -0.05 C13.24 -0.98, 16.91 0.53, 20 1.79 C23.08 3.05, 27.25 4.85, 29.03 7.51 C30.82 10.16, 31.41 14.46, 30.73 17.72 C30.04 20.98, 27.4 24.9, 24.93 27.07 C22.46 29.25, 19.17 30.64, 15.9 30.77 C12.62 30.91, 8.07 29.95, 5.29 27.88 C2.51 25.81, -0.28 21.75, -0.77 18.36 C-1.25 14.97, 0.27 10.62, 2.38 7.54 C4.48 4.45, 9.96 1.12, 11.86 -0.15 C13.77 -1.41, 13.73 -0.28, 13.8 -0.07 M10.64 0.87 C13.42 -0.5, 16.88 -0.91, 19.8 0.5 C22.73 1.92, 26.24 6.55, 28.18 9.35 C30.12 12.16, 32.1 14.29, 31.47 17.33 C30.83 20.37, 27.14 25.36, 24.35 27.58 C21.57 29.8, 17.98 30.63, 14.75 30.65 C11.53 30.67, 7.37 29.8, 5.02 27.72 C2.67 25.65, 1.06 21.46, 0.66 18.2 C0.25 14.94, 0.87 11.01, 2.61 8.17 C4.35 5.33, 9.86 2.16, 11.09 1.17 C12.33 0.18, 10.02 1.83, 10.03 2.24" stroke="#000000" stroke-width="1" fill="none"></path></g><g stroke-linecap="round" transform="translate(563.7143816266735 351.7143249511719) rotate(0 15.42859758649547 15.428575788225544)"><path d="M6.26 2.79 C6.26 2.79, 6.26 2.79, 6.26 2.79 M6.26 2.79 C6.26 2.79, 6.26 2.79, 6.26 2.79 M4.24 11.83 C7.02 9.72, 10.46 6.4, 14.1 -1.35 M2.36 12.82 C6.79 8.07, 10.42 4.7, 14.25 0.26 M2.52 18 C5.65 12.72, 9.92 7.31, 19.09 2.66 M2.2 19.02 C7.35 14.55, 11.53 10.18, 18.67 1.03 M5.38 22.15 C8.4 17, 10.63 13.74, 23.25 3.34 M4.12 23 C10.32 15.51, 18.44 8.52, 22.87 2.15 M7.93 27.46 C12.29 18.58, 21.29 10.15, 26.33 5.46 M7.11 26.9 C11.47 20.51, 16.34 16.22, 26.22 5.28 M9.65 30.65 C14.6 23.36, 22.5 14.27, 28.7 6.44 M10.51 28.88 C14.56 22.76, 21.38 15.91, 29.79 7.12 M14.48 32.54 C18.71 24.55, 23.59 19.8, 29.31 9.43 M14.44 30.68 C16.67 27.39, 21.12 23.36, 30 10.62 M20.08 32.71 C22.28 26.33, 23.03 25.99, 32.06 15.09 M18.81 30.03 C24.41 26.1, 28.65 20.64, 31.77 15.46" stroke="#ced4da" stroke-width="0.5" fill="none"></path><path d="M15.9 -0.77 C19.35 -0.69, 24.77 2.23, 27.2 4.74 C29.62 7.25, 30.43 11.06, 30.48 14.27 C30.53 17.49, 29.41 21.24, 27.51 24.02 C25.61 26.8, 22.22 30.08, 19.1 30.95 C15.97 31.83, 11.59 30.94, 8.77 29.27 C5.94 27.59, 3.45 23.85, 2.14 20.91 C0.83 17.97, 0.19 14.69, 0.93 11.61 C1.67 8.53, 3.82 4.4, 6.57 2.44 C9.32 0.47, 15.45 0.17, 17.43 -0.15 C19.42 -0.47, 18.59 0.3, 18.5 0.51 M12.89 -1.14 C15.75 -2.01, 19.53 -0.81, 22.58 1.24 C25.62 3.28, 30.14 7.98, 31.15 11.13 C32.16 14.28, 29.98 17.22, 28.64 20.14 C27.31 23.06, 25.82 26.91, 23.13 28.63 C20.44 30.36, 15.63 30.97, 12.51 30.5 C9.38 30.03, 6.37 28.28, 4.38 25.81 C2.39 23.34, 0.56 18.98, 0.58 15.67 C0.61 12.36, 2.42 8.64, 4.52 5.95 C6.62 3.26, 11.61 0.44, 13.19 -0.46 C14.78 -1.36, 13.82 0.32, 14.03 0.56" stroke="#000000" stroke-width="1" fill="none"></path></g><g stroke-linecap="round" transform="translate(176.28579275948687 459.9999346051891) rotate(0 15.42859758649547 15.428575788225544)"><path d="M1.08 8.89 C1.08 8.89, 1.08 8.89, 1.08 8.89 M1.08 8.89 C1.08 8.89, 1.08 8.89, 1.08 8.89 M-0.11 16 C4.57 12.29, 8.25 8.24, 8.79 4.99 M0.7 15.73 C3.07 12.47, 6.6 8.9, 10.11 4.63 M0.61 19.03 C4.42 14.29, 8.1 12.42, 20.35 -0.19 M1.63 21.06 C5.56 17.04, 9.57 12.76, 18.71 -0.38 M2.99 24.54 C9.21 14.72, 17.36 8.71, 22.83 3.84 M3.84 23.5 C9.51 18.71, 15.64 11.99, 21.64 3.21 M7.29 25.75 C11.52 21.82, 16.22 16.55, 26.75 3.46 M6.72 27.37 C13.27 18.97, 21.87 11.27, 26.57 4.57 M9.45 29.53 C14.52 25.26, 17.81 19.12, 28.88 6.58 M7.68 30.55 C14.68 23.9, 20.94 16.05, 29.56 6.88 M15.22 31.12 C17.37 25.92, 22.76 19.77, 28.79 9.98 M13.36 30.74 C19.93 24.9, 25.76 17.15, 29.97 11.08 M20.02 32.37 C22.29 24.05, 30.6 19.78, 30.61 17.91 M17.34 32.5 C21.88 28.54, 24.88 24.63, 30.98 16.3" stroke="#ced4da" stroke-width="0.5" fill="none"></path><path d="M7.25 2.67 C9.91 1.1, 15.3 -0.45, 18.7 -0.01 C22.1 0.43, 25.67 2.72, 27.64 5.32 C29.62 7.92, 30.55 12.22, 30.54 15.59 C30.53 18.97, 29.74 22.95, 27.58 25.59 C25.41 28.22, 21.1 30.85, 17.57 31.41 C14.03 31.97, 9.13 30.82, 6.37 28.96 C3.61 27.09, 1.96 23.52, 1.03 20.24 C0.1 16.96, -0.62 12.52, 0.76 9.26 C2.15 6, 7.61 2.2, 9.36 0.67 C11.12 -0.86, 11.24 -0.16, 11.29 0.1 M17.38 -0.24 C20.34 0.42, 24.4 4.71, 26.8 7.22 C29.2 9.73, 31.88 11.7, 31.78 14.81 C31.68 17.91, 28.63 23.23, 26.21 25.85 C23.8 28.47, 20.49 29.95, 17.29 30.52 C14.1 31.09, 9.72 30.9, 7.04 29.25 C4.37 27.61, 2.15 23.81, 1.22 20.68 C0.29 17.54, 0.2 13.51, 1.45 10.43 C2.71 7.34, 5.98 3.64, 8.75 2.16 C11.52 0.68, 16.4 1.56, 18.05 1.54 C19.71 1.53, 18.77 2.22, 18.7 2.06" stroke="#000000" stroke-width="1" fill="none"></path></g><g stroke-linecap="round" transform="translate(177.1429007393972 426.57141549246626) rotate(0 15.42859758649547 15.428575788225544)"><path d="M6.74 1.88 C6.74 1.88, 6.74 1.88, 6.74 1.88 M6.74 1.88 C6.74 1.88, 6.74 1.88, 6.74 1.88 M3.3 13.5 C6.15 10.71, 8.65 4.65, 12.66 1.77 M3.02 12.19 C7.06 8.33, 10.78 3.9, 12.28 0.98 M1.69 16.74 C5.8 11.6, 12.78 9.66, 17.93 -1.34 M3.72 18.13 C8.01 13.75, 12.04 8.41, 17.75 1.2 M4.21 21.79 C9.62 14.86, 18.84 8.04, 23.11 3.11 M3.17 23.26 C9.14 18.87, 13.18 13.05, 22.48 2.49 M5.06 26.49 C13.32 18.7, 20.24 11.88, 24.54 6.14 M6.68 25.65 C10.77 22.14, 15.56 17.05, 25.65 4.19 M8.48 29.98 C16.7 20.4, 23.04 12.46, 28.71 7.07 M9.5 28.16 C15.32 22.34, 19.96 17.94, 29.01 6.24 M14.05 29.47 C19.01 24.4, 23.05 16.04, 28.93 11.59 M13.66 30.5 C18.63 25.73, 21.69 19.68, 30.03 11.81 M19.27 29.59 C20.71 28.22, 26.22 21.22, 33.02 14.32 M19.39 31.37 C22.59 27.23, 25.84 22.05, 31.41 15.61" stroke="#be4bdb" stroke-width="0.5" fill="none"></path><path d="M18.08 0.29 C21.32 0.63, 24.32 2.67, 26.36 5 C28.4 7.33, 30.12 10.89, 30.31 14.27 C30.51 17.65, 29.42 22.61, 27.52 25.29 C25.61 27.96, 21.91 29.85, 18.86 30.33 C15.8 30.82, 12.06 29.65, 9.18 28.22 C6.31 26.78, 3.06 24.67, 1.63 21.74 C0.2 18.81, -0.21 13.91, 0.6 10.64 C1.41 7.38, 3.7 3.94, 6.5 2.16 C9.29 0.38, 15.54 0.34, 17.39 -0.03 C19.23 -0.39, 17.59 -0.41, 17.57 -0.05 M14.89 -0.85 C18.22 -0.65, 24.19 2.42, 26.6 4.59 C29.02 6.77, 29 9.14, 29.37 12.21 C29.73 15.28, 30.26 20.09, 28.78 23.03 C27.29 25.96, 23.42 28.6, 20.44 29.83 C17.46 31.06, 13.86 31.48, 10.89 30.4 C7.92 29.33, 4.24 26.24, 2.62 23.37 C0.99 20.49, 0.57 16.57, 1.13 13.15 C1.68 9.74, 3.37 5.06, 5.97 2.88 C8.56 0.69, 14.86 0.58, 16.68 0.02 C18.5 -0.54, 17.31 -0.86, 16.9 -0.49" stroke="#000000" stroke-width="1" fill="none"></path></g><g stroke-linecap="round" transform="translate(103.71429443359284 353.14289637974343) rotate(0 15.5 17.5)"><path d="M0.95 10.1 C0.95 10.1, 0.95 10.1, 0.95 10.1 M0.95 10.1 C0.95 10.1, 0.95 10.1, 0.95 10.1 M1.47 17.3 C6.59 11.67, 7.98 6.77, 12.16 5.36 M-0.01 17.11 C3.62 13.5, 6.59 9.7, 11.27 3.44 M0.13 20.18 C4.9 17.3, 12.85 9.74, 18.43 -0.56 M1.52 22.49 C5.59 18.01, 8.72 12.04, 20.98 1.08 M1.9 24.44 C9.22 19.45, 16.64 12.07, 23.27 1.43 M3.37 26.51 C8.12 21.48, 11.46 16.07, 22.66 3.3 M6.33 29.02 C12.59 21.98, 19.84 12.49, 27.46 3.79 M5.5 28.72 C12.43 22.79, 17.81 15.56, 25.51 6.07 M9.56 32.19 C14.17 24.55, 20.43 17.37, 29.54 7.17 M7.75 33 C15.79 23.38, 25.23 13.2, 28.71 8.29 M11.62 33.68 C18.74 25.33, 22.64 17.91, 31.63 11.37 M12.64 34.34 C19.47 25.54, 25.02 17.95, 31.85 12.14 M14.95 33.61 C23.57 28.76, 26.59 23.36, 30.53 16.76 M16.73 35.48 C21.52 29.59, 25.21 24.08, 31.81 17.18 M20.91 36.95 C22.06 33.53, 28.09 28.76, 34.87 20.22 M18.79 38.1 C22.83 34.2, 25.76 29.92, 34.71 20.04" stroke="#be4bdb" stroke-width="0.5" fill="none"></path><path d="M8.71 1.54 C11.6 -0.48, 16.04 -0.92, 19.19 -0.05 C22.34 0.82, 25.55 3.7, 27.62 6.78 C29.68 9.86, 31.74 14.51, 31.58 18.42 C31.42 22.33, 29.21 27.41, 26.67 30.22 C24.12 33.03, 19.57 34.96, 16.33 35.26 C13.09 35.57, 9.9 34.27, 7.23 32.07 C4.57 29.86, 1.39 25.69, 0.34 22.04 C-0.72 18.39, -0.66 13.76, 0.91 10.15 C2.47 6.55, 8.08 2.02, 9.74 0.43 C11.4 -1.16, 10.68 0.21, 10.88 0.61 M15.18 1.22 C18.72 1, 24.29 0.91, 26.8 3.22 C29.31 5.53, 29.96 11.18, 30.24 15.08 C30.52 18.97, 30.15 23.25, 28.47 26.56 C26.8 29.88, 23.23 33.65, 20.18 34.94 C17.14 36.23, 13.21 35.7, 10.2 34.31 C7.19 32.92, 3.67 29.94, 2.11 26.6 C0.54 23.26, 0.28 17.89, 0.81 14.27 C1.33 10.65, 2.72 7.04, 5.26 4.9 C7.8 2.76, 14.4 2.38, 16.06 1.41 C17.72 0.44, 15.11 -1.16, 15.22 -0.92" stroke="#000000" stroke-width="1" fill="none"></path></g><g stroke-linecap="round" transform="translate(62.0000784737731 352.2857012067525) rotate(0 15.42859758649547 15.428575788225544)"><path d="M0.9 8.73 C0.9 8.73, 0.9 8.73, 0.9 8.73 M0.9 8.73 C0.9 8.73, 0.9 8.73, 0.9 8.73 M1.39 16.51 C3.23 10.87, 5.77 9.75, 12.72 2.38 M1.21 15.15 C3.88 11.92, 6.38 7.85, 10.92 2.81 M-0.28 18.63 C6.81 16.82, 9.24 9.04, 15.96 0.83 M2.04 20.64 C7.27 13.81, 11.02 8.98, 17.6 2.93 M2.97 22.65 C10.19 18.24, 15.03 12.65, 20.31 1.61 M5.03 23.61 C10.98 15.8, 16.54 9.66, 22.18 3.39 M6.53 26.85 C14.14 19.43, 19.27 12.52, 23.06 5.49 M6.23 27.62 C14.09 19.13, 20.64 10.22, 25.34 5.69 M8.68 29.88 C15.46 21.5, 22.68 14.2, 27.49 9.44 M9.5 29.3 C14.14 25.12, 18.21 19.01, 28.62 7.81 M12.63 32.09 C18.01 22.25, 24.31 17.08, 28.61 13.53 M13.3 32.13 C17.33 24.97, 22.57 20.53, 29.38 13.01 M16.52 33.4 C22.94 25.4, 28.85 19.28, 30.19 17.19 M18.3 32.13 C20.35 28.21, 22.74 25.56, 30.58 16.87" stroke="#ced4da" stroke-width="0.5" fill="none"></path><path d="M8.82 1.46 C11.39 -0.08, 15.97 -0.7, 19.16 0.29 C22.35 1.28, 26.03 4.63, 27.96 7.4 C29.88 10.18, 30.87 13.9, 30.69 16.92 C30.51 19.94, 29.17 23.19, 26.87 25.55 C24.57 27.9, 20.32 30.72, 16.89 31.06 C13.47 31.4, 9.12 29.64, 6.3 27.6 C3.48 25.55, 0.83 22, -0.03 18.81 C-0.9 15.62, -0.38 11.52, 1.13 8.46 C2.64 5.4, 7.53 1.59, 9.03 0.45 C10.53 -0.7, 9.92 1.22, 10.14 1.57 M9.85 2.51 C12.47 0.99, 14.85 -0.76, 17.86 -0.15 C20.88 0.45, 25.79 3.41, 27.91 6.16 C30.04 8.91, 30.72 12.95, 30.62 16.36 C30.53 19.77, 29.51 24.18, 27.35 26.63 C25.18 29.08, 20.93 30.71, 17.65 31.06 C14.38 31.4, 10.48 30.71, 7.7 28.71 C4.93 26.7, 1.87 22.27, 1.01 19.02 C0.14 15.77, 1 12.24, 2.5 9.2 C4.01 6.16, 9.21 1.88, 10.04 0.78 C10.87 -0.32, 7.43 2.02, 7.49 2.59" stroke="#000000" stroke-width="1" fill="none"></path></g><g stroke-linecap="round" transform="translate(616.285792759486 310.85712977818093) rotate(0 63.42856270926336 60.000021798270154)"><path d="M68.5 -0.07 C77.9 -0.1, 89.15 5.09, 97.48 10.15 C105.82 15.21, 113.51 22.47, 118.52 30.29 C123.53 38.11, 127.15 47.72, 127.54 57.07 C127.94 66.42, 125.32 77.91, 120.9 86.38 C116.49 94.86, 109.12 102.5, 101.08 107.93 C93.03 113.35, 82.39 117.5, 72.62 118.94 C62.85 120.38, 51.78 119.61, 42.45 116.55 C33.11 113.49, 23.35 107.24, 16.61 100.59 C9.87 93.95, 4.56 85.51, 2.03 76.68 C-0.51 67.85, -0.55 56.84, 1.39 47.61 C3.34 38.38, 7.52 28.32, 13.7 21.29 C19.88 14.26, 28.08 8.93, 38.45 5.42 C48.83 1.91, 68.91 0.51, 75.96 0.22 C83.01 -0.07, 81.08 2.56, 80.76 3.66 M61.56 0.33 C70.86 -0.9, 82.75 2.47, 91.59 6.3 C100.43 10.14, 108.65 15.97, 114.59 23.34 C120.54 30.7, 125.51 41.33, 127.23 50.49 C128.96 59.65, 128.5 69.36, 124.97 78.29 C121.43 87.22, 113.16 97.31, 106.01 104.08 C98.86 110.85, 91.28 116.29, 82.06 118.91 C72.85 121.52, 60.57 121.63, 50.72 119.76 C40.88 117.89, 30.78 113.68, 22.99 107.7 C15.2 101.72, 7.93 92.61, 3.98 83.86 C0.03 75.12, -1.44 64.82, -0.7 55.23 C0.05 45.65, 2.94 34.35, 8.45 26.36 C13.96 18.36, 23.4 11.83, 32.38 7.27 C41.35 2.71, 57.36 0.15, 62.31 -1.01 C67.26 -2.16, 62.07 -0.72, 62.08 0.33" stroke="#000000" stroke-width="1" fill="none"></path></g><g stroke-linecap="round" transform="translate(652.8571864536816 272.2857012067516) rotate(0 15.42859758649547 15.428575788225544)"><path d="M2.94 5.21 C2.94 5.21, 2.94 5.21, 2.94 5.21 M2.94 5.21 C2.94 5.21, 2.94 5.21, 2.94 5.21 M-1.6 14.98 C4.61 11.51, 7.79 4.31, 13.73 -1.28 M0.19 14.49 C4.04 8.98, 9.05 3.6, 11.62 -0.17 M3.18 18.01 C3.39 14.22, 6.42 12.19, 17.77 1.51 M1.54 17.82 C7.79 13.44, 12.48 6.25, 17.62 -0.13 M3.04 25.06 C7.72 16.68, 10.85 13.26, 20.21 1.6 M1.85 24.43 C9.88 15.15, 18.3 6.68, 20.87 2.02 M5.64 26.19 C12.7 18.07, 17.46 14.18, 24.88 3.01 M5.46 27.3 C10.06 20.86, 16.48 14.29, 24.74 4.32 M8.43 28.56 C14.87 21.51, 22.05 14.76, 26.83 6.16 M9.11 28.85 C15.66 20.81, 23.5 13.46, 27.72 6.89 M10.97 28.94 C18.09 24.38, 23.36 19.78, 28.86 11.98 M12.15 30.04 C18.98 24.3, 24.26 18.79, 30.53 9.77 M18.03 30.83 C20.27 25.78, 24.56 20.84, 34.02 14.86 M18.4 29.22 C23.06 24.57, 27.17 19.15, 32.46 14.62" stroke="#ced4da" stroke-width="0.5" fill="none"></path><path d="M12.62 -0.06 C15.76 -0.69, 21.03 0.22, 23.9 2.07 C26.78 3.92, 29.04 7.84, 29.87 11.04 C30.7 14.24, 29.99 18.29, 28.89 21.26 C27.78 24.22, 26 27.34, 23.23 28.82 C20.46 30.29, 15.6 30.77, 12.26 30.1 C8.91 29.43, 5.22 27.38, 3.14 24.78 C1.06 22.18, -0.2 17.81, -0.21 14.52 C-0.22 11.23, 0.3 7.45, 3.09 5.03 C5.89 2.62, 13.86 0.88, 16.56 0.02 C19.26 -0.83, 19.44 -0.28, 19.29 -0.12 M20.85 1.25 C23.64 2.47, 27.42 5.15, 29 8.23 C30.58 11.3, 30.98 16.35, 30.34 19.7 C29.71 23.05, 27.78 26.33, 25.21 28.34 C22.64 30.34, 18.21 31.92, 14.9 31.72 C11.6 31.51, 7.95 29.32, 5.37 27.11 C2.79 24.91, -0.1 21.6, -0.57 18.49 C-1.05 15.37, 0.73 11.61, 2.52 8.43 C4.3 5.24, 6.84 0.41, 10.12 -0.61 C13.41 -1.63, 20.12 1.94, 22.2 2.31 C24.28 2.67, 22.65 1.57, 22.59 1.59" stroke="#000000" stroke-width="1" fill="none"></path></g><g stroke-linecap="round" transform="translate(655.7143293108247 19.428558349609375) rotate(0 15.42859758649547 15.428575788225544)"><path d="M3.51 5.7 C3.51 5.7, 3.51 5.7, 3.51 5.7 M3.51 5.7 C3.51 5.7, 3.51 5.7, 3.51 5.7 M1.95 15.03 C2.38 13.91, 3.88 10.87, 13.16 1.67 M-0.3 15.58 C3.81 10.26, 7.77 5.48, 12.39 1.22 M0.86 18.18 C8.65 13.41, 14.78 6.85, 19.32 2.07 M2.5 20.28 C6.11 14.74, 10.19 8.85, 17.7 1.83 M1.28 23.49 C9.41 15.97, 15.07 12.29, 23.49 3.48 M3.14 25.27 C7.35 19.26, 11.08 15.53, 23.1 1.89 M4.68 26.61 C14.63 18.43, 19.04 11.12, 28.44 4.71 M6.96 26.82 C13.6 18.43, 20.41 11.46, 26.6 3.11 M9.11 30.56 C14.18 21.45, 19.88 17.83, 27.39 7.88 M10.24 28.93 C17.26 21.42, 22.39 14.2, 29.51 5.93 M12.2 32.39 C17.35 25.28, 22.74 22.52, 32.53 9.01 M12.97 31.87 C18.76 26.03, 21.93 19.56, 31.74 10.92 M19.06 30.02 C20.62 28.05, 26.06 23.88, 31.45 16.91 M19.42 29.73 C22.07 26.7, 25.92 23.11, 30.1 17.31" stroke="#ced4da" stroke-width="0.5" fill="none"></path><path d="M12.97 0.07 C16.21 -0.88, 21.23 -0.52, 24.13 1.25 C27.04 3.02, 29.48 7.45, 30.41 10.69 C31.35 13.93, 31.1 17.7, 29.76 20.68 C28.42 23.66, 25.33 26.98, 22.38 28.59 C19.42 30.2, 15.3 31.04, 12.01 30.35 C8.73 29.67, 4.74 26.94, 2.68 24.47 C0.62 22, -0.53 18.74, -0.34 15.55 C-0.15 12.36, 1.52 8, 3.82 5.34 C6.13 2.69, 11.61 0.33, 13.5 -0.37 C15.4 -1.07, 14.93 0.93, 15.2 1.12 M12.13 0.2 C15.3 -0.51, 20.53 0.72, 23.57 2.36 C26.61 4, 29.13 6.97, 30.36 10.04 C31.59 13.11, 32.02 17.8, 30.95 20.77 C29.87 23.75, 26.68 26.23, 23.91 27.88 C21.14 29.54, 17.46 31.22, 14.35 30.71 C11.25 30.21, 7.9 27.22, 5.29 24.87 C2.69 22.52, -1.13 19.56, -1.28 16.6 C-1.42 13.63, 2.14 9.64, 4.42 7.09 C6.7 4.54, 11.12 2.17, 12.41 1.3 C13.7 0.44, 12.28 1.74, 12.15 1.9" stroke="#000000" stroke-width="1" fill="none"></path></g><g stroke-linecap="round" transform="translate(659.1429356166291 425.4285757882253) rotate(0 15.42859758649547 15.428575788225544)"><path d="M4.38 3.8 C4.38 3.8, 4.38 3.8, 4.38 3.8 M4.38 3.8 C4.38 3.8, 4.38 3.8, 4.38 3.8 M0.12 13.68 C5.44 8.38, 9.15 5.74, 12.74 1.39 M0.58 13.72 C3.31 9.92, 6.48 6.06, 12.37 1.75 M1.46 18.13 C6.83 14.47, 10.53 11.06, 16.55 2.59 M3.46 17.07 C5.76 13.55, 7.71 10.97, 16.31 3.12 M2.84 22.76 C8.44 15.49, 17.88 9.35, 21.98 2.2 M4.62 22.91 C9.31 15.59, 16.3 8.52, 20.38 4.36 M5.15 28.69 C9.59 20.84, 14.94 17.31, 26.32 5.07 M5.35 27.7 C11.12 20.3, 18.3 12.04, 24.72 4.28 M10.9 27.76 C13.09 22.25, 20.78 15.4, 28.47 8.4 M9.27 29.96 C14.35 22.6, 19.71 16.88, 26.53 7.09 M13.77 31.01 C14.89 28.29, 20.35 24.16, 28.49 9.74 M13.25 31.74 C16.77 25.64, 19.67 22.56, 30.4 10.1 M18.84 27.83 C25.69 24.86, 29.91 18.83, 32.94 12.27 M18.51 29.42 C22.59 26.24, 26.02 20.53, 33.41 13.67" stroke="#ced4da" stroke-width="0.5" fill="none"></path><path d="M13.3 0.85 C16.13 0.33, 19.9 1.16, 22.74 2.8 C25.59 4.45, 29.28 7.73, 30.38 10.73 C31.49 13.74, 30.73 17.85, 29.36 20.84 C28 23.84, 25.11 27.2, 22.19 28.69 C19.28 30.17, 15.15 30.46, 11.87 29.76 C8.6 29.06, 4.46 26.97, 2.55 24.47 C0.65 21.97, 0.19 18.16, 0.45 14.76 C0.71 11.36, 1.8 6.64, 4.13 4.09 C6.45 1.54, 12.24 -0.03, 14.38 -0.56 C16.51 -1.08, 17 0.67, 16.93 0.95 M15.42 0.8 C18.67 0.76, 23.34 2.11, 25.93 4.26 C28.51 6.42, 30.38 10.5, 30.93 13.73 C31.47 16.96, 31.04 20.73, 29.21 23.63 C27.37 26.54, 23.11 29.87, 19.92 31.14 C16.73 32.42, 13.19 32.86, 10.08 31.29 C6.96 29.73, 2.73 24.7, 1.22 21.77 C-0.3 18.84, 0.06 16.75, 0.99 13.73 C1.93 10.7, 4.25 5.95, 6.84 3.62 C9.43 1.29, 14.86 0.48, 16.52 -0.25 C18.18 -0.97, 16.91 -0.89, 16.81 -0.75" stroke="#000000" stroke-width="1" fill="none"></path></g><g stroke-linecap="round" transform="translate(664.8572213309153 461.42859322684126) rotate(0 15.42859758649547 15.428575788225544)"><path d="M1.87 8.25 C1.87 8.25, 1.87 8.25, 1.87 8.25 M1.87 8.25 C1.87 8.25, 1.87 8.25, 1.87 8.25 M0 17.24 C2.33 13.34, 7.34 8.78, 11.7 3.1 M0.04 15.35 C2.51 12.38, 4.92 10.61, 12.05 3.01 M2.82 20.55 C6.2 17.38, 9.83 13.86, 16.64 1.07 M1.71 20.4 C6.92 13, 13.15 7.52, 17.2 3.64 M4.23 22.8 C9.77 19.58, 16.39 12.63, 21.46 3.34 M4.38 23.45 C8.86 18.68, 13.62 13.28, 23.63 1.36 M7.63 27.17 C13.09 18.89, 22.85 12.05, 26.99 4.96 M6.65 27.03 C11.44 22.22, 15.41 16.47, 26.2 4.24 M9.16 27.87 C15.51 23.45, 20.49 16.41, 29.3 7.7 M11.37 28.77 C14.92 23.25, 20.12 17.3, 27.99 6.87 M14.22 29.41 C21.07 24.97, 26.51 16.6, 29.07 11.22 M14.95 31.08 C19.75 22.66, 27.56 16.32, 29.43 13.28 M15.87 34.08 C21.9 29.63, 24.88 25.28, 30.03 16.78 M17.46 32.52 C22.39 27.88, 24.81 24.02, 31.43 17.43" stroke="#ced4da" stroke-width="0.5" fill="none"></path><path d="M20.76 -0.27 C23.89 0.54, 27.16 4.46, 28.81 7.35 C30.46 10.25, 31.24 13.92, 30.67 17.09 C30.1 20.27, 27.88 24.17, 25.38 26.43 C22.89 28.68, 19.05 30.53, 15.7 30.63 C12.36 30.73, 7.94 28.95, 5.33 27.05 C2.72 25.15, 0.63 22.34, 0.03 19.23 C-0.57 16.12, 0.31 11.48, 1.74 8.4 C3.16 5.33, 5.39 1.84, 8.58 0.78 C11.78 -0.28, 18.46 1.95, 20.92 2.04 C23.38 2.14, 23.43 1.24, 23.36 1.34 M15.32 0.53 C18.57 0.21, 22.55 1.37, 25.22 3.33 C27.88 5.3, 30.58 9.28, 31.32 12.33 C32.05 15.38, 31.05 18.77, 29.62 21.65 C28.19 24.53, 25.6 28.32, 22.73 29.61 C19.87 30.91, 16 30.24, 12.42 29.42 C8.84 28.59, 3.13 27.08, 1.26 24.66 C-0.61 22.24, 0.57 18.14, 1.18 14.9 C1.79 11.66, 2.73 7.47, 4.91 5.2 C7.09 2.94, 12.84 2.05, 14.27 1.31 C15.7 0.57, 13.58 0.69, 13.48 0.76" stroke="#000000" stroke-width="1" fill="none"></path></g><g stroke-linecap="round" transform="translate(762.0002528599325 20.2856663295197) rotate(0 63.5 60.000021798270154)"><path d="M59.86 0.44 C69.22 -0.95, 81.87 1.87, 90.87 5.69 C99.87 9.52, 108.06 16.03, 113.89 23.39 C119.71 30.75, 124.19 40.72, 125.81 49.85 C127.42 58.99, 126.7 69.34, 123.55 78.18 C120.41 87.01, 113.9 96.29, 106.93 102.86 C99.95 109.44, 91.02 115.11, 81.7 117.61 C72.37 120.12, 60.75 119.84, 50.97 117.9 C41.19 115.95, 30.52 111.58, 23.02 105.97 C15.51 100.36, 9.87 92.75, 5.92 84.23 C1.98 75.71, -1.29 64.25, -0.65 54.86 C0 45.47, 4.43 35.7, 9.79 27.89 C15.15 20.09, 21.61 12.57, 31.53 8.01 C41.45 3.45, 61.79 1.43, 69.33 0.54 C76.88 -0.35, 76.88 1.68, 76.8 2.67 M71.99 1.94 C81.35 1.83, 91.3 4.46, 99.44 9.78 C107.59 15.1, 116.04 25.37, 120.84 33.88 C125.64 42.39, 128.33 51.77, 128.25 60.85 C128.16 69.92, 125.01 80.33, 120.33 88.32 C115.66 96.3, 108.44 103.68, 100.18 108.75 C91.92 113.83, 80.74 117.8, 70.77 118.74 C60.81 119.68, 49.85 117.56, 40.38 114.4 C30.9 111.25, 20.51 106.36, 13.94 99.79 C7.36 93.21, 3.09 83.93, 0.93 74.95 C-1.23 65.98, -1.45 54.98, 0.99 45.95 C3.44 36.93, 8.93 27.83, 15.6 20.81 C22.28 13.79, 31.55 7.19, 41.04 3.83 C50.53 0.46, 67.19 1.13, 72.54 0.62 C77.89 0.1, 73.25 -0.37, 73.14 0.72" stroke="#000000" stroke-width="1" fill="none"></path></g><g stroke-linecap="round"><g transform="translate(908.2859584263397 86.57143729073687) rotate(0 42.663747392520236 0.18455508952024502)"><path d="M0.73 -0.1 C7.62 0.29, 27.22 1.91, 41 2.01 C54.78 2.1, 76.09 0.81, 83.4 0.46 M-0.35 -1.2 C6.41 -1.11, 25.64 0.41, 39.98 0.34 C54.32 0.27, 78.13 -1.75, 85.68 -1.64" stroke="#000000" stroke-width="1" fill="none"></path></g></g><g transform="translate(1012.2860281808034 70.71426827566938) rotate(0 90.5 14)"><text x="0" y="21" font-family="Virgil, Segoe UI Emoji" font-size="20px" fill="#000000" text-anchor="start" style="white-space: pre;" direction="ltr"></text></g><g stroke-linecap="round" transform="translate(800.8573259626128 205.42857578822532) rotate(0 15.42859758649547 15.428575788225544)"><path d="M1.42 9.18 C1.42 9.18, 1.42 9.18, 1.42 9.18 M1.42 9.18 C1.42 9.18, 1.42 9.18, 1.42 9.18 M1.21 16.25 C5.05 11.19, 7.39 6.88, 10.55 3.81 M0.64 15.92 C3.76 13.08, 4.62 10.73, 10.32 4.57 M2.14 22.91 C6.11 13.44, 14.03 10.33, 19.82 0.26 M0.52 22.67 C6.89 16.21, 12.57 8.2, 18.56 1.11 M4.34 26.59 C6.16 21.2, 11.31 15.68, 23.68 4.06 M3.96 24.99 C7.95 19.73, 12.24 14.85, 22.87 3.5 M7.98 29.32 C12.2 22.5, 15.63 17, 26.06 6.49 M6.14 27.72 C10.3 22.77, 15.09 17.41, 26.92 4.72 M7.59 31.74 C14.96 24.58, 18.56 19.2, 30.24 9.14 M9.71 29.79 C14.34 23.08, 21.28 16.89, 30.2 7.28 M15.35 29.85 C16.66 25.7, 23.3 22.38, 31.9 13.84 M14.56 31.76 C18.97 26.01, 24.28 18.75, 30.63 11.16 M19.67 31.64 C22.55 25.67, 28.05 20.91, 30.86 16.39 M18.09 32.11 C22.8 27.69, 26.29 23.35, 31.05 16.32" stroke="#ced4da" stroke-width="0.5" fill="none"></path><path d="M8.12 1.49 C10.65 -0.26, 14.97 -0.72, 18.14 -0.02 C21.31 0.68, 25.16 3.16, 27.16 5.71 C29.15 8.27, 30.22 11.92, 30.12 15.33 C30.02 18.74, 28.64 23.61, 26.55 26.18 C24.47 28.76, 20.96 30.45, 17.59 30.78 C14.22 31.1, 9.25 29.74, 6.35 28.11 C3.45 26.48, 0.95 24.22, 0.19 21 C-0.58 17.79, 0 12.2, 1.75 8.81 C3.5 5.41, 8.64 2.06, 10.69 0.63 C12.75 -0.8, 13.98 -0.11, 14.1 0.22 M18.87 0.68 C21.97 0.85, 25.37 2.29, 27.57 4.73 C29.77 7.17, 31.85 12.04, 32.04 15.33 C32.23 18.62, 31.24 21.79, 28.73 24.46 C26.21 27.12, 20.25 30.4, 16.94 31.34 C13.64 32.28, 11.55 31.69, 8.9 30.1 C6.25 28.51, 2.42 24.9, 1.05 21.81 C-0.33 18.72, -0.27 14.75, 0.64 11.55 C1.56 8.34, 3.81 4.42, 6.55 2.56 C9.29 0.69, 15.42 0.96, 17.08 0.37 C18.74 -0.22, 16.31 -1.09, 16.52 -0.98" stroke="#000000" stroke-width="1" fill="none"></path></g><g stroke-linecap="round"><g transform="translate(880.857456752231 234.00002615792437) rotate(0 58.44640112717116 2.4143219963248157)"><path d="M0.87 -1.17 C20.39 -0.15, 97.76 4.92, 117.03 6 M-0.14 0.82 C19.27 1.48, 97.02 3.09, 116.33 4.03" stroke="#000000" stroke-width="1" fill="none"></path></g></g><g transform="translate(1017.7144949776784 215.8571341378347) rotate(0 50.5 14)"><text x="0" y="21" font-family="Virgil, Segoe UI Emoji" font-size="20px" fill="#000000" text-anchor="start" style="white-space: pre;" direction="ltr"></text></g><g stroke-linecap="round" transform="translate(787.9288068498881 307.1429007393972) rotate(0 15.42859758649547 15.428575788225544)"><path d="M3.69 5.86 C3.69 5.86, 3.69 5.86, 3.69 5.86 M3.69 5.86 C3.69 5.86, 3.69 5.86, 3.69 5.86 M-0.44 15.43 C2.11 10.78, 5.81 6.03, 14.16 2.35 M-0.76 16.44 C3.85 12.56, 7.52 8.78, 13.74 0.71 M2.41 19.58 C5.18 14.75, 7.13 11.8, 18.98 2.28 M1.15 20.42 C6.87 13.49, 14.51 7.06, 18.6 1.09 M4.31 25.64 C8.67 16.76, 17.67 8.32, 22.71 3.64 M3.49 25.08 C7.85 18.69, 12.72 14.4, 22.6 3.46 M6.03 28.83 C10.98 21.54, 18.88 12.45, 25.08 4.62 M6.89 27.06 C10.94 20.93, 17.76 14.09, 26.17 5.3 M10.2 31.48 C15.03 22.81, 20.49 17.39, 27 6.1 M10.17 29.62 C12.8 25.86, 17.66 21.35, 27.69 7.29 M15.15 32.4 C18.2 24.99, 19.84 23.63, 31.07 10.25 M13.88 29.72 C20.93 24.17, 26.59 17.07, 30.77 10.62 M18.87 29.79 C22.11 28.48, 24.31 23.13, 30.13 19.08 M19.03 29.74 C23.28 26.5, 25.74 23.37, 30.45 17.76" stroke="#fa5252" stroke-width="0.5" fill="none"></path><path d="M11.97 -0.39 C15.04 -1.03, 19.76 0.71, 22.75 2.47 C25.75 4.23, 28.87 7.21, 29.92 10.17 C30.96 13.13, 30.25 17.02, 29.03 20.25 C27.82 23.49, 25.22 27.98, 22.62 29.57 C20.02 31.16, 16.66 30.48, 13.43 29.79 C10.2 29.09, 5.5 27.81, 3.24 25.4 C0.98 22.99, -0.16 18.57, -0.12 15.35 C-0.07 12.13, 1.1 8.56, 3.5 6.08 C5.89 3.6, 12.27 1.33, 14.25 0.46 C16.22 -0.4, 15.31 0.66, 15.34 0.9 M13.32 -0.39 C15.92 -1.18, 18.21 0.57, 21.11 2.4 C24.01 4.24, 29.17 7.53, 30.69 10.61 C32.22 13.69, 31.45 17.72, 30.27 20.89 C29.09 24.06, 26.58 27.91, 23.62 29.62 C20.67 31.34, 15.93 31.76, 12.53 31.18 C9.14 30.59, 5.59 28.87, 3.26 26.14 C0.94 23.4, -1.46 18.23, -1.4 14.78 C-1.33 11.34, 1.22 8.03, 3.66 5.45 C6.1 2.88, 11.69 0.3, 13.26 -0.65 C14.82 -1.59, 13.02 -0.51, 13.04 -0.2" stroke="#000000" stroke-width="1" fill="none"></path></g><g transform="translate(1029.0716901506685 318.4286542619984) rotate(0 20.5 14)"><text x="0" y="21" font-family="Virgil, Segoe UI Emoji" font-size="20px" fill="#000000" text-anchor="start" style="white-space: pre;" direction="ltr"></text></g><g stroke-linecap="round"><g transform="translate(865.0716203962047 323.71431623186345) rotate(0 64.6540176272074 3.015161193381573)"><path d="M-0.43 -0.51 C2.45 0.58, -4.39 4.82, 16.89 5.98 C38.17 7.14, 108.63 6.3, 127.24 6.44 M1.55 -1.83 C4.28 -0.55, -5.56 5.49, 15.81 7.06 C37.17 8.62, 110.86 7.39, 129.74 7.55" stroke="#000000" stroke-width="1" fill="none"></path></g></g><g stroke-linecap="round" transform="translate(778.8932015555229 371.4285714285711) rotate(0 63.42856270926336 60.000021798270154)"><path d="M83.49 2.12 C92.67 3.98, 101.65 10.62, 108.4 17.29 C115.16 23.97, 121.17 33.01, 124.02 42.15 C126.88 51.29, 127.31 62.79, 125.53 72.14 C123.75 81.5, 119.53 91.15, 113.33 98.3 C107.12 105.44, 97.29 111.28, 88.31 115.02 C79.34 118.77, 69.22 121.41, 59.46 120.76 C49.69 120.12, 38.18 116.19, 29.73 111.17 C21.29 106.15, 13.64 98.81, 8.78 90.65 C3.93 82.48, 0.96 71.37, 0.6 62.19 C0.25 53.01, 2.66 43.9, 6.67 35.55 C10.68 27.21, 16.94 17.93, 24.68 12.12 C32.42 6.31, 42.08 1.82, 53.09 0.69 C64.1 -0.44, 83.37 3.7, 90.76 5.35 C98.15 7, 97.79 9.76, 97.43 10.58 M91.83 7.65 C100.68 10.62, 109.75 17.94, 115.41 25.13 C121.07 32.32, 124.52 41.5, 125.78 50.81 C127.04 60.12, 126.23 72.12, 122.97 80.99 C119.7 89.86, 113.58 97.75, 106.19 104.01 C98.8 110.28, 88 116.36, 78.63 118.56 C69.26 120.76, 59.42 119.64, 49.97 117.23 C40.51 114.82, 29.4 109.79, 21.9 104.1 C14.39 98.41, 8.43 91.58, 4.96 83.07 C1.48 74.56, -0.12 62.22, 1.03 53.02 C2.18 43.82, 6.74 35.55, 11.85 27.88 C16.96 20.21, 23.11 11.48, 31.7 7 C40.29 2.53, 53.44 1.25, 63.37 1.05 C73.31 0.84, 86.37 4.56, 91.29 5.8 C96.21 7.03, 93.11 7.58, 92.87 8.45" stroke="none" stroke-width="0" fill="#be4bdb"></path><path d="M77.66 0.57 C87.1 1.85, 96.64 8.79, 104.12 14.88 C111.61 20.98, 118.86 28.82, 122.57 37.14 C126.29 45.46, 127.47 55.57, 126.44 64.77 C125.41 73.98, 121.83 84.6, 116.38 92.39 C110.93 100.18, 102.43 107.03, 93.74 111.53 C85.05 116.03, 73.85 118.96, 64.22 119.4 C54.6 119.84, 44.64 118.29, 35.98 114.16 C27.31 110.03, 18.06 102.28, 12.24 94.61 C6.42 86.95, 2.39 77.08, 1.04 68.16 C-0.3 59.24, 1.04 49.87, 4.17 41.1 C7.29 32.32, 12.68 21.86, 19.79 15.53 C26.91 9.2, 36.41 5.13, 46.85 3.12 C57.29 1.11, 75.63 3.08, 82.42 3.48 C89.21 3.87, 88.01 4.64, 87.59 5.5 M37.09 4.49 C45.33 0.21, 56.49 0.66, 66.41 1.45 C76.33 2.24, 88.2 4.5, 96.61 9.25 C105.02 14.01, 112 22.25, 116.87 29.98 C121.74 37.7, 124.86 46.78, 125.81 55.63 C126.75 64.47, 126.58 74.53, 122.54 83.03 C118.5 91.53, 109.42 100.68, 101.56 106.62 C93.7 112.57, 84.98 116.97, 75.39 118.71 C65.8 120.44, 53.35 119.95, 44.02 117.03 C34.68 114.11, 26.18 107.54, 19.38 101.19 C12.57 94.84, 5.99 87.6, 3.16 78.91 C0.33 70.21, 0.59 58.58, 2.4 49.05 C4.21 39.51, 7.98 28.79, 14.03 21.68 C20.09 14.57, 34.8 9.08, 38.75 6.4 C42.7 3.72, 37.32 5.02, 37.72 5.61" stroke="#000000" stroke-width="1" fill="none"></path></g><g stroke-linecap="round" transform="translate(138.036093575613 307.9999651227681) rotate(0 63.42856270926336 60.000021798270154)"><path d="M57 0.64 C66.18 -1.06, 77.7 1.5, 86.88 5.08 C96.05 8.65, 105.78 14.94, 112.05 22.07 C118.31 29.21, 122.39 38.79, 124.46 47.87 C126.53 56.95, 126.9 67.6, 124.46 76.54 C122.01 85.49, 116.38 94.89, 109.77 101.55 C103.16 108.21, 94.08 113.65, 84.8 116.5 C75.51 119.34, 63.83 119.9, 54.06 118.64 C44.29 117.38, 34.1 114.31, 26.2 108.95 C18.3 103.59, 11.11 94.8, 6.65 86.48 C2.19 78.16, -0.85 68.4, -0.55 59.01 C-0.24 49.62, 3.66 38.47, 8.5 30.13 C13.33 21.79, 18.13 13.82, 28.47 8.97 C38.8 4.11, 61.43 1.9, 70.51 1.01 C79.59 0.12, 82.98 2.62, 82.94 3.64 M34.69 6.2 C42.42 1.36, 52.6 1.14, 62.4 1.33 C72.2 1.52, 84.79 3.23, 93.5 7.34 C102.2 11.45, 109.32 18.36, 114.63 25.99 C119.93 33.61, 123.92 44.1, 125.34 53.11 C126.75 62.13, 126.63 71.25, 123.12 80.08 C119.62 88.91, 111.87 99.59, 104.3 106.1 C96.73 112.61, 86.91 117.31, 77.7 119.13 C68.48 120.96, 58.42 119.28, 49.02 117.06 C39.63 114.85, 29.05 111.95, 21.35 105.84 C13.64 99.73, 6.19 88.97, 2.8 80.39 C-0.6 71.81, -0.29 63.62, 0.98 54.36 C2.25 45.09, 5.23 32.67, 10.42 24.79 C15.62 16.91, 28.26 9.95, 32.15 7.06 C36.04 4.17, 32.85 6.67, 33.78 7.46" stroke="none" stroke-width="0" fill="#be4bdb"></path><path d="M52.04 1.24 C61.23 -1.28, 72.87 0.52, 82.11 3.04 C91.36 5.56, 100.54 10.14, 107.5 16.37 C114.46 22.6, 120.96 31.46, 123.88 40.42 C126.8 49.38, 126.69 60.93, 125.01 70.14 C123.34 79.36, 119.69 88.19, 113.84 95.7 C107.98 103.22, 98.7 111.11, 89.88 115.23 C81.06 119.34, 70.73 120.83, 60.9 120.39 C51.08 119.94, 39.59 117.4, 30.94 112.57 C22.3 107.75, 14.04 99.59, 9.04 91.42 C4.05 83.25, 1.75 72.83, 0.99 63.57 C0.22 54.31, 0.66 44.27, 4.46 35.87 C8.26 27.47, 13.93 19.16, 23.8 13.15 C33.67 7.14, 54.74 1.71, 63.67 -0.19 C72.6 -2.1, 77.28 0.58, 77.38 1.71 M90.32 7.8 C99.31 10.83, 110.09 17.33, 115.93 24.84 C121.78 32.35, 124.33 43.68, 125.4 52.85 C126.47 62.01, 125.37 71.12, 122.36 79.82 C119.34 88.51, 114.48 98.84, 107.3 105.02 C100.12 111.21, 88.78 114.87, 79.27 116.92 C69.77 118.97, 59.87 119.39, 50.29 117.33 C40.71 115.27, 29.44 110.56, 21.78 104.58 C14.13 98.6, 7.95 89.73, 4.34 81.46 C0.72 73.2, -1.04 63.88, 0.09 54.99 C1.22 46.09, 5.79 36, 11.12 28.08 C16.44 20.17, 23.42 11.96, 32.06 7.51 C40.71 3.06, 53.1 1.55, 62.98 1.39 C72.86 1.23, 86.64 5.52, 91.34 6.57 C96.04 7.61, 91.45 7, 91.18 7.66" stroke="#000000" stroke-width="1" fill="none"></path></g><g stroke-linecap="round" transform="translate(258.60738263811345 294.5714460100444) rotate(0 15.42859758649547 15.428575788225544)"><path d="M8.6 0.85 C8.6 0.85, 8.6 0.85, 8.6 0.85 M8.6 0.85 C8.6 0.85, 8.6 0.85, 8.6 0.85 M4.73 10.76 C8.55 8.02, 10.54 2.24, 15.65 -0.79 M4.26 12.13 C7.22 7.15, 11.8 4.26, 13.93 -0.24 M0.68 22.67 C4.49 15.91, 7.73 13.85, 19.33 0.78 M1.85 20.42 C6.75 13.54, 13.81 8.68, 20.77 1.05 M1.92 25.43 C10.1 14.52, 19.03 8.08, 22.5 4.38 M3.85 24.63 C10.82 15.6, 18.77 8.92, 22.01 2.9 M5.59 29.14 C11.41 23.08, 19.71 15.17, 26.38 6.83 M6.49 27.01 C13.87 20.35, 20.48 11.24, 25.96 5.27 M11.05 31.95 C15.74 25.42, 19.65 16.14, 28.24 7.19 M9.78 30.83 C15.73 24.11, 20.76 17.35, 29.4 8.64 M13.33 30.35 C18.99 24.1, 24.45 18.15, 32.39 10.67 M14.52 30.86 C19.79 24.47, 25.12 16.85, 30.74 12.86 M18.93 30.47 C22.81 25.96, 29 21.54, 33.24 15.94 M18.84 31.46 C21.32 27.41, 25.95 23.81, 32.8 16.18" stroke="#be4bdb" stroke-width="0.5" fill="none"></path><path d="M8.32 1.16 C11 -0.66, 16.5 -1.09, 19.7 -0.17 C22.9 0.74, 25.55 4, 27.51 6.65 C29.47 9.31, 31.71 12.48, 31.47 15.77 C31.23 19.06, 28.56 23.99, 26.07 26.42 C23.59 28.85, 19.86 30.05, 16.57 30.35 C13.28 30.66, 9.07 29.98, 6.32 28.23 C3.57 26.48, 0.79 22.91, 0.05 19.85 C-0.69 16.79, -0.05 13.14, 1.86 9.87 C3.78 6.6, 9.62 1.7, 11.54 0.22 C13.47 -1.25, 13.31 0.74, 13.41 1.02 M17.55 -1.08 C20.89 -0.86, 25.34 3.23, 27.5 5.7 C29.66 8.16, 30.31 10.67, 30.5 13.72 C30.69 16.77, 30.42 21.32, 28.67 24 C26.91 26.68, 23.08 28.84, 19.97 29.8 C16.85 30.76, 12.83 31.28, 9.96 29.76 C7.09 28.23, 4.08 23.76, 2.74 20.66 C1.4 17.55, 1.07 14.17, 1.93 11.14 C2.79 8.12, 5.24 4.32, 7.91 2.52 C10.57 0.72, 16.47 0.79, 17.92 0.35 C19.38 -0.09, 17.04 -0.33, 16.63 -0.13" stroke="#000000" stroke-width="1" fill="none"></path></g><g stroke-linecap="round"><g transform="translate(931.1788373674658 451.7143249511719) rotate(0 67.28088463358586 -0.002480039266629319)"><path d="M-1.14 1.19 C21.51 0.91, 113.15 -0.98, 135.7 -1.19 M0.46 0.77 C23.05 0.64, 113.09 0.76, 135.2 0.32" stroke="#000000" stroke-width="1" fill="none"></path></g></g><g transform="translate(1089.464447021484 439.28571864536843) rotate(0 40.5 14)"><text x="0" y="21" font-family="Virgil, Segoe UI Emoji" font-size="20px" fill="#000000" text-anchor="start" style="white-space: pre;" direction="ltr"></text></g><g stroke-linecap="round" transform="translate(800.6074175153453 513.1428745814737) rotate(0 15.42859758649547 15.428575788225544)"><path d="M4.35 5.1 C4.35 5.1, 4.35 5.1, 4.35 5.1 M4.35 5.1 C4.35 5.1, 4.35 5.1, 4.35 5.1 M1.13 17 C3.26 9.76, 8.5 4.72, 12.82 -0.47 M1.63 15.25 C6.04 9.12, 10.92 4.7, 13.45 1.44 M1.93 18.71 C5.85 14.68, 11.37 9.97, 19.68 3.09 M1.91 20.11 C4.5 15.57, 9.31 12.41, 19.18 1.35 M1.74 25.2 C8.59 20.12, 15.97 10.9, 22.08 3.7 M1.97 24.88 C10.15 17.24, 18.08 8.14, 22.93 2.8 M7.25 26.91 C10.07 21.88, 15.16 16.87, 27.4 3.93 M6.64 27.33 C12.56 17.79, 21.22 10.81, 27.89 4.38 M9.99 30.23 C16.32 23, 22.69 14.25, 27.19 5.75 M9.02 29.13 C16.17 23.32, 20.14 16.83, 28.32 7.87 M14.05 31.26 C18.74 23.85, 27.57 15.23, 28.9 12.41 M12.89 32.28 C18.99 25.38, 24.36 17.27, 30.99 12 M17.98 33.59 C20.15 26.23, 25.62 22.68, 31.81 16.88 M18.37 30.89 C22.82 26.86, 27.96 19.9, 29.94 17.62" stroke="#be4bdb" stroke-width="0.5" fill="none"></path><path d="M13.22 0.44 C16.39 0.05, 22.37 0.68, 25.06 2.34 C27.76 3.99, 28.65 7.16, 29.39 10.36 C30.12 13.57, 30.77 18.28, 29.47 21.57 C28.17 24.86, 24.65 28.75, 21.6 30.12 C18.55 31.49, 14.38 30.67, 11.16 29.79 C7.94 28.92, 4.17 27.41, 2.27 24.87 C0.37 22.32, -0.62 17.87, -0.22 14.52 C0.17 11.17, 2.2 7.12, 4.65 4.76 C7.09 2.4, 12.73 1.18, 14.43 0.35 C16.14 -0.49, 14.97 -0.56, 14.88 -0.25 M23.32 0.17 C25.79 0.8, 26.61 4.32, 27.9 7.32 C29.18 10.31, 31.78 14.7, 31.02 18.11 C30.25 21.53, 25.98 25.74, 23.28 27.81 C20.59 29.87, 17.75 30.56, 14.85 30.51 C11.95 30.46, 8.41 29.63, 5.9 27.52 C3.38 25.41, 0.3 21.33, -0.23 17.87 C-0.77 14.41, 0.79 9.84, 2.67 6.78 C4.55 3.72, 7.66 0.22, 11.02 -0.49 C14.39 -1.19, 21.3 2.12, 22.86 2.53 C24.41 2.95, 20.64 2.18, 20.35 1.99" stroke="#000000" stroke-width="1" fill="none"></path></g><g stroke-linecap="round"><g transform="translate(882.5362025669629 533.0714438302175) rotate(0 58.25407525214791 2.191132998817693)"><path d="M0.63 -0.33 C20.24 0.77, 97.64 5, 117 5.93 M-0.5 -1.55 C19.05 -0.77, 96.84 2.61, 116.28 3.92" stroke="#000000" stroke-width="1" fill="none"></path></g></g><g transform="translate(1015.9644601004461 521.785677228655) rotate(0 70.5 14)"><text x="0" y="21" font-family="Virgil, Segoe UI Emoji" font-size="20px" fill="#000000" text-anchor="start" style="white-space: pre;" direction="ltr"></text></g><g stroke-linecap="round" transform="translate(597.1788112095433 81.14289419991655) rotate(0 15.42859758649547 15.428575788225544)"><path d="M3.68 4.53 C3.68 4.53, 3.68 4.53, 3.68 4.53 M3.68 4.53 C3.68 4.53, 3.68 4.53, 3.68 4.53 M1.91 13.71 C4.56 9.58, 7.81 6.23, 9.81 1.76 M2.18 12.51 C4.36 9.66, 7.52 6.86, 11.84 2.1 M4.54 16.2 C7.75 12.91, 11.8 6.25, 14.8 1.38 M3.91 17.74 C7.43 12.79, 11.14 7.47, 14.93 3.8 M3.57 22.24 C9.49 18.79, 11.03 15.28, 21.75 3.78 M4.09 22.33 C7.34 18.42, 11.71 14.69, 20.36 3.59 M4.02 26.74 C10.83 19.79, 17.52 10.95, 24.22 5.04 M5.17 26.22 C9.42 21.06, 14.14 17.22, 24.43 4.21 M7.52 30.31 C14.22 24.03, 18.33 17.7, 25.55 7.03 M8.43 28.35 C12.73 25.21, 16.85 20.98, 28.06 8.58 M11.28 29.74 C15.39 27.29, 21.85 20.1, 28.34 12.42 M13.03 30.88 C18.8 23.66, 25.89 14.56, 29.65 9.98 M17.31 29.35 C24.03 25.48, 26.52 19.41, 32.26 17.09 M17.89 30.46 C22.54 24.14, 27.66 18.88, 30.86 15.37" stroke="#be4bdb" stroke-width="0.5" fill="none"></path><path d="M14.07 1.01 C17.13 0.59, 20.05 1.19, 22.62 2.7 C25.2 4.2, 28.21 6.87, 29.52 10.06 C30.84 13.24, 31.76 18.53, 30.51 21.79 C29.25 25.04, 25.04 28.09, 21.98 29.57 C18.92 31.05, 15.2 31.44, 12.16 30.67 C9.13 29.91, 5.64 27.49, 3.78 24.96 C1.91 22.43, 1.01 18.89, 0.98 15.5 C0.94 12.11, 0.77 7.21, 3.59 4.63 C6.42 2.05, 14.79 0.59, 17.92 0.02 C21.04 -0.56, 22.51 0.98, 22.34 1.18 M17.49 0.38 C20.51 1.05, 25.98 4.09, 28.26 6.65 C30.54 9.21, 31.47 12.48, 31.17 15.75 C30.87 19.01, 28.77 23.84, 26.47 26.23 C24.16 28.61, 20.42 29.66, 17.34 30.03 C14.26 30.41, 10.55 29.87, 8 28.48 C5.45 27.08, 3.02 24.77, 2.04 21.65 C1.06 18.54, 0.97 13.26, 2.12 9.79 C3.27 6.31, 6.42 2.3, 8.94 0.79 C11.46 -0.72, 15.78 0.66, 17.24 0.73 C18.7 0.81, 17.44 1.01, 17.7 1.24" stroke="#000000" stroke-width="1" fill="none"></path></g><g stroke-linecap="round" transform="translate(652.8930969238286 221.1428506033758) rotate(0 15.42859758649547 15.428575788225544)"><path d="M1.04 8.85 C1.04 8.85, 1.04 8.85, 1.04 8.85 M1.04 8.85 C1.04 8.85, 1.04 8.85, 1.04 8.85 M1.41 14.91 C5.42 9.76, 10.4 3.72, 12.45 1.18 M-0.04 15.51 C3.77 11.93, 7.63 7.71, 12.87 2.27 M1.3 19.43 C8.11 13.3, 11.39 7.48, 15.89 2.73 M2.93 19.56 C8.11 12.8, 12.92 6.22, 18.44 1.1 M4.22 25.22 C8.51 19.02, 12.73 15.94, 23 0.57 M4.31 23.24 C10.1 17.6, 16.05 10.09, 22.8 2.76 M6.29 26.21 C13.29 19.15, 18.37 12.08, 26.17 3.27 M5.78 27.02 C10.42 21.91, 16.4 15.42, 25.33 4.36 M9.6 32.16 C15.49 23.75, 21.36 12.74, 27.13 6.56 M7.64 30.95 C14.37 25.03, 20.04 19.27, 28.69 7.87 M11.49 30.48 C18.77 27.31, 21.28 19.56, 31.61 14.41 M12.64 31.3 C18.17 25.9, 21.82 20.54, 29.17 13.12 M16.43 33.82 C21.51 27.52, 24.26 25.67, 32.4 18.54 M17.59 31.96 C22.03 26.33, 27.56 20.89, 30.58 16.09" stroke="#be4bdb" stroke-width="0.5" fill="none"></path><path d="M10.63 0.15 C13.7 -1.42, 17.82 -1.09, 20.72 0.24 C23.62 1.57, 26.28 5.33, 28.05 8.12 C29.82 10.9, 31.64 13.83, 31.33 16.96 C31.02 20.08, 28.76 24.47, 26.2 26.86 C23.64 29.25, 19.37 31.05, 15.97 31.31 C12.57 31.58, 8.32 30.66, 5.8 28.47 C3.28 26.28, 1.59 21.51, 0.85 18.18 C0.11 14.85, -0.46 11.32, 1.34 8.5 C3.15 5.69, 9.63 2.73, 11.66 1.31 C13.68 -0.11, 13.48 -0.2, 13.49 -0.02 M21.86 2.11 C25.03 3.46, 28.73 6.3, 30.13 9.08 C31.52 11.86, 31.1 15.69, 30.24 18.78 C29.37 21.88, 27.72 25.54, 24.95 27.66 C22.17 29.77, 16.98 31.48, 13.58 31.49 C10.18 31.5, 6.58 29.97, 4.55 27.71 C2.53 25.46, 1.75 21.32, 1.45 17.96 C1.15 14.6, 1.3 10.66, 2.76 7.54 C4.22 4.42, 6.98 0.41, 10.22 -0.75 C13.47 -1.91, 20.21 0.1, 22.22 0.59 C24.23 1.08, 22.42 1.71, 22.29 2.2" stroke="#000000" stroke-width="1" fill="none"></path></g><g stroke-linecap="round" transform="translate(579.4644906180242 147.71433149065297) rotate(0 15.5 17.5)"><path d="M7.41 2.47 C7.41 2.47, 7.41 2.47, 7.41 2.47 M7.41 2.47 C7.41 2.47, 7.41 2.47, 7.41 2.47 M3.56 13.13 C7.48 8.96, 10.6 2.87, 13.93 0.52 M4.1 12.14 C7.35 9.26, 10.04 6.41, 14.9 0.68 M1.02 22.97 C6.17 14.87, 11.67 7.01, 20.05 2.02 M1.16 22.39 C6.66 14.69, 12.39 8.67, 18.43 0 M5.05 25.9 C8.62 20.12, 15.3 13.51, 20.55 3.79 M3.07 25.52 C8.92 20.08, 12.9 14.4, 22.75 3.87 M4.26 29.57 C9.96 22.09, 15.61 17.39, 24.3 4.66 M5.07 28.24 C12.58 21.43, 18.67 13.29, 25.39 6.1 M9.19 32.38 C17.47 21.3, 23.1 12.12, 27.24 7.61 M7.98 32.93 C15.76 24.78, 23.67 16.13, 28.54 7.77 M9.42 36.16 C15.65 29.5, 17.28 27.64, 32.01 12.46 M10.25 35.75 C16.74 27.21, 23.31 19.39, 30.71 12.62 M16.73 36.03 C18.03 31.35, 23.76 29.43, 32.39 20.03 M14.87 35.26 C19.83 30.29, 24.97 24.42, 29.94 18.93 M20.95 37.89 C22.62 33.64, 28.97 25.81, 31.82 22.81 M20.07 37.59 C24.27 31.9, 28.9 27.14, 32.1 20.98" stroke="#be4bdb" stroke-width="0.5" fill="none"></path><path d="M7.57 2.28 C10.06 0.24, 14.95 -0.97, 18.46 -0.08 C21.97 0.81, 26.68 4.46, 28.64 7.64 C30.6 10.82, 30.55 15.34, 30.22 19 C29.89 22.66, 28.75 26.96, 26.69 29.6 C24.62 32.24, 20.93 34.34, 17.82 34.85 C14.71 35.37, 10.91 34.83, 8 32.7 C5.09 30.57, 1.4 25.75, 0.35 22.06 C-0.7 18.36, 0.05 14.01, 1.69 10.51 C3.32 7.01, 8.81 2.67, 10.17 1.08 C11.52 -0.51, 9.79 0.49, 9.81 0.96 M13.07 1.15 C16.35 0.18, 20.43 0.21, 23.16 1.95 C25.88 3.68, 28.29 8.15, 29.41 11.55 C30.54 14.94, 30.75 18.86, 29.9 22.32 C29.06 25.78, 26.89 29.99, 24.33 32.3 C21.77 34.61, 17.77 36.71, 14.54 36.19 C11.31 35.68, 7.25 32.42, 4.97 29.22 C2.68 26.01, 1.33 20.67, 0.84 16.98 C0.34 13.29, 0.22 9.75, 2.01 7.08 C3.8 4.42, 9.73 2, 11.55 0.98 C13.37 -0.03, 12.64 0.96, 12.95 0.99" stroke="#000000" stroke-width="1" fill="none"></path></g><g stroke-linecap="round" transform="translate(613.7862897600439 102.57140023367765) rotate(0 63.42856270926336 60.000021798270154)"><path d="M45.61 3 C54.22 -0.59, 65.73 -0.78, 75.28 0.8 C84.83 2.38, 95.12 6.87, 102.91 12.48 C110.7 18.09, 118.07 25.96, 122.02 34.45 C125.98 42.94, 127.39 54.02, 126.66 63.42 C125.93 72.81, 122.57 82.98, 117.65 90.82 C112.73 98.66, 105.51 105.73, 97.14 110.47 C88.78 115.22, 77.29 118.61, 67.47 119.27 C57.66 119.94, 47.14 118.12, 38.26 114.45 C29.37 110.78, 20.27 104.52, 14.18 97.26 C8.08 90, 3.54 79.97, 1.69 70.9 C-0.15 61.82, 0.36 51.7, 3.08 42.81 C5.8 33.92, 9.64 24.59, 18.04 17.55 C26.43 10.5, 46.23 3.35, 53.44 0.56 C60.65 -2.23, 61.33 -0.29, 61.29 0.79 M81.21 2.49 C90.44 3.74, 100.49 9.75, 107.47 15.9 C114.45 22.05, 119.78 30.76, 123.11 39.4 C126.43 48.04, 129.09 58.4, 127.42 67.72 C125.75 77.05, 119.21 87.65, 113.08 95.36 C106.95 103.08, 99.03 109.84, 90.64 114 C82.24 118.16, 72.47 120.51, 62.7 120.32 C52.94 120.13, 40.69 117.45, 32.07 112.87 C23.45 108.29, 16.5 100.73, 10.97 92.84 C5.44 84.95, 0.01 74.87, -1.11 65.53 C-2.24 56.19, 0.19 45.46, 4.22 36.78 C8.25 28.1, 15.38 19.19, 23.06 13.44 C30.75 7.7, 40.68 4.24, 50.33 2.31 C59.99 0.38, 75.95 1.57, 80.99 1.85 C86.03 2.12, 80.85 3.03, 80.57 3.95" stroke="none" stroke-width="0" fill="#be4bdb"></path><path d="M90.42 4.97 C99.05 8.15, 107.18 16.87, 113.2 24.21 C119.23 31.55, 124.71 40, 126.57 49.01 C128.43 58.02, 127.45 69.23, 124.35 78.28 C121.25 87.33, 115.09 96.61, 107.98 103.3 C100.86 109.99, 91.02 115.88, 81.68 118.42 C72.34 120.97, 61.66 120.44, 51.92 118.59 C42.19 116.74, 31.08 112.91, 23.29 107.31 C15.51 101.7, 9.14 93.62, 5.22 84.96 C1.3 76.31, -0.86 64.73, -0.23 55.38 C0.41 46.03, 3.65 36.77, 9.02 28.87 C14.39 20.96, 23.59 12.73, 32 7.94 C40.42 3.15, 49.5 0.31, 59.51 0.11 C69.52 -0.08, 86.52 5.45, 92.05 6.75 C97.59 8.06, 93.31 7.07, 92.71 7.93 M56.66 1.59 C66.18 -0.16, 79.03 1.9, 88.19 5.26 C97.35 8.61, 105.6 15.07, 111.6 21.73 C117.6 28.38, 121.92 36.42, 124.18 45.21 C126.45 53.99, 127.41 65.15, 125.19 74.45 C122.97 83.75, 117.53 93.88, 110.88 101 C104.23 108.13, 94.8 114.13, 85.3 117.17 C75.79 120.21, 63.6 120.65, 53.87 119.24 C44.13 117.83, 34.82 113.85, 26.88 108.73 C18.95 103.6, 10.6 96.68, 6.26 88.49 C1.93 80.3, 0.61 69.16, 0.88 59.57 C1.15 49.99, 3.17 39.3, 7.86 30.99 C12.56 22.67, 20.91 14.68, 29.07 9.67 C37.22 4.67, 52.35 2.21, 56.8 0.96 C61.26 -0.3, 55.66 1.33, 55.79 2.16" stroke="#000000" stroke-width="1" fill="none"></path></g><g stroke-linecap="round" transform="translate(658.9289376395095 72.00002397809749) rotate(0 15.42859758649547 15.428575788225544)"><path d="M3.08 6.66 C3.08 6.66, 3.08 6.66, 3.08 6.66 M3.08 6.66 C3.08 6.66, 3.08 6.66, 3.08 6.66 M-1.12 18.28 C2.21 11.32, 8.26 6.11, 12.76 2.91 M0.47 16.59 C3.1 13.91, 5.93 10.43, 13.51 1.71 M1.39 19.65 C4.98 13.9, 10.5 12.14, 19.01 2.91 M1.59 20 C6.78 14.52, 12.24 6.24, 18.13 1.02 M4.1 24.45 C10.76 17.61, 13.35 11.04, 21.78 2.21 M4.93 23.88 C9.8 17.22, 16.15 10.72, 22.19 1.5 M4.8 27.01 C11.7 21, 16.97 12.42, 26.19 3.57 M6.02 27.96 C11.27 21.07, 16.79 15.48, 26.61 4.37 M11.23 27.64 C15.18 20.25, 21.85 12.87, 29.69 6.69 M10.51 29.76 C15.44 24.42, 18.53 18.39, 27.78 7.04 M14.39 29.9 C16.5 27.55, 24.72 20.13, 32.52 11.16 M13.23 30.57 C18.87 23.86, 25.53 17.82, 30.89 9.83 M16.21 32.47 C22.01 30.33, 25.77 26.72, 31.62 15.94 M16.68 33.05 C21.59 27.65, 25.23 23.77, 31.53 16.13" stroke="#be4bdb" stroke-width="0.5" fill="none"></path><path d="M21.25 0.85 C24.47 2.01, 28.7 6.25, 30.09 9.42 C31.49 12.58, 30.58 16.71, 29.61 19.83 C28.64 22.94, 26.76 26.29, 24.27 28.12 C21.79 29.95, 17.81 30.98, 14.7 30.79 C11.58 30.6, 8.08 29.38, 5.59 26.98 C3.1 24.59, 0.16 19.79, -0.25 16.39 C-0.66 12.99, 1.08 9.29, 3.15 6.58 C5.22 3.88, 8.81 0.95, 12.16 0.18 C15.52 -0.59, 21.04 1.18, 23.28 1.95 C25.52 2.71, 25.76 4.58, 25.62 4.75 M16.04 -0.13 C18.98 -0.31, 22.7 2.25, 25.08 4.33 C27.47 6.42, 29.65 9.21, 30.35 12.37 C31.06 15.54, 30.76 20.14, 29.32 23.31 C27.88 26.48, 24.76 30.3, 21.69 31.4 C18.62 32.49, 14.07 31.48, 10.91 29.89 C7.75 28.29, 4.74 24.67, 2.75 21.84 C0.76 19, -1.39 15.85, -1.03 12.88 C-0.66 9.91, 2.06 6.14, 4.94 4.04 C7.82 1.94, 14.34 1.06, 16.26 0.28 C18.18 -0.5, 16.6 -0.91, 16.47 -0.65" stroke="#000000" stroke-width="1" fill="none"></path></g><g stroke-linecap="round"><g transform="translate(314.03606741768954 56.285727364676404) rotate(0 137.17447778506994 18.58584220169905)"><path d="M0.6 -1.06 C46.15 5.18, 226.98 31.76, 272.51 38.23 M-0.54 1 C45.47 6.8, 229.24 30.03, 274.89 36.38" stroke="#000000" stroke-width="1" fill="none"></path></g><g transform="translate(314.03606741768954 56.285727364676404) rotate(0 137.17447778506994 18.58584220169905)"><path d="M243.84 41.81 C253.32 42.26, 259.44 39.71, 275.52 37.47 M246.37 42.09 C253.06 42, 263.32 38.66, 275.37 37.22" stroke="#000000" stroke-width="1" fill="none"></path></g><g transform="translate(314.03606741768954 56.285727364676404) rotate(0 137.17447778506994 18.58584220169905)"><path d="M246.52 21.46 C255.51 26.73, 260.99 28.97, 275.52 37.47 M249.05 21.75 C255 27.52, 264.49 30.04, 275.37 37.22" stroke="#000000" stroke-width="1" fill="none"></path></g></g><g stroke-linecap="round"><g transform="translate(314.03606741768954 57.428610665457654) rotate(0 -10.187395481660587 115.17252015560075)"><path d="M0.57 0.87 C-2.96 38.85, -16.84 190.84, -20.19 228.93 M-0.59 0.29 C-4.33 38.91, -17.75 191.68, -20.94 230.06" stroke="#000000" stroke-width="1" fill="none"></path></g><g transform="translate(314.03606741768954 57.428610665457654) rotate(0 -10.187395481660587 115.17252015560075)"><path d="M-27.29 201.72 C-26.8 213.89, -23.05 223.49, -19.69 231.68 M-29.02 200.11 C-25.74 209.63, -24.3 217.67, -20.71 229.13" stroke="#000000" stroke-width="1" fill="none"></path></g><g transform="translate(314.03606741768954 57.428610665457654) rotate(0 -10.187395481660587 115.17252015560075)"><path d="M-6.85 203.48 C-14.2 215.07, -18.27 224, -19.69 231.68 M-8.57 201.87 C-10.96 210.92, -15.18 218.47, -20.71 229.13" stroke="#000000" stroke-width="1" fill="none"></path></g></g><g transform="translate(252.60749598911752 23.2857448032928) rotate(0 90.5 14)"><text x="0" y="21" font-family="Virgil, Segoe UI Emoji" font-size="20px" fill="#000000" text-anchor="start" style="white-space: pre;" direction="ltr"></text></g></svg>