<svg version="1.1" xmlns="http://www.w3.org/2000/svg" viewBox="0 0 1203.2860281808034 503.42856270926336" width="1203.2860281808034" height="503.42856270926336">
  <!-- svg-source:excalidraw -->
  
  <defs>
    <style>
      @font-face {
        font-family: "Virgil";
        src: url("https://excalidraw.com/Virgil.woff2");
      }
      @font-face {
        font-family: "Cascadia";
        src: url("https://excalidraw.com/Cascadia.woff2");
      }
    </style>
  </defs>
  <rect x="0" y="0" width="1203.2860281808034" height="503.42856270926336" fill="#ffffff"></rect><g stroke-linecap="round" transform="translate(10 10) rotate(0 360.57141985212047 241.71428135463168)"><path d="M-0.2 0.51 C200.87 -0.05, 400.74 -1.42, 721.1 0.12 M-0.18 -0.37 C252.46 -0.25, 505.63 0.21, 721.48 0.27 M721.33 0.63 C721.68 116.53, 721.42 234.02, 720.29 483.72 M721.49 0.34 C721.61 108.97, 721.79 218.15, 721.08 483.6 M721.84 483.85 C472.98 481.24, 224.57 480.45, -0.35 483.2 M721.29 483.53 C457.18 485.48, 192.93 485.88, 0.18 483.72 M-0.57 482.72 C-1.36 345.38, -1.09 205.26, -0.66 -0.16 M0.21 483.03 C1.3 386.53, 1.57 289.79, 0.28 0.22" stroke="#000000" stroke-width="1" fill="none"></path></g><g stroke-linecap="round" transform="translate(139.14297921317075 308.28565325055774) rotate(0 63.42856270926336 60.000021798270154)"><path d="M76.84 1.03 C86.38 2.23, 98.09 8.3, 105.53 14.31 C112.98 20.32, 118.03 28.6, 121.5 37.1 C124.96 45.61, 127.3 55.95, 126.31 65.33 C125.32 74.7, 120.9 85.61, 115.56 93.34 C110.21 101.08, 102.76 107.3, 94.24 111.75 C85.73 116.21, 74.26 119.69, 64.47 120.07 C54.68 120.46, 44.18 118.18, 35.51 114.06 C26.83 109.93, 18.38 103.12, 12.43 95.34 C6.49 87.56, 1.1 76.64, -0.17 67.39 C-1.45 58.14, 1.16 48.51, 4.76 39.82 C8.37 31.12, 14.31 21.69, 21.45 15.23 C28.6 8.76, 36.98 2.86, 47.63 1.04 C58.28 -0.78, 78.2 3.21, 85.37 4.32 C92.54 5.42, 91.28 6.96, 90.64 7.66 M64.18 1.22 C73.65 0.17, 84.72 1.64, 93.19 5.65 C101.65 9.67, 109.54 17.38, 114.98 25.32 C120.42 33.26, 124.6 44.07, 125.84 53.27 C127.07 62.47, 126.02 71.86, 122.39 80.53 C118.77 89.21, 111.26 99.26, 104.1 105.33 C96.95 111.39, 88.64 114.53, 79.46 116.92 C70.29 119.31, 58.54 121.81, 49.04 119.67 C39.55 117.53, 30.02 110.42, 22.49 104.07 C14.96 97.71, 7.67 89.87, 3.86 81.55 C0.04 73.23, -1.53 63.23, -0.4 54.14 C0.73 45.05, 4.65 34.81, 10.63 27.02 C16.62 19.22, 26.62 12.07, 35.51 7.36 C44.4 2.65, 59.22 -0.15, 63.97 -1.23 C68.72 -2.31, 64.25 -0.56, 64.03 0.88" stroke="#000000" stroke-width="1" fill="none"></path></g><g stroke-linecap="round" transform="translate(376.85725620814674 303.1428091866628) rotate(0 63.42856270926336 60.000021798270154)"><path d="M70.05 1.09 C79.17 1.19, 90.38 5.57, 98.76 10.85 C107.15 16.14, 115.52 24.5, 120.36 32.78 C125.2 41.07, 127.89 51.51, 127.8 60.56 C127.7 69.61, 124.35 78.81, 119.79 87.08 C115.24 95.36, 108.57 104.81, 100.46 110.22 C92.35 115.62, 81.13 118.61, 71.15 119.52 C61.16 120.43, 49.83 118.88, 40.57 115.67 C31.3 112.46, 21.87 107.23, 15.56 100.27 C9.25 93.32, 5.1 83.2, 2.72 73.96 C0.34 64.72, -0.86 53.92, 1.3 44.82 C3.46 35.72, 8.96 26.12, 15.68 19.35 C22.39 12.58, 32.11 7.18, 41.6 4.22 C51.08 1.25, 66.96 2.01, 72.59 1.55 C78.23 1.09, 75.34 0.51, 75.42 1.45 M41.87 3.34 C50.24 -0.72, 61.78 -1.28, 71.59 -0.26 C81.4 0.76, 92.6 4.11, 100.74 9.47 C108.87 14.82, 116.22 23.38, 120.39 31.85 C124.55 40.32, 125.95 50.9, 125.71 60.28 C125.46 69.67, 123.52 79.76, 118.92 88.17 C114.32 96.58, 106.14 105.54, 98.11 110.73 C90.08 115.92, 80.26 118.62, 70.76 119.29 C61.27 119.96, 50.15 117.8, 41.14 114.74 C32.14 111.67, 23.41 107.4, 16.72 100.88 C10.03 94.36, 3.27 84.62, 1.01 75.62 C-1.24 66.62, 0.57 56.21, 3.19 46.89 C5.82 37.57, 10.72 26.61, 16.77 19.68 C22.82 12.76, 35.32 7.93, 39.5 5.35 C43.69 2.78, 41.05 3.56, 41.88 4.26" stroke="#000000" stroke-width="1" fill="none"></path></g><g stroke-linecap="round" transform="translate(146.28570556640625 106.85710362025634) rotate(0 63.42856270926336 60.000021798270154)"><path d="M91.15 5.08 C99.92 8.34, 108.38 16.96, 114.31 24.64 C120.24 32.33, 125.06 42.12, 126.71 51.19 C128.37 60.26, 127.57 70.23, 124.23 79.06 C120.9 87.88, 113.73 97.72, 106.7 104.15 C99.67 110.58, 91.38 115.25, 82.07 117.62 C72.76 120, 60.69 120.32, 50.84 118.4 C40.99 116.49, 30.52 111.79, 22.98 106.14 C15.43 100.49, 9.46 93.07, 5.59 84.5 C1.72 75.94, -0.79 64.22, -0.24 54.76 C0.31 45.31, 3.73 35.45, 8.89 27.79 C14.05 20.13, 22.01 13.58, 30.7 8.8 C39.4 4.03, 50.13 -0.71, 61.04 -0.86 C71.95 -1.02, 89.93 5.63, 96.15 7.86 C102.37 10.1, 98.93 11.76, 98.36 12.55 M78.9 2.6 C88.07 4.04, 98.3 10.75, 105.48 17.05 C112.66 23.34, 118.53 32.07, 121.97 40.39 C125.41 48.7, 127.2 57.99, 126.12 66.94 C125.04 75.89, 121.11 86.54, 115.51 94.06 C109.9 101.58, 101.08 107.82, 92.48 112.07 C83.89 116.32, 73.86 119.43, 63.93 119.56 C54 119.68, 41.99 117.06, 32.89 112.81 C23.78 108.56, 14.56 101.94, 9.31 94.06 C4.05 86.17, 1.98 74.64, 1.36 65.51 C0.75 56.39, 1.96 47.65, 5.6 39.3 C9.23 30.95, 16.04 21.93, 23.19 15.42 C30.34 8.91, 38.9 2.37, 48.52 0.22 C58.14 -1.92, 75.93 1.85, 80.91 2.57 C85.88 3.28, 78.88 3.65, 78.37 4.53" stroke="#000000" stroke-width="1" fill="none"></path></g><g stroke-linecap="round" transform="translate(395.4286847795752 102.57138933454212) rotate(0 63.42856270926336 60.000021798270154)"><path d="M83.91 3.69 C93.32 5.8, 103.78 13.03, 110.73 19.91 C117.68 26.78, 123.13 36.2, 125.59 44.92 C128.06 53.65, 127.65 63.15, 125.52 72.27 C123.39 81.39, 119.19 92.4, 112.81 99.62 C106.44 106.84, 96.62 112.29, 87.29 115.57 C77.95 118.84, 66.66 120.1, 56.8 119.27 C46.95 118.44, 36.17 115.7, 28.17 110.6 C20.17 105.49, 13.6 96.99, 8.82 88.64 C4.03 80.29, -0.11 69.87, -0.52 60.5 C-0.93 51.13, 1.79 40.57, 6.36 32.44 C10.94 24.3, 19.08 16.88, 26.92 11.71 C34.77 6.54, 42.18 2.2, 53.44 1.4 C64.7 0.6, 86.08 4.61, 94.47 6.93 C102.86 9.25, 104.37 14.23, 103.77 15.34 M61.26 -0.63 C70.6 -1.99, 82.83 0.56, 91.76 4.6 C100.69 8.64, 109.32 15.94, 114.83 23.6 C120.34 31.25, 123.49 41.27, 124.84 50.53 C126.2 59.79, 126.07 70.16, 122.95 79.16 C119.82 88.15, 113.11 98.16, 106.1 104.52 C99.09 110.88, 90.06 115.15, 80.89 117.3 C71.72 119.45, 60.54 119.04, 51.09 117.43 C41.64 115.82, 32 113.06, 24.2 107.64 C16.41 102.22, 8.09 93.41, 4.32 84.89 C0.55 76.38, 0.52 66.11, 1.57 56.55 C2.61 46.99, 5.81 35.35, 10.58 27.52 C15.35 19.69, 21.73 14.29, 30.17 9.58 C38.61 4.86, 55.91 0.65, 61.22 -0.75 C66.54 -2.14, 62.13 0.16, 62.08 1.22" stroke="#000000" stroke-width="1" fill="none"></path></g><g stroke-linecap="round" transform="translate(302.57149832589266 160.85710797991055) rotate(0 15.42859758649547 15.428575788225544)"><path d="M1.35 6.47 C1.35 6.47, 1.35 6.47, 1.35 6.47 M1.35 6.47 C1.35 6.47, 1.35 6.47, 1.35 6.47 M1.95 12.12 C3.5 8.84, 5.61 8.12, 11.83 0.11 M1.03 13.44 C4.46 9.49, 7.22 5.57, 11.67 0.75 M0.39 17.56 C7.55 11.33, 12.23 8.97, 14.32 4.64 M0.72 19.46 C6.74 13.59, 11.41 7.91, 14.96 3.79 M2.57 22.26 C7.33 17.08, 15.49 9.37, 23.58 0.28 M2.7 22.78 C10.61 13.64, 18.07 7.18, 22.96 1.33 M3.03 28.73 C8.96 21.24, 16.78 15, 24.86 4.74 M4.7 26.32 C9.79 20.85, 16.72 14.75, 23.76 3.45 M10.09 26.77 C15.87 22.5, 21.24 11.32, 28.15 7.37 M7.85 29.12 C14.3 21.56, 20.08 15.44, 27.6 7.35 M14.21 31.12 C15.79 24.8, 22.66 20.53, 30.6 10.89 M13.44 30.02 C17.09 26.46, 19.89 22.24, 30.98 9.94 M15.05 30.82 C19.29 26.97, 24.5 22.14, 30.24 14.05 M15.84 31.78 C20.42 28.44, 23.44 23.22, 31.17 16.21" stroke="#ced4da" stroke-width="0.5" fill="none"></path><path d="M11.83 1.23 C14.59 -0.15, 18.13 -0.88, 21.19 0.41 C24.25 1.7, 28.74 5.71, 30.19 8.97 C31.64 12.24, 30.83 16.84, 29.89 19.99 C28.95 23.15, 27.18 26.22, 24.56 27.88 C21.94 29.54, 17.55 30.15, 14.17 29.94 C10.79 29.73, 6.63 28.71, 4.28 26.62 C1.94 24.53, 0.57 20.81, 0.12 17.4 C-0.33 13.99, -0.77 9.1, 1.61 6.17 C3.98 3.24, 11.38 0.72, 14.39 -0.19 C17.39 -1.09, 19.59 0.58, 19.63 0.72 M13.68 0.72 C17.03 0.21, 21.1 0.53, 23.7 2.2 C26.3 3.87, 28.34 7.59, 29.26 10.73 C30.18 13.87, 30.46 17.8, 29.23 21.05 C28 24.3, 24.87 28.52, 21.89 30.22 C18.91 31.91, 14.69 32, 11.36 31.23 C8.02 30.45, 3.94 28.29, 1.89 25.57 C-0.16 22.85, -1.24 18.39, -0.93 14.91 C-0.61 11.42, 1.65 7.28, 3.76 4.65 C5.88 2.02, 10.33 0, 11.77 -0.89 C13.21 -1.77, 12.08 -1.26, 12.39 -0.66" stroke="#000000" stroke-width="1" fill="none"></path></g><g stroke-linecap="round" transform="translate(270.00004359654076 359.71429007393954) rotate(0 15.42859758649547 15.428575788225544)"><path d="M5.25 4.57 C5.25 4.57, 5.25 4.57, 5.25 4.57 M5.25 4.57 C5.25 4.57, 5.25 4.57, 5.25 4.57 M0.2 16.64 C7.62 10.26, 12.32 4.25, 15.56 0.4 M1.41 14.55 C4.75 10.83, 9.83 5.82, 15.52 -0.6 M1.79 19.9 C9.3 11.11, 16.05 7.57, 20 2.66 M1.83 20.6 C6.52 14.81, 12.17 9.69, 18.65 1.82 M3.44 23.59 C7.71 19.6, 15.55 14.32, 20.56 2.02 M4.57 23.58 C10.79 17.68, 16.72 8.34, 22.46 3.69 M5.39 28.09 C12.48 19.67, 18.07 14.29, 25.88 6.44 M7.49 27.82 C10.7 21.93, 16.52 17.05, 25.85 6.01 M10.93 30.29 C14.62 26.97, 16.8 22.47, 28.96 9.75 M9.09 29.36 C14.6 23.42, 20.63 17.06, 28.17 7.77 M11.41 32.68 C17.81 29.03, 21.2 21.65, 31.57 13.62 M13.37 32.73 C18.9 25.69, 25.91 16.78, 30.39 12.8 M19.83 32.28 C19.16 28.78, 22.06 28.16, 30.5 20.57 M18.4 32.62 C22.57 26.76, 27.2 22.85, 29.35 20.51" stroke="#ced4da" stroke-width="0.5" fill="none"></path><path d="M14.45 -0.06 C17.58 -0.27, 21.73 1.9, 24.31 4.01 C26.88 6.12, 29.25 9.43, 29.89 12.6 C30.53 15.76, 29.69 20.15, 28.15 23 C26.62 25.84, 23.59 28.54, 20.67 29.68 C17.75 30.81, 13.84 30.92, 10.63 29.8 C7.43 28.69, 3.27 25.85, 1.42 22.99 C-0.43 20.12, -1.08 15.67, -0.45 12.62 C0.17 9.57, 2.18 6.65, 5.15 4.69 C8.12 2.72, 14.96 1.32, 17.38 0.81 C19.8 0.31, 19.75 1.61, 19.68 1.65 M11.47 0.75 C14.41 -0.36, 17.9 -1.03, 20.9 0.16 C23.9 1.35, 28.01 4.8, 29.46 7.89 C30.91 10.97, 30.76 15.09, 29.6 18.65 C28.43 22.22, 25.33 27.23, 22.46 29.25 C19.59 31.27, 15.41 31.32, 12.38 30.75 C9.36 30.18, 6.57 28.26, 4.33 25.82 C2.1 23.39, -1.05 19.64, -1.02 16.14 C-1 12.64, 2.32 7.65, 4.47 4.82 C6.61 1.99, 10.73 -0.37, 11.83 -0.83 C12.93 -1.3, 10.86 1.79, 11.07 2.03" stroke="#000000" stroke-width="1" fill="none"></path></g><g stroke-linecap="round" transform="translate(321.1428833007808 359.9999346051893) rotate(0 15.42859758649547 15.428575788225544)"><path d="M3.25 6.8 C3.25 6.8, 3.25 6.8, 3.25 6.8 M3.25 6.8 C3.25 6.8, 3.25 6.8, 3.25 6.8 M1.61 18.26 C4.74 13.62, 8.24 8.2, 13.59 1.43 M-0.48 16.5 C5.1 12.12, 9.39 5.97, 12.59 2.54 M1.69 21.78 C3.52 18.24, 10.62 13.46, 18.97 2.14 M2.39 20.27 C7.34 15.2, 12.98 8.94, 18.12 2.1 M2.86 23.21 C11.67 18.06, 19.2 7.35, 22.09 3.18 M2.84 24.57 C9.19 18.43, 12.12 14.25, 23.77 1.98 M7.09 27.68 C12.85 19.08, 21.6 11.27, 27.67 3.16 M6.82 27.2 C11.55 22.12, 17.29 15.11, 27.24 3.48 M10.34 30.6 C15.29 24.41, 19.01 21.21, 30.61 7.06 M9.41 29.06 C16.18 22.36, 22.56 15.03, 28.63 6.62 M15.09 30.56 C20.26 25.36, 21.67 23.03, 33.38 11.31 M15.14 29.75 C21.82 23.01, 26.61 16.07, 32.56 8.82 M21.42 27.24 C24.24 23.43, 30.31 21.53, 33.65 16.75 M21.81 29.02 C23.54 26.09, 27.48 21.97, 33.58 14.84" stroke="#ced4da" stroke-width="0.5" fill="none"></path><path d="M11.17 0.03 C14.26 -1.05, 19.46 -0.54, 22.56 0.75 C25.66 2.05, 28.42 4.81, 29.79 7.79 C31.16 10.76, 31.68 15.26, 30.79 18.6 C29.89 21.95, 27.23 25.96, 24.42 27.84 C21.62 29.71, 17.37 30.16, 13.96 29.84 C10.55 29.51, 6.4 28.01, 3.97 25.89 C1.53 23.76, -0.57 20.29, -0.67 17.09 C-0.78 13.89, 0.9 9.56, 3.34 6.7 C5.78 3.84, 11.85 1.04, 13.97 -0.07 C16.08 -1.18, 16.21 -0.17, 16.03 0.04 M10.68 -0.58 C13.39 -1.76, 16.63 -0.43, 19.43 0.88 C22.23 2.19, 25.82 4.62, 27.48 7.28 C29.14 9.94, 29.63 13.71, 29.4 16.85 C29.18 19.99, 28.49 23.76, 26.12 26.11 C23.76 28.46, 18.71 30.98, 15.22 30.97 C11.72 30.96, 7.68 28, 5.14 26.06 C2.61 24.12, 0.73 22.42, 0 19.33 C-0.73 16.23, -0.76 10.74, 0.76 7.51 C2.28 4.29, 7.26 0.92, 9.1 0 C10.93 -0.91, 11.69 1.57, 11.76 2" stroke="#000000" stroke-width="1" fill="none"></path></g><g stroke-linecap="round" transform="translate(184.28575788225453 266.5714154924665) rotate(0 15.42859758649547 15.428575788225544)"><path d="M5.97 3.87 C5.97 3.87, 5.97 3.87, 5.97 3.87 M5.97 3.87 C5.97 3.87, 5.97 3.87, 5.97 3.87 M3.53 14.79 C7.24 10.01, 10.29 6.36, 13.21 2.71 M2.03 14.2 C5.83 10.61, 8.13 8.01, 14.15 0.73 M3.5 17.85 C9.69 15.04, 14.65 9.02, 17.82 2.93 M1.99 20.33 C8.76 13.95, 14.34 6.95, 17.78 2.76 M2.6 25.71 C10.61 20.37, 13.07 10.88, 22.93 2.77 M3.96 25.54 C8.85 17.4, 15.71 11.57, 21.72 4.78 M6.72 26.43 C10.72 22.95, 15.51 18.59, 24.61 4.7 M6.23 27.09 C12.95 20.89, 17.74 15.18, 24.93 4.33 M10.78 31.14 C13.19 26.21, 18.58 21.64, 27.6 9.98 M9.24 29.9 C16.47 22.42, 23.07 14.01, 27.15 8.61 M15.37 31.74 C18.74 24.51, 24.99 21.44, 31.58 13.88 M14.56 30.91 C19.37 24.39, 23.98 20.15, 29.09 13.13 M18.84 29.06 C23.45 26.66, 30 21.43, 33.74 15.69 M20.62 29.05 C25.23 25.26, 28.64 21.51, 31.84 16.41" stroke="#ced4da" stroke-width="0.5" fill="none"></path><path d="M15.46 0.8 C18.56 0.81, 22.79 2.3, 25.17 4.45 C27.56 6.61, 29.32 10.53, 29.77 13.72 C30.22 16.92, 29.49 20.94, 27.87 23.62 C26.25 26.29, 23.25 28.88, 20.05 29.79 C16.84 30.69, 11.78 30.34, 8.64 29.02 C5.5 27.71, 2.56 24.58, 1.2 21.89 C-0.17 19.19, -0.33 15.84, 0.46 12.85 C1.25 9.85, 3.16 5.94, 5.92 3.93 C8.68 1.92, 14.99 1.43, 17.02 0.77 C19.06 0.12, 18.2 -0.02, 18.13 0.01 M12.3 -1.38 C15.44 -2.21, 20.97 -0.7, 23.86 1.18 C26.75 3.06, 28.92 6.35, 29.62 9.92 C30.33 13.48, 29.53 19.35, 28.1 22.57 C26.66 25.79, 23.69 27.98, 20.99 29.26 C18.29 30.53, 15.06 31.03, 11.89 30.21 C8.71 29.39, 3.68 27.23, 1.94 24.36 C0.2 21.5, 1.07 16.49, 1.46 13.02 C1.84 9.55, 2.35 5.45, 4.26 3.52 C6.16 1.58, 11.15 2.14, 12.88 1.4 C14.61 0.66, 14.4 -0.81, 14.62 -0.94" stroke="#000000" stroke-width="1" fill="none"></path></g><g stroke-linecap="round" transform="translate(183.14291817801313 229.71420288085938) rotate(0 15.42859758649547 15.428575788225544)"><path d="M4.41 5.16 C4.41 5.16, 4.41 5.16, 4.41 5.16 M4.41 5.16 C4.41 5.16, 4.41 5.16, 4.41 5.16 M1.75 16.68 C3.89 12.58, 7.38 8.02, 15.76 -1.21 M1.06 16.3 C3.81 12.01, 7.73 7.92, 13.43 0.63 M0.09 21.88 C7.45 16.72, 11.61 10.2, 19.58 2.02 M2.56 20.39 C6.12 16.44, 9.09 12.11, 19.41 0.64 M4.11 26.41 C10.9 16.82, 13.52 13, 22.54 1.57 M3.94 24.38 C10.49 16.29, 19.29 7.05, 24.55 0.17 M5.22 27.19 C11.22 22.44, 16.34 15.77, 25.72 4.11 M5.89 28.43 C13.42 19.31, 21.46 9.77, 25.35 3.6 M10.98 28.97 C17.4 22.52, 24.18 14, 29.22 9.08 M9.75 29.48 C14.04 24.77, 17.41 19.45, 27.86 7.47 M14.9 31.02 C16.61 28.27, 22.51 23.42, 32.77 10.11 M14.07 31.67 C18.97 24.59, 26.18 15.82, 32.02 10.68 M18.91 29.4 C25.57 26.91, 29.39 21.43, 30.94 17.2 M18.91 31.14 C22.91 26.81, 26.96 22.02, 31.65 16.45" stroke="#ced4da" stroke-width="0.5" fill="none"></path><path d="M13.54 -0.37 C16.69 -1.18, 20.81 -0.52, 23.6 1.13 C26.4 2.78, 29.28 6.28, 30.33 9.53 C31.38 12.77, 31.16 17.54, 29.91 20.59 C28.66 23.64, 25.79 26.24, 22.82 27.81 C19.84 29.39, 15.38 30.42, 12.06 30.03 C8.73 29.64, 4.76 27.9, 2.86 25.46 C0.96 23.02, 0.42 18.75, 0.66 15.39 C0.9 12.03, 1.87 7.9, 4.29 5.3 C6.71 2.69, 13.29 0.66, 15.2 -0.24 C17.1 -1.15, 15.92 -0.4, 15.71 -0.13 M11.98 0 C14.78 -0.46, 19.51 0.26, 22.34 1.82 C25.17 3.38, 27.6 6.32, 28.97 9.37 C30.35 12.42, 31.68 16.79, 30.61 20.1 C29.53 23.41, 25.64 27.69, 22.51 29.25 C19.38 30.8, 15.1 29.94, 11.84 29.43 C8.58 28.92, 5.17 28.67, 2.96 26.21 C0.76 23.75, -1.37 18.38, -1.4 14.69 C-1.42 11.01, 0.14 6.4, 2.83 4.12 C5.52 1.83, 13.21 1.54, 14.76 0.98 C16.32 0.41, 12.51 0.4, 12.15 0.71" stroke="#000000" stroke-width="1" fill="none"></path></g><g stroke-linecap="round" transform="translate(100.8572387695317 145.71430751255525) rotate(0 15.42859758649547 15.428575788225544)"><path d="M5.07 4.41 C5.07 4.41, 5.07 4.41, 5.07 4.41 M5.07 4.41 C5.07 4.41, 5.07 4.41, 5.07 4.41 M2.74 14.78 C6.76 9.85, 10.37 5.39, 12.04 0.45 M2.4 14.02 C5.53 10.53, 8.82 6.43, 13.7 0.56 M4.24 20.74 C8.54 15.54, 11.48 9.8, 18.44 1 M2.75 20.33 C8.6 13.08, 14.06 6.61, 17.06 2.68 M4.28 27.03 C6.15 18.28, 13.78 12.86, 21.96 5.5 M2.26 24.51 C7.03 20.88, 10.67 16.8, 20.56 3.26 M6.11 27.68 C13.3 20.64, 18.57 11.25, 25.46 6.41 M7.35 27.13 C13.79 19.7, 19.81 9.92, 24.95 5.63 M9.04 30.67 C16.31 23.71, 21.53 16.23, 29.41 6.95 M9.55 29.64 C14.53 23.24, 18.88 17.79, 27.8 7.75 M12.24 31.37 C19.65 26.79, 24.96 20.82, 29.52 13.62 M12.89 31.5 C18.91 25.59, 23.24 19.32, 30.09 13.44 M19.58 30.69 C24.62 26.83, 27.32 22.5, 29.85 18.81 M20.94 29.57 C24.07 26.17, 26.85 21.81, 29.26 18.87" stroke="#ced4da" stroke-width="0.5" fill="none"></path><path d="M14.25 0.48 C17.31 0.1, 21.35 1.7, 23.96 3.65 C26.56 5.6, 29.06 9.05, 29.89 12.16 C30.72 15.27, 30.56 19.5, 28.96 22.31 C27.35 25.12, 23.41 27.85, 20.27 29.02 C17.13 30.2, 13.07 30.15, 10.11 29.36 C7.14 28.58, 4.15 26.86, 2.48 24.3 C0.81 21.74, -0.29 17.28, 0.1 14 C0.5 10.73, 2.18 7.08, 4.86 4.66 C7.54 2.23, 14.09 0.24, 16.21 -0.56 C18.33 -1.36, 17.58 -0.45, 17.58 -0.13 M16.98 -1.32 C20.26 -1.13, 23.89 0.8, 25.96 3.58 C28.02 6.36, 29.26 11.86, 29.36 15.36 C29.47 18.85, 28.29 22.07, 26.6 24.55 C24.91 27.02, 22.39 29.45, 19.21 30.21 C16.04 30.96, 10.3 30.73, 7.56 29.07 C4.81 27.4, 3.89 23.43, 2.73 20.23 C1.57 17.03, 0.05 12.58, 0.6 9.86 C1.14 7.14, 3.11 5.76, 6 3.91 C8.89 2.06, 16.06 -0.5, 17.96 -1.25 C19.85 -2.01, 17.32 -1.3, 17.35 -0.63" stroke="#000000" stroke-width="1" fill="none"></path></g><g stroke-linecap="round" transform="translate(52.85718645368297 139.42855834960915) rotate(0 15.42859758649547 15.428575788225544)"><path d="M3.14 6.71 C3.14 6.71, 3.14 6.71, 3.14 6.71 M3.14 6.71 C3.14 6.71, 3.14 6.71, 3.14 6.71 M1.12 16.06 C6.11 9.63, 11.62 3.45, 12.8 0.66 M0.32 16.02 C3.81 12.25, 6.66 8.38, 12.91 1.16 M4.55 20.24 C9.62 12.73, 14.11 8.46, 16.5 3.34 M4.14 18.89 C6.73 14.83, 10.13 11.25, 18.17 0.93 M6.9 21.25 C7.83 19.11, 12.11 13.39, 24.87 -0.12 M4.38 23.16 C10.74 16.63, 16.68 9.21, 22.63 2.22 M7.39 27.04 C13.69 19.17, 17.62 13.67, 27.68 5.73 M6.84 27.01 C12.07 20.59, 14.94 15.55, 26.91 4.64 M10.77 30.38 C17.21 22.15, 23.16 16.03, 27.21 6.94 M9.74 29.58 C13.25 24.1, 17.71 19.24, 28 7.9 M13.17 32.4 C20.46 25.79, 26.4 17.39, 32.76 11.05 M13.31 31.21 C18.63 24.4, 23.61 20.23, 32.58 10.55 M22.68 29.31 C23.97 27.13, 24.82 24.44, 30 19.31 M21.65 28.37 C24.84 24.62, 27.13 21.77, 30.05 17.73" stroke="#ced4da" stroke-width="0.5" fill="none"></path><path d="M11.73 -0.37 C14.63 -1.41, 19.26 -0.75, 22.19 0.75 C25.12 2.25, 28 5.71, 29.31 8.63 C30.62 11.55, 30.98 15.15, 30.05 18.27 C29.12 21.4, 26.49 25.26, 23.73 27.37 C20.97 29.48, 16.58 31.08, 13.51 30.93 C10.44 30.77, 7.44 28.79, 5.31 26.42 C3.18 24.06, 1.08 20.06, 0.76 16.74 C0.43 13.41, 1.42 9.29, 3.36 6.46 C5.3 3.62, 10.61 0.79, 12.4 -0.27 C14.19 -1.33, 14 -0.26, 14.1 0.1 M6.89 1.13 C9.64 -0.72, 13.97 -1.7, 17.59 -1.09 C21.21 -0.49, 26.4 1.88, 28.61 4.77 C30.82 7.65, 31.18 12.88, 30.84 16.22 C30.5 19.55, 28.86 22.15, 26.6 24.8 C24.33 27.46, 20.72 31.55, 17.24 32.15 C13.76 32.75, 8.69 30.58, 5.73 28.42 C2.76 26.26, 0 22.22, -0.54 19.21 C-1.08 16.2, 1.23 13.24, 2.48 10.37 C3.73 7.51, 6.14 3.22, 6.96 2.02 C7.78 0.82, 6.89 3.06, 7.42 3.18" stroke="#000000" stroke-width="1" fill="none"></path></g><g stroke-linecap="round" transform="translate(191.4286150251114 63.71427263532337) rotate(0 15.42859758649547 15.428575788225544)"><path d="M2.49 7.46 C2.49 7.46, 2.49 7.46, 2.49 7.46 M2.49 7.46 C2.49 7.46, 2.49 7.46, 2.49 7.46 M0.95 16.84 C4.03 12.85, 7.37 5.66, 12.36 0.89 M0.91 15.9 C4.72 11.1, 8.44 6.6, 12.85 2.1 M3.46 21.41 C4.87 17.15, 9.54 11.06, 19.01 1.23 M2.11 20.56 C7.3 14.23, 12.98 7.29, 16.59 2.26 M2.7 22.27 C11.86 14.77, 17.46 10.43, 20.17 3.42 M4.61 23.94 C11.64 16.23, 17.77 6.83, 22.51 3.17 M6.06 28.96 C9.76 21.37, 15.82 17.57, 26.42 4.56 M6.03 28.53 C10.4 20.42, 16.17 15.6, 25.32 6.32 M10.45 30.75 C16.47 22.34, 24.59 12.55, 27.27 7.16 M9.65 28.78 C14.93 22.29, 20.82 15.88, 28.22 8.74 M16.34 30.86 C22.53 24, 26.91 16.81, 31.77 10.45 M15.15 30.04 C19.88 23.39, 27.25 16.86, 31.27 10.18 M23.14 28.75 C25.67 24.42, 27.57 21.52, 33.41 16.15 M21.99 28.69 C23.38 25.64, 25.88 22.66, 31.46 15.76" stroke="#ced4da" stroke-width="0.5" fill="none"></path><path d="M20.45 1.6 C23.42 2.55, 26.87 5.52, 28.52 8.34 C30.17 11.16, 31.15 15.39, 30.36 18.5 C29.58 21.61, 26.51 25.08, 23.8 27.01 C21.09 28.94, 17.22 30.02, 14.1 30.09 C10.98 30.16, 7.41 29.43, 5.07 27.42 C2.74 25.42, 0.56 21.34, 0.08 18.06 C-0.39 14.79, 0.48 10.75, 2.23 7.75 C3.98 4.76, 7.28 1.22, 10.58 0.1 C13.88 -1.02, 19.94 0.68, 22.05 1.05 C24.15 1.43, 23.22 2.16, 23.21 2.34 M7.53 0.65 C9.98 -0.62, 14 0.39, 17.13 1.27 C20.26 2.14, 23.98 3.48, 26.29 5.89 C28.59 8.3, 31.03 12.44, 30.96 15.71 C30.89 18.98, 27.86 23.25, 25.88 25.52 C23.89 27.78, 22.15 28.99, 19.05 29.29 C15.95 29.58, 10.46 28.58, 7.27 27.29 C4.09 26, 0.8 24.7, -0.09 21.55 C-0.97 18.39, 0.54 11.81, 1.96 8.35 C3.37 4.89, 7.17 1.65, 8.42 0.8 C9.67 -0.06, 9.44 2.64, 9.45 3.23" stroke="#000000" stroke-width="1" fill="none"></path></g><g stroke-linecap="round" transform="translate(192.85718645368297 17.999986921038044) rotate(0 15.42859758649547 15.428575788225544)"><path d="M1.71 6.79 C1.71 6.79, 1.71 6.79, 1.71 6.79 M1.71 6.79 C1.71 6.79, 1.71 6.79, 1.71 6.79 M2.06 12.83 C6.71 7.56, 8.66 3.97, 11.19 1.41 M1.26 13.72 C5.24 8.64, 9.47 3.64, 12.22 0.38 M3.65 17.98 C8.53 13.03, 11.59 7.2, 15.27 2.76 M2.8 17.94 C7.36 12.84, 11.32 7.07, 16.3 2.04 M2.84 23.55 C9.06 15.52, 18.48 5.59, 22.08 3.78 M4.52 22.34 C8.95 16.73, 11.68 13.35, 21.83 1.45 M7.1 25.03 C10.42 20.15, 17.53 15.76, 23.62 4.25 M6.67 25.35 C11.94 17.52, 20.5 10.42, 25.38 5.12 M10.7 28.18 C14.94 23.84, 17.81 16, 26.61 7.25 M8.73 27.74 C14.03 21.9, 19.42 16.21, 28.19 7.86 M14.12 31.67 C19.33 24.05, 24.19 19.3, 30.29 11.17 M13.3 29.18 C19.39 23.82, 25.58 17.14, 30.03 9.3 M17.76 33.5 C19.99 28.01, 24.03 24.74, 32.19 12.97 M17.68 31.38 C23.08 24.78, 28.56 17.44, 31.7 14.76" stroke="#ced4da" stroke-width="0.5" fill="none"></path><path d="M11.22 0.08 C14.08 -0.91, 18.41 -0.14, 21.34 1.07 C24.27 2.29, 27.39 4.5, 28.8 7.36 C30.21 10.21, 30.58 14.8, 29.79 18.21 C29 21.61, 26.45 25.7, 24.05 27.8 C21.65 29.9, 18.45 31.01, 15.39 30.8 C12.32 30.59, 8.1 28.84, 5.67 26.57 C3.23 24.29, 1.43 20.46, 0.8 17.14 C0.16 13.82, -0.15 9.52, 1.84 6.65 C3.83 3.77, 10.4 0.93, 12.73 -0.09 C15.05 -1.1, 15.78 0.41, 15.77 0.54 M13.59 -1.45 C17.11 -1.89, 22.96 -0.35, 25.78 1.93 C28.59 4.21, 29.97 8.95, 30.49 12.22 C31.01 15.48, 30.46 18.37, 28.9 21.52 C27.34 24.67, 24.37 29.68, 21.12 31.11 C17.86 32.55, 12.69 31.5, 9.36 30.12 C6.03 28.74, 2.47 25.49, 1.15 22.85 C-0.17 20.2, 1.02 17.34, 1.44 14.25 C1.86 11.16, 1.62 6.49, 3.67 4.32 C5.72 2.14, 11.7 1.9, 13.74 1.18 C15.78 0.46, 15.54 -0.02, 15.91 -0.02" stroke="#000000" stroke-width="1" fill="none"></path></g><g stroke-linecap="round" transform="translate(338.5714721679683 155.14284406389493) rotate(0 15.42859758649547 15.428575788225544)"><path d="M0.95 8.78 C0.95 8.78, 0.95 8.78, 0.95 8.78 M0.95 8.78 C0.95 8.78, 0.95 8.78, 0.95 8.78 M0.33 16.59 C2.75 10.89, 6.87 6.86, 11.49 4.65 M1.22 14.73 C3.41 11.94, 5.7 9.73, 10.45 3.76 M0.99 21.42 C8.8 11.44, 15.77 4.23, 20.08 0.78 M0.95 21.25 C7.94 12.7, 14.28 4.38, 19.37 1.09 M4.79 22.77 C11.5 17.48, 16.29 7.75, 23.76 1.62 M3.58 24.78 C7 18.36, 12.66 13.93, 21.43 2.79 M4.5 26.97 C12.18 21.19, 20.35 10.97, 25.29 6.33 M4.82 26.6 C11.28 20.83, 18.47 13.6, 26.15 4.62 M8.79 30.73 C17.29 20.31, 22.29 12.22, 29.33 6.55 M8.35 29.37 C14.76 22.55, 21.32 16.42, 29.95 6.58 M14.75 32.38 C17.15 27.21, 22.43 20.48, 31.68 12.09 M12.26 31.63 C17.28 27.68, 20.99 21.45, 29.81 11.18 M19.69 31.11 C23.5 25.61, 29.54 20.32, 29.64 18.41 M17.57 31.9 C21.7 26.86, 25.09 22.2, 31.43 16.71" stroke="#ced4da" stroke-width="0.5" fill="none"></path><path d="M18.36 0.39 C21.6 0.8, 25.77 3.34, 27.69 5.88 C29.6 8.42, 30.13 12.39, 29.86 15.62 C29.59 18.85, 28.15 22.63, 26.06 25.26 C23.98 27.89, 20.53 30.79, 17.34 31.41 C14.15 32.04, 9.73 30.82, 6.91 29 C4.1 27.19, 1.42 23.91, 0.43 20.53 C-0.55 17.15, -0.28 11.99, 0.99 8.73 C2.26 5.47, 4.84 2.34, 8.03 0.97 C11.22 -0.39, 17.84 0.6, 20.13 0.55 C22.42 0.5, 21.98 0.37, 21.77 0.65 M6.96 2.62 C9.56 1.22, 14.14 -0.16, 17.62 0.39 C21.11 0.94, 25.83 3.33, 27.86 5.93 C29.89 8.54, 29.74 12.93, 29.78 16.03 C29.83 19.13, 30.22 22.29, 28.14 24.54 C26.06 26.78, 20.95 28.63, 17.29 29.49 C13.63 30.35, 8.8 31.49, 6.17 29.68 C3.54 27.86, 2.3 22.15, 1.53 18.6 C0.75 15.05, 0.16 11, 1.5 8.37 C2.84 5.74, 8.47 3.69, 9.59 2.81 C10.71 1.93, 8.36 3.04, 8.22 3.09" stroke="#000000" stroke-width="1" fill="none"></path></g><g stroke-linecap="round" transform="translate(440.00004359654076 62.28570120675181) rotate(0 15.42859758649547 15.428575788225544)"><path d="M0.26 9.51 C0.26 9.51, 0.26 9.51, 0.26 9.51 M0.26 9.51 C0.26 9.51, 0.26 9.51, 0.26 9.51 M1.42 14.75 C3 11.56, 6.26 8.1, 12.05 2.83 M-0.44 16.22 C3.51 11.49, 8.04 6.2, 11.16 4.34 M1.66 22.22 C5.95 14.84, 13.03 6.26, 19.76 1.39 M1.49 20.84 C6.57 13.71, 11.9 8.11, 20.08 0.62 M2.65 24.03 C9.75 16.8, 12.41 16, 21 1.07 M4.66 22.63 C9.31 16.94, 15.96 9.15, 22.17 2.63 M5.83 26.57 C13.35 21.69, 16.45 13.53, 26.86 5.21 M5.46 26.06 C12.5 20.69, 18.1 14.54, 25.14 5.44 M9.99 30.79 C14.44 20.98, 21.25 14.32, 28.89 6.84 M8.62 29.18 C14.72 22.99, 21.48 16.95, 28.91 6.35 M14.85 30.31 C20.98 23.87, 25.56 17.45, 30.59 10.2 M14.1 30.87 C20.28 24.33, 24.18 17.23, 29.68 12.46 M18.26 31.36 C23.11 26.88, 28.15 18.65, 32.23 17.3 M18.98 30.61 C22.55 25.54, 26.47 21.8, 30.69 17.95" stroke="#ced4da" stroke-width="0.5" fill="none"></path><path d="M8.42 1.56 C11.01 -0.1, 15.48 -1.24, 18.59 -0.58 C21.7 0.09, 25.15 2.74, 27.07 5.57 C28.98 8.39, 30.04 12.98, 30.09 16.37 C30.13 19.76, 29.38 23.56, 27.36 25.92 C25.34 28.28, 21.25 30.17, 17.97 30.53 C14.69 30.89, 10.66 29.94, 7.68 28.09 C4.69 26.24, 1.26 22.61, 0.07 19.45 C-1.11 16.3, -1.12 12.23, 0.56 9.16 C2.25 6.09, 8.35 2.64, 10.2 1.04 C12.05 -0.55, 11.55 -0.46, 11.67 -0.41 M13.22 -0.95 C16.45 -1.52, 20 0.35, 22.72 1.95 C25.45 3.55, 28.36 5.37, 29.55 8.65 C30.74 11.94, 31.12 18.37, 29.88 21.68 C28.65 24.99, 25.13 27.17, 22.14 28.53 C19.15 29.89, 14.79 30.17, 11.97 29.84 C9.15 29.51, 7.45 28.83, 5.23 26.56 C3.01 24.28, -0.85 19.43, -1.34 16.18 C-1.83 12.93, -0.18 9.75, 2.28 7.05 C4.73 4.35, 11.54 1.12, 13.41 -0.02 C15.27 -1.15, 13.61 0.03, 13.48 0.25" stroke="#000000" stroke-width="1" fill="none"></path></g><g stroke-linecap="round" transform="translate(434.28575788225453 15.142844063894927) rotate(0 15.42859758649547 15.428575788225544)"><path d="M0.91 8.74 C0.91 8.74, 0.91 8.74, 0.91 8.74 M0.91 8.74 C0.91 8.74, 0.91 8.74, 0.91 8.74 M-0.44 14.68 C3.71 10.52, 7.6 8.85, 9.55 4.85 M0.94 14.77 C3.39 12.32, 5.32 9.57, 10.97 4.38 M2.47 18.92 C9.33 11.78, 15 6.5, 20.48 0.69 M1.09 20.59 C6.46 13.34, 13.34 7.9, 19.71 -0.41 M4.01 25.68 C5.79 19.39, 14.02 12.71, 21.22 2.83 M2.62 23.44 C10.14 16.72, 15.57 9.3, 22.78 2.29 M5.55 28.85 C14.35 18.14, 19.86 12.72, 25.75 4.89 M5.04 28.08 C13.65 19.66, 21.43 10.41, 25.98 5.27 M10.16 28.64 C15.22 20.44, 23.43 13.22, 29.19 6.66 M8.54 29.43 C13.38 25.57, 18.37 20.11, 28.69 7.59 M12.89 32.29 C19.49 23.77, 26.13 18.13, 28.71 12.57 M13.46 32.1 C18.65 24.32, 23.25 18.79, 30.97 12.59 M18.62 31.36 C24.04 26.69, 25.31 23.21, 31.22 17.4 M17.79 31.45 C22.25 25.63, 28.18 20.43, 31.94 16.41" stroke="#ced4da" stroke-width="0.5" fill="none"></path><path d="M18.42 -0.01 C21.47 0.31, 24.57 2.63, 26.54 5.15 C28.52 7.67, 30.17 11.58, 30.26 15.11 C30.35 18.64, 29.18 23.62, 27.08 26.33 C24.98 29.04, 20.97 30.89, 17.64 31.37 C14.32 31.86, 9.98 31.18, 7.13 29.24 C4.27 27.29, 1.61 23.06, 0.52 19.7 C-0.56 16.34, -0.61 12.1, 0.62 9.08 C1.84 6.06, 4.74 3.2, 7.87 1.6 C11 0, 17.58 -0.37, 19.39 -0.5 C21.2 -0.62, 18.99 0.5, 18.74 0.85 M8.24 1.18 C11.32 -0.4, 16.97 -0.46, 20.16 0.5 C23.35 1.46, 25.38 4.34, 27.38 6.92 C29.38 9.51, 32.41 12.91, 32.15 16.01 C31.9 19.11, 28.66 22.85, 25.85 25.54 C23.03 28.23, 18.42 32.02, 15.26 32.15 C12.11 32.28, 9.34 28.73, 6.9 26.34 C4.46 23.94, 1.31 20.57, 0.65 17.76 C-0.02 14.94, 1.48 12.02, 2.9 9.45 C4.32 6.88, 8.11 3.64, 9.17 2.32 C10.23 1, 9.18 1.24, 9.25 1.52" stroke="#000000" stroke-width="1" fill="none"></path></g><g stroke-linecap="round" transform="translate(433.4286499023442 224.8571995326447) rotate(0 15.42859758649547 15.428575788225544)"><path d="M2.26 7.26 C2.26 7.26, 2.26 7.26, 2.26 7.26 M2.26 7.26 C2.26 7.26, 2.26 7.26, 2.26 7.26 M-0.55 15.56 C2.47 12.39, 8.66 6.86, 13.8 1.13 M-0.43 16.05 C4.99 9.76, 10.02 5.98, 13.2 2.13 M0.53 21.26 C5.12 15.36, 11.58 10.68, 17.77 2.55 M2.2 18.84 C6 14.9, 11.62 10.31, 16.67 1.26 M5.62 21.57 C11.15 17.57, 16.29 6.66, 23.03 2.92 M3.38 23.91 C9.64 16.58, 15.2 10.7, 22.48 2.9 M7.12 28.93 C9.16 22.08, 16.5 17.28, 25.47 6.44 M6.34 27.83 C10.41 23.83, 13.61 19.15, 25.86 5.49 M7.96 28.63 C13.56 23.18, 20.14 16.77, 27.74 6.58 M8.75 29.58 C14.53 24.93, 18.71 18.37, 28.67 8.74 M14.82 31.23 C19.5 24.6, 27.05 14.22, 31.79 11.01 M14.64 30.73 C16.38 25.97, 20.4 23.06, 31.8 11.34 M17.21 34 C23.39 24.21, 30.75 19.28, 33.43 16.56 M17.3 31.57 C20.78 28.43, 24.89 24.76, 32.45 15.65" stroke="#ced4da" stroke-width="0.5" fill="none"></path><path d="M10.38 -0.23 C13.2 -1.46, 17.57 -0.88, 20.56 0.55 C23.55 1.98, 26.55 5.33, 28.32 8.34 C30.09 11.36, 31.63 15.47, 31.17 18.64 C30.71 21.82, 28.18 25.41, 25.57 27.4 C22.96 29.39, 19.03 30.75, 15.51 30.58 C11.99 30.41, 7.15 28.61, 4.47 26.39 C1.8 24.18, -0.13 20.47, -0.53 17.31 C-0.92 14.15, 0.12 10.43, 2.11 7.43 C4.11 4.43, 9.44 0.65, 11.43 -0.68 C13.42 -2.02, 13.91 -0.86, 14.06 -0.58 M8.21 1.91 C10.7 0.3, 15.26 -1.62, 18.46 -0.71 C21.66 0.2, 25.57 4.6, 27.4 7.38 C29.23 10.16, 29.73 13.05, 29.43 15.98 C29.14 18.9, 27.39 22.32, 25.62 24.92 C23.86 27.51, 22.14 30.92, 18.85 31.56 C15.57 32.2, 9.07 30.48, 5.88 28.77 C2.7 27.07, 0.32 24.58, -0.28 21.34 C-0.89 18.09, 0.66 12.6, 2.26 9.28 C3.87 5.96, 8.32 2.71, 9.35 1.42 C10.37 0.13, 8.24 1.5, 8.41 1.54" stroke="#000000" stroke-width="1" fill="none"></path></g><g stroke-linecap="round" transform="translate(432.0000784737722 264.2857360839844) rotate(0 15.42859758649547 15.428575788225544)"><path d="M5.87 2.45 C5.87 2.45, 5.87 2.45, 5.87 2.45 M5.87 2.45 C5.87 2.45, 5.87 2.45, 5.87 2.45 M0.65 13.23 C6.32 10.44, 9.61 4.33, 13.02 1.05 M1.14 14.45 C3.13 11.48, 7.65 7.9, 14.03 -0.25 M4.02 17.35 C8.22 13.76, 13.64 7.98, 17.76 1.39 M1.6 18.38 C7.81 13.74, 13.38 6.32, 16.47 2.33 M1.24 24.07 C9.2 17.49, 10.25 14.65, 22.1 3.04 M3.59 23.82 C9.48 16.2, 16.8 8.91, 22.08 2.12 M7.5 25.21 C11.26 21.7, 17.07 14.18, 27.33 1.91 M6.4 26.97 C10.94 21.53, 14.8 17.63, 26.37 3.88 M8.35 27.81 C15.39 21.9, 21.5 14.89, 26.45 6.33 M9.3 29.39 C14.11 24.33, 17.02 20.63, 28.61 8.07 M12.85 31.1 C19.92 24.9, 23.25 18.22, 29.96 9.6 M12.35 30.83 C17.57 24.37, 24.64 19.07, 30.3 12.18 M18.73 32.3 C19.59 29.28, 25.31 23.59, 33.74 13.64 M16.31 31.82 C22.26 26.69, 27.68 20.82, 32.83 14.07" stroke="#ced4da" stroke-width="0.5" fill="none"></path><path d="M14.3 -0.7 C17.35 -0.99, 21.9 0.43, 24.63 2.76 C27.37 5.08, 30.01 9.77, 30.71 13.26 C31.41 16.74, 30.51 20.81, 28.83 23.69 C27.15 26.57, 23.77 29.59, 20.64 30.54 C17.5 31.49, 13.19 30.71, 10.03 29.39 C6.87 28.06, 3.35 25.4, 1.68 22.61 C0 19.82, -0.67 15.96, -0.01 12.65 C0.64 9.34, 3.01 4.87, 5.61 2.75 C8.2 0.64, 13.69 0.4, 15.56 -0.04 C17.43 -0.49, 16.8 -0.03, 16.82 0.08 M20.3 0.54 C23.38 1.29, 25.48 4.44, 27.45 7.04 C29.43 9.64, 32.42 13.05, 32.13 16.15 C31.85 19.25, 28.58 22.96, 25.74 25.63 C22.91 28.3, 18.28 32.05, 15.12 32.15 C11.97 32.26, 9.21 28.67, 6.79 26.25 C4.37 23.83, 1.25 20.44, 0.62 17.62 C-0.02 14.8, 1.52 11.88, 2.97 9.32 C4.41 6.77, 6.49 3.68, 9.3 2.26 C12.1 0.84, 18.1 0.77, 19.81 0.8 C21.52 0.84, 19.83 2.03, 19.56 2.45" stroke="#000000" stroke-width="1" fill="none"></path></g><g stroke-linecap="round" transform="translate(534.2857578822545 145.14284406389493) rotate(0 15.42859758649547 15.428575788225544)"><path d="M3.81 3.31 C3.81 3.31, 3.81 3.31, 3.81 3.31 M3.81 3.31 C3.81 3.31, 3.81 3.31, 3.81 3.31 M-1.29 14.59 C4.33 9.81, 6.63 7.27, 13.33 -1.16 M-0.07 13.37 C4.7 9.95, 8.85 5.03, 12.03 0.19 M-1.01 20.41 C7.01 13.97, 12.81 6.12, 16.14 1.88 M0.02 19.7 C6.14 14.64, 9.47 7.49, 17.08 0.3 M1.87 25.96 C6.18 15.99, 14.25 10.83, 20.34 4.05 M1.62 23.63 C5.66 19.59, 10.02 15.16, 19.42 2.58 M4.06 25.68 C12.14 19.73, 16.22 14.62, 22.43 2.04 M5.82 26.54 C9.27 21.4, 14.27 16.46, 24.4 4.26 M7.06 28.67 C15.33 20.59, 22.48 10.73, 26.48 4.96 M8.64 29.29 C13.59 22.01, 19.88 16.84, 28.23 7.15 M10.74 32.6 C17.02 23.51, 22.84 18.95, 27.99 10.62 M10.48 30.73 C16.87 24.84, 24.45 17.39, 30.57 9.72 M17.23 29.11 C23.83 24.96, 27.77 20.8, 31.01 13.84 M16.74 30.9 C21.27 26.92, 25.06 22.14, 31.45 14.03 M23.25 29.65 C26.26 26.23, 28.57 22.25, 31.07 20.85 M22.37 30.98 C24.39 27.8, 26.98 25.97, 32.38 20.25" stroke="#ced4da" stroke-width="0.5" fill="none"></path><path d="M13.86 -0.57 C16.91 -0.76, 21.04 1.11, 23.91 3.18 C26.79 5.25, 30.11 8.69, 31.11 11.85 C32.1 15.02, 31.37 19.24, 29.89 22.16 C28.4 25.07, 25.44 28.07, 22.18 29.34 C18.93 30.6, 13.77 30.68, 10.38 29.73 C7 28.79, 3.61 26.32, 1.85 23.67 C0.1 21.02, -0.49 17.24, -0.15 13.83 C0.19 10.42, 1.19 5.66, 3.9 3.21 C6.61 0.75, 13.86 -0.34, 16.1 -0.92 C18.34 -1.51, 17.51 -0.82, 17.35 -0.3 M8.88 0.31 C11.63 -0.94, 16.43 0.93, 19.41 2 C22.39 3.07, 25.08 4.37, 26.77 6.72 C28.45 9.07, 29.4 12.68, 29.53 16.11 C29.65 19.55, 29.89 24.83, 27.51 27.33 C25.12 29.82, 18.92 30.79, 15.23 31.09 C11.55 31.39, 7.66 31.15, 5.39 29.12 C3.12 27.09, 2.06 22.35, 1.6 18.89 C1.15 15.43, 1.41 11.37, 2.67 8.36 C3.92 5.35, 7.81 2.21, 9.14 0.84 C10.46 -0.53, 10.34 0.04, 10.62 0.15" stroke="#000000" stroke-width="1" fill="none"></path></g><g stroke-linecap="round" transform="translate(577.1429007393976 135.14284406389493) rotate(0 15.42859758649547 15.428575788225544)"><path d="M2.87 5.14 C2.87 5.14, 2.87 5.14, 2.87 5.14 M2.87 5.14 C2.87 5.14, 2.87 5.14, 2.87 5.14 M0.34 16.4 C2.18 12.06, 6.27 8.15, 11.39 0.97 M-0.89 15.35 C3.7 11.62, 6.77 7.26, 12.74 0.9 M4.29 17.52 C7.42 14.31, 9.15 10.47, 17.64 1.42 M3.57 17.84 C7.91 12, 10.14 9.03, 16.07 1.64 M6.66 19.87 C9.84 14.77, 17.84 7.37, 22.28 0.88 M4.32 21.05 C8.71 17.04, 12.69 12.07, 20.81 2.34 M4.9 28.36 C12.44 18.8, 20.85 8.55, 22.83 2.86 M5.76 26.64 C12.54 19.24, 19.53 10.84, 25.05 5 M8.94 28.58 C13.04 24.12, 15.36 18.55, 25.48 7.21 M9.56 28.61 C12.49 24.81, 17.52 19.99, 27.68 7.58 M13.92 31.1 C17.13 24.54, 24.87 14.68, 30.79 11 M12.05 30.19 C19.99 24.01, 26.38 16.05, 29.88 10.58 M17.13 31.38 C22.56 25.86, 28 19.32, 32.99 13.07 M18.92 29.68 C23.47 25.01, 27.22 19.98, 33.18 14.43" stroke="#ced4da" stroke-width="0.5" fill="none"></path><path d="M12.32 -0.54 C15.57 -1.02, 20.46 0.89, 23.4 2.81 C26.34 4.73, 28.9 7.87, 29.94 10.99 C30.98 14.11, 30.85 18.65, 29.65 21.53 C28.45 24.41, 25.65 26.88, 22.73 28.28 C19.81 29.68, 15.36 30.47, 12.12 29.92 C8.88 29.37, 5.27 27.57, 3.28 24.96 C1.3 22.36, 0.31 17.58, 0.22 14.3 C0.13 11.03, 0.45 7.75, 2.73 5.3 C5.02 2.85, 11.7 0.58, 13.91 -0.4 C16.13 -1.38, 15.73 -0.79, 16 -0.6 M14.37 -0.2 C17.73 -0.6, 24.06 0.24, 26.76 2.19 C29.47 4.14, 30.41 7.78, 30.6 11.49 C30.8 15.19, 29.45 21.59, 27.94 24.44 C26.43 27.29, 24.48 27.84, 21.57 28.58 C18.65 29.32, 13.49 29.62, 10.44 28.9 C7.38 28.18, 5 26.78, 3.24 24.28 C1.48 21.78, -0.42 17.33, -0.11 13.9 C0.21 10.46, 2.63 5.75, 5.13 3.67 C7.63 1.59, 13.43 1.78, 14.89 1.41 C16.36 1.03, 14.05 1.42, 13.92 1.43" stroke="#000000" stroke-width="1" fill="none"></path></g><g stroke-linecap="round" transform="translate(454.28575788225453 425.1428440638949) rotate(0 15.42859758649547 15.428575788225544)"><path d="M0.96 8.79 C0.96 8.79, 0.96 8.79, 0.96 8.79 M0.96 8.79 C0.96 8.79, 0.96 8.79, 0.96 8.79 M1.49 15 C3.89 12.38, 6.62 8.72, 10.48 3.89 M0.67 16.42 C3.65 12.91, 6.14 9.16, 10.42 3.92 M1.43 22.55 C7.52 14.43, 12.97 7.79, 16.27 3.09 M1.75 21.79 C4.22 15.65, 9.53 11.22, 16.49 4.23 M2.67 22.24 C8.31 19.69, 11.67 16.04, 20.26 1.63 M3.84 23.8 C10.3 17.04, 15.78 9.06, 21.72 3.73 M7.87 27.13 C13.61 20.31, 18.64 8.79, 24.04 6.02 M6.16 27.36 C12.96 20.12, 18.78 12.69, 26.19 4.18 M8.59 30.27 C14.17 22.39, 18.61 16.38, 28.69 5.35 M8.61 29.78 C16 23.12, 22.37 15.87, 29.06 7.32 M13.57 29.86 C20.07 24.47, 23.26 18.21, 31.56 12.6 M12.66 32.12 C19.92 25.33, 25.39 18.17, 31.14 10.81 M19.98 31.68 C24.21 27.28, 27.43 20.26, 31.3 15.46 M18.28 32.39 C21.03 28.85, 23.41 25.51, 32.66 14.87" stroke="#ced4da" stroke-width="0.5" fill="none"></path><path d="M7.45 1.91 C10.36 0.36, 15.84 -0.34, 19.32 0.3 C22.79 0.94, 26.25 3.16, 28.28 5.73 C30.31 8.3, 31.85 12.45, 31.52 15.72 C31.18 18.98, 28.73 22.84, 26.29 25.3 C23.85 27.76, 20.11 29.92, 16.89 30.49 C13.67 31.06, 9.83 30.6, 6.98 28.72 C4.13 26.84, 0.78 22.53, -0.21 19.2 C-1.2 15.86, -0.52 11.83, 1.05 8.69 C2.61 5.55, 7.68 1.54, 9.21 0.35 C10.73 -0.84, 10.18 1.18, 10.21 1.54 M15.81 1.44 C18.75 1.53, 22.09 2.13, 24.37 3.97 C26.64 5.81, 28.55 9.04, 29.46 12.46 C30.36 15.88, 31.57 21.5, 29.8 24.49 C28.02 27.48, 22.35 29.32, 18.81 30.39 C15.28 31.46, 11.23 32.23, 8.58 30.88 C5.93 29.54, 4.1 25.48, 2.91 22.3 C1.73 19.12, 0.96 15.07, 1.48 11.81 C2 8.54, 3.36 4.94, 6.01 2.72 C8.67 0.51, 15.56 -0.87, 17.41 -1.48 C19.26 -2.09, 17.37 -1.32, 17.11 -0.95" stroke="#000000" stroke-width="1" fill="none"></path></g><g stroke-linecap="round" transform="translate(450.00004359654076 453.71427263532337) rotate(0 15.42859758649547 15.428575788225544)"><path d="M0.97 7.47 C0.97 7.47, 0.97 7.47, 0.97 7.47 M0.97 7.47 C0.97 7.47, 0.97 7.47, 0.97 7.47 M-1.01 15.79 C2.44 12.4, 4.72 8.7, 10.38 2.02 M0.6 15.26 C4.38 10.21, 7.87 6.58, 10.42 2.62 M2.83 19.8 C4.87 15.46, 8.4 12.06, 15.82 1.23 M2.07 18.7 C3.89 15.99, 7.42 11.52, 16.96 1.22 M2.26 23.45 C9.34 17, 15.36 8.89, 19.74 3.46 M3.82 22.9 C9.3 16.35, 13.55 10.97, 21.84 3.19 M6.13 26.26 C11.66 19.22, 12.5 14.79, 25.28 5.66 M6.36 26.64 C12.56 19.06, 18.58 12.5, 23.44 4.73 M9.57 28.03 C11.88 22.48, 16.07 18.2, 25.76 8.05 M9.08 28.96 C15.51 22.39, 21.34 14.89, 27.73 8.1 M11.72 30.93 C17.65 22.96, 22.73 20.23, 31.89 10.74 M13.98 30.94 C17.17 26.84, 19.98 22.3, 30.1 11.17 M16.85 32.73 C22.93 25.48, 26.35 20.88, 30.91 13.57 M17.57 31.75 C21.27 26.71, 25.2 23.71, 30.33 15.04" stroke="#ced4da" stroke-width="0.5" fill="none"></path><path d="M10.28 1.59 C13.26 0.57, 17.63 0.48, 20.68 1.62 C23.73 2.75, 26.97 5.74, 28.58 8.4 C30.19 11.05, 30.97 14.5, 30.35 17.53 C29.73 20.56, 27.39 24.41, 24.87 26.59 C22.34 28.76, 18.39 30.65, 15.19 30.6 C12 30.55, 8.38 28.38, 5.72 26.28 C3.06 24.18, 0.01 21.17, -0.75 18.01 C-1.52 14.84, -0.65 10.33, 1.13 7.29 C2.91 4.25, 8.11 0.98, 9.92 -0.23 C11.72 -1.44, 11.75 -0.39, 11.96 0.02 M15.79 -1.38 C19.08 -1.96, 22.2 -0.7, 24.49 1.7 C26.78 4.1, 28.6 9.82, 29.55 13.01 C30.49 16.21, 31.4 18.28, 30.14 20.86 C28.88 23.44, 24.94 26.74, 21.97 28.5 C19 30.25, 15.61 31.94, 12.33 31.38 C9.05 30.83, 4.39 28.1, 2.29 25.18 C0.19 22.26, -0.61 17.1, -0.29 13.86 C0.03 10.61, 2 7.85, 4.19 5.73 C6.39 3.61, 11.38 2.06, 12.87 1.15 C14.36 0.24, 12.98 0.31, 13.11 0.26" stroke="#000000" stroke-width="1" fill="none"></path></g><g stroke-linecap="round" transform="translate(511.14288330078034 349.42855834960915) rotate(0 15.42859758649547 15.428575788225544)"><path d="M2.3 5.98 C2.3 5.98, 2.3 5.98, 2.3 5.98 M2.3 5.98 C2.3 5.98, 2.3 5.98, 2.3 5.98 M1.89 13.47 C5.28 8.91, 8.39 4.95, 12.11 1.63 M1.36 14.37 C2.91 11.39, 5.88 7.67, 12.71 0.34 M2.72 18.62 C7.4 12.71, 13.01 5.41, 15.94 0.14 M1.62 17.33 C8.15 11.24, 12.94 6.78, 15.93 1.5 M4.7 22.76 C11.85 15.03, 17.32 4.03, 23.46 0.84 M4.15 22.74 C8.35 16.26, 13.7 11.69, 23.19 0.36 M5.18 28.55 C8.94 18.28, 15.35 14.53, 26.06 4.51 M5.56 27.6 C12.69 18.64, 20.84 9.05, 25.13 2.97 M8.76 27.18 C14.02 20.26, 20.55 13.48, 28.84 6.73 M9.69 29.34 C17.16 20.97, 23.69 12.38, 28.89 5.92 M13.46 30.85 C17.56 23.65, 26.9 16.78, 31.26 7.75 M13.48 31.19 C18.19 24.86, 22.44 19.53, 31.7 9.73 M17.07 34.14 C18.21 29.31, 22.02 24.68, 29.6 14.64 M16.09 33.23 C20.26 27.7, 26.47 20.59, 31.07 15.67" stroke="#ced4da" stroke-width="0.5" fill="none"></path><path d="M11.59 0.63 C14.78 -0.53, 19.11 -0.24, 22.15 1.02 C25.2 2.27, 28.56 5.26, 29.85 8.17 C31.14 11.07, 30.83 15.22, 29.86 18.45 C28.89 21.67, 26.62 25.44, 24.03 27.54 C21.45 29.64, 17.7 31.36, 14.35 31.05 C11 30.75, 6.32 28.17, 3.94 25.72 C1.55 23.27, 0.34 19.6, 0.03 16.35 C-0.28 13.1, 0.3 8.77, 2.09 6.23 C3.87 3.68, 9.12 2.03, 10.72 1.09 C12.32 0.15, 11.44 0.47, 11.68 0.59 M8.72 0.92 C11.43 -0.72, 15.87 -1.2, 19.43 0.07 C22.99 1.34, 28.44 5.5, 30.09 8.55 C31.73 11.6, 30.24 15.05, 29.28 18.36 C28.32 21.67, 26.45 26.37, 24.33 28.4 C22.21 30.43, 19.52 30.77, 16.58 30.52 C13.63 30.26, 9.38 29.04, 6.66 26.89 C3.95 24.73, 0.83 21.04, 0.29 17.6 C-0.24 14.16, 1.64 9.23, 3.46 6.24 C5.29 3.25, 10.13 0.64, 11.25 -0.33 C12.36 -1.31, 10.37 -0.17, 10.16 0.41" stroke="#000000" stroke-width="1" fill="none"></path></g><g stroke-linecap="round" transform="translate(563.7143816266739 351.7143249511719) rotate(0 15.42859758649547 15.428575788225544)"><path d="M0.85 7.36 C0.85 7.36, 0.85 7.36, 0.85 7.36 M0.85 7.36 C0.85 7.36, 0.85 7.36, 0.85 7.36 M-0.46 15.57 C3.28 10.29, 7.55 5.08, 10.97 0.98 M0.39 14.47 C4.12 10.38, 7.15 5.97, 9.76 2.95 M1.58 19.13 C6.48 13.97, 10.01 7.46, 14.79 3.19 M0.3 20.07 C5.61 13.49, 12.6 5.91, 16.15 3.02 M3.96 23.04 C8.67 16.52, 10.1 14.39, 20.88 1.64 M3.94 22.12 C7.8 17.11, 13.59 12.34, 20.4 2.3 M6.56 24.93 C10.34 17.08, 20.65 10.69, 25.6 5.59 M5.61 26.9 C10.48 21.45, 14.73 14.29, 24.06 4.36 M5.68 29.35 C11.59 23.09, 17.64 17.14, 28.22 8.46 M7.84 31.09 C13.69 23.52, 19.31 17.48, 27.41 7.63 M12.47 28.85 C19.06 24.49, 25.96 17.4, 28.87 8.71 M12.81 31.43 C16.52 25.48, 21.23 20.75, 30.85 8.71 M18.88 29.87 C23.5 23.82, 28.31 16.25, 31.17 14.74 M17.97 30.3 C22.43 26.57, 25.33 20.41, 32.2 13.91" stroke="#ced4da" stroke-width="0.5" fill="none"></path><path d="M9.74 1.75 C12.53 0.42, 17.01 0.63, 20.11 1.47 C23.21 2.3, 26.63 4.18, 28.32 6.78 C30 9.37, 30.7 13.72, 30.22 17.04 C29.74 20.37, 27.79 24.59, 25.43 26.73 C23.07 28.87, 19.48 29.78, 16.05 29.89 C12.61 30.01, 7.62 29.38, 4.84 27.42 C2.06 25.45, -0.01 21.48, -0.63 18.09 C-1.26 14.7, -0.91 10.12, 1.08 7.09 C3.08 4.06, 9.55 0.94, 11.32 -0.1 C13.08 -1.14, 11.74 0.58, 11.69 0.85 M14.38 -1.22 C17.12 -1.17, 20.86 2.34, 23.68 4.28 C26.49 6.22, 30.28 7.58, 31.26 10.4 C32.24 13.22, 30.96 17.82, 29.55 21.2 C28.15 24.58, 25.95 28.97, 22.83 30.67 C19.7 32.37, 14.22 32.48, 10.79 31.38 C7.36 30.28, 4.11 26.77, 2.24 24.07 C0.36 21.37, -0.61 18.29, -0.44 15.18 C-0.27 12.07, 0.99 7.95, 3.25 5.42 C5.51 2.88, 11.4 0.92, 13.13 -0.05 C14.85 -1.01, 13.24 -0.45, 13.6 -0.37" stroke="#000000" stroke-width="1" fill="none"></path></g><g stroke-linecap="round" transform="translate(176.28579275948687 459.9999346051891) rotate(0 15.42859758649547 15.428575788225544)"><path d="M5.46 3.42 C5.46 3.42, 5.46 3.42, 5.46 3.42 M5.46 3.42 C5.46 3.42, 5.46 3.42, 5.46 3.42 M3.57 12 C5.43 9.44, 7.37 7.99, 11.04 2.76 M2.54 13.07 C6.6 7.97, 10.38 3.92, 12.9 1.64 M2.7 19.35 C8.86 11.35, 13.68 3.75, 19.2 2.43 M3.64 17.77 C9.39 12.47, 14.12 4.92, 19.03 0.4 M4.28 24.54 C6.79 16.81, 13.71 13.01, 21.62 1.69 M3.36 23.07 C10.06 16.84, 17 8.44, 22.29 2.94 M4.4 24.8 C11.12 20.55, 19.31 13.21, 27.38 3.47 M6.37 27.02 C13.93 17.89, 19.79 9.98, 26.15 3.98 M8.46 27.71 C15.1 20.99, 22.04 15.83, 31.3 5.53 M10.2 29.9 C14.32 23.78, 19.99 16.93, 30.47 6.18 M11.93 31.11 C18.19 27.68, 21.74 19.68, 29.98 9.84 M14.5 30.2 C20.28 22.83, 27.29 15.6, 29.98 11.78 M17.57 31.31 C22.15 25.62, 25.2 20.59, 32.83 15.25 M18.01 31.5 C24.58 23.93, 28.72 19.39, 32 15.02" stroke="#ced4da" stroke-width="0.5" fill="none"></path><path d="M16.99 -0.19 C20.14 -0.25, 24.48 1.7, 26.67 3.92 C28.86 6.15, 29.99 9.86, 30.16 13.15 C30.32 16.44, 29.42 20.79, 27.66 23.67 C25.9 26.55, 22.83 29.6, 19.62 30.42 C16.4 31.25, 11.38 30.12, 8.38 28.62 C5.37 27.12, 2.96 24.35, 1.56 21.43 C0.17 18.51, -0.61 14.06, 0 11.1 C0.61 8.15, 2.51 5.53, 5.23 3.69 C7.94 1.86, 14.16 0.65, 16.28 0.09 C18.4 -0.46, 17.97 0.14, 17.97 0.37 M21.23 0.85 C24.57 2.26, 29.69 7.06, 30.96 10.3 C32.22 13.54, 30.19 17.06, 28.82 20.27 C27.46 23.48, 25.12 27.88, 22.75 29.56 C20.39 31.25, 17.54 31.07, 14.62 30.4 C11.7 29.72, 7.67 27.99, 5.24 25.53 C2.82 23.08, 0.19 19.14, 0.07 15.65 C-0.04 12.17, 2.37 7.36, 4.55 4.61 C6.72 1.85, 10.15 -0.27, 13.13 -0.89 C16.1 -1.51, 20.98 0.28, 22.4 0.89 C23.82 1.49, 21.92 2.29, 21.63 2.75" stroke="#000000" stroke-width="1" fill="none"></path></g><g stroke-linecap="round" transform="translate(177.14290073939765 426.5714154924665) rotate(0 15.42859758649547 15.428575788225544)"><path d="M0.83 7.35 C0.83 7.35, 0.83 7.35, 0.83 7.35 M0.83 7.35 C0.83 7.35, 0.83 7.35, 0.83 7.35 M-1.09 15.21 C3.42 9.66, 9.25 2.76, 13.21 2.06 M0.18 15.14 C3.42 10.29, 7.93 4.91, 11.87 1.69 M1.83 19.47 C5.27 13.03, 9.11 9.64, 17.36 3.94 M0.25 19.69 C5.14 14.55, 7.76 12.67, 15.33 1.42 M4.49 21.2 C7.63 17.01, 14.7 8.61, 20.49 3.09 M3.02 22.65 C9.19 17.42, 13.21 10.5, 21.74 2.54 M3.08 25.43 C11.83 20.84, 17.51 14.86, 24.08 5.32 M5.3 27.58 C10.78 18.86, 17.5 11.72, 24.59 4.29 M5.73 29.79 C12.13 23.77, 20.05 18.15, 27.28 6.02 M7.93 30.16 C15.57 21.51, 22.5 12.96, 27.93 6.15 M13.01 31.32 C20.38 23.85, 23.18 15.38, 29.73 11.1 M12.1 30.89 C19.38 22.97, 26.82 13.06, 31.66 9.5 M17.83 30.36 C21.81 23.68, 26.48 20.03, 32.05 15.81 M18.02 31.72 C20.45 26.1, 25.94 21.07, 31.82 14.26" stroke="#ced4da" stroke-width="0.5" fill="none"></path><path d="M20.22 1.5 C23.22 2.13, 26.72 4.27, 28.38 6.88 C30.04 9.49, 30.71 13.84, 30.2 17.16 C29.69 20.48, 27.72 24.69, 25.34 26.81 C22.96 28.93, 19.36 29.81, 15.93 29.89 C12.5 29.98, 7.51 29.33, 4.74 27.34 C1.98 25.35, -0.06 21.37, -0.66 17.97 C-1.26 14.58, -0.72 9.95, 1.14 6.99 C3 4.02, 7.04 1.09, 10.51 0.18 C13.99 -0.73, 19.87 1.26, 21.98 1.54 C24.09 1.81, 23.28 1.43, 23.15 1.81 M7.58 2.98 C10.43 1.37, 16.35 -1.3, 19.76 -0.95 C23.17 -0.59, 25.99 2.07, 28.03 5.12 C30.07 8.17, 32.28 13.71, 32 17.37 C31.72 21.03, 28.88 24.86, 26.37 27.09 C23.85 29.33, 20.24 30.35, 16.92 30.8 C13.61 31.24, 9.45 31.4, 6.49 29.77 C3.53 28.15, 0.27 24.46, -0.82 21.05 C-1.91 17.64, -1.45 12.66, -0.04 9.31 C1.36 5.96, 6.05 2.38, 7.61 0.96 C9.18 -0.45, 8.99 0.23, 9.34 0.8" stroke="#000000" stroke-width="1" fill="none"></path></g><g stroke-linecap="round" transform="translate(103.7142944335933 353.1428963797432) rotate(0 15.5 17.5)"><path d="M4.68 4.06 C4.68 4.06, 4.68 4.06, 4.68 4.06 M4.68 4.06 C4.68 4.06, 4.68 4.06, 4.68 4.06 M0.57 14.82 C3.42 12.5, 4.87 9.48, 13.5 2.82 M0.5 14.86 C5.21 9.79, 9.35 5.62, 13.11 1.54 M0.96 20.25 C5.61 12.8, 13.31 8.91, 19.85 -0.62 M1.18 21.39 C3.76 16.29, 9.62 10.94, 17.32 1.29 M0.35 24.08 C9.35 17.74, 14.14 9.89, 22.3 2.9 M1.81 26.18 C9.83 16.78, 16.12 10.01, 21.75 2.87 M3.48 29.22 C13.59 20.15, 22.27 9.58, 26.99 4.74 M5.63 27.39 C12.01 18.83, 19.96 10.78, 25.97 3.94 M7.47 29.31 C12.56 26.57, 18.04 20.81, 26.78 9.77 M7.85 31.27 C14.87 22.56, 22.01 15.34, 26.91 8.59 M11.66 35.05 C17.1 25.02, 21.52 19.48, 30.94 14.13 M11.24 33.26 C17.87 26.32, 22.53 19.95, 29.35 12.69 M15.99 32.62 C20.66 25.81, 28.35 20.22, 33.13 15.38 M17.35 32.04 C21.92 27.06, 27.07 20.48, 31.57 14.86 M19.94 35.2 C23.15 29.84, 28.41 26.25, 31.25 22.03 M20.93 34.11 C24.59 28.86, 28.96 24.95, 31.94 21.72" stroke="#ced4da" stroke-width="0.5" fill="none"></path><path d="M15.85 -0.26 C18.79 -0.6, 22.26 1.04, 24.62 3.4 C26.99 5.76, 29.33 10.09, 30.03 13.89 C30.74 17.68, 30.47 23, 28.82 26.15 C27.17 29.31, 23.21 31.67, 20.14 32.83 C17.07 34, 13.47 34.3, 10.41 33.12 C7.36 31.94, 3.7 28.72, 1.83 25.77 C-0.04 22.83, -1.23 19.02, -0.79 15.44 C-0.35 11.87, 1.21 6.87, 4.45 4.33 C7.68 1.79, 15.88 0.64, 18.63 0.2 C21.38 -0.24, 20.86 1.53, 20.95 1.69 M16.71 0.85 C19.85 0.79, 21.88 1.85, 24.04 4.3 C26.21 6.74, 28.71 11.93, 29.72 15.52 C30.73 19.1, 31.38 22.81, 30.1 25.81 C28.82 28.82, 25.32 32.26, 22.03 33.53 C18.74 34.8, 13.43 34.9, 10.34 33.46 C7.26 32.01, 5.03 28.21, 3.53 24.85 C2.03 21.49, 1.03 16.88, 1.34 13.3 C1.64 9.71, 3.16 5.43, 5.38 3.35 C7.61 1.26, 13.21 1.17, 14.69 0.77 C16.17 0.37, 13.91 0.82, 14.25 0.95" stroke="#000000" stroke-width="1" fill="none"></path></g><g stroke-linecap="round" transform="translate(62.0000784737731 352.28570120675226) rotate(0 15.42859758649547 15.428575788225544)"><path d="M2.84 6.44 C2.84 6.44, 2.84 6.44, 2.84 6.44 M2.84 6.44 C2.84 6.44, 2.84 6.44, 2.84 6.44 M-0.22 16.17 C4.54 13.34, 6.55 9.99, 11.71 2.78 M-0.81 15.39 C3.18 12.06, 6.64 9.76, 12.5 0.81 M3.27 18.52 C8.17 13.1, 12.24 7.5, 16.36 0.92 M1.98 19.38 C6.33 13.09, 10.74 9.4, 17.91 2.63 M6.36 22.32 C9.78 17.13, 18.01 10.2, 22.85 2.38 M3.84 22.45 C10.07 15.97, 17.09 9.21, 22.04 2.43 M7.11 28.42 C15.02 19.08, 21.53 9.29, 26.05 4.16 M5.68 26.26 C12.04 19.43, 19.66 11.27, 25.98 4.23 M11.19 27.07 C16.18 23.44, 22.95 14.56, 27.45 6.61 M10.23 28.19 C16.14 22.02, 23.79 14.49, 27.65 8.24 M13.83 30.2 C19.65 23.98, 21.29 22.14, 31.07 11.63 M12.75 31.3 C18.48 25.83, 21.57 21.76, 29.43 11.69 M17.52 33.8 C19.05 27.43, 23.28 24.16, 29.1 16.89 M16.48 33.41 C21.39 27.4, 25.29 21.82, 30.7 16.78" stroke="#ced4da" stroke-width="0.5" fill="none"></path><path d="M20.71 0.56 C23.5 1.46, 26.41 4.76, 28.09 7.79 C29.78 10.81, 31.33 15.35, 30.81 18.72 C30.28 22.09, 27.66 25.9, 24.94 27.99 C22.22 30.09, 17.57 31.51, 14.47 31.28 C11.36 31.04, 8.82 28.91, 6.3 26.58 C3.78 24.25, -0.03 20.61, -0.65 17.31 C-1.27 14, 0.62 9.57, 2.56 6.75 C4.5 3.93, 7.5 1.11, 10.99 0.39 C14.49 -0.34, 21.06 1.81, 23.53 2.4 C26 3, 25.94 3.74, 25.82 3.95 M18.16 -0.25 C21.34 0.39, 26.11 3.98, 28.22 6.46 C30.32 8.93, 31.08 11.28, 30.79 14.62 C30.49 17.96, 28.61 23.86, 26.46 26.48 C24.31 29.11, 21.25 30.26, 17.89 30.35 C14.53 30.44, 9.21 28.63, 6.3 27.04 C3.4 25.44, 1.55 23.6, 0.44 20.78 C-0.66 17.96, -1.84 13.1, -0.32 10.1 C1.2 7.1, 6.46 4.65, 9.55 2.8 C12.64 0.94, 16.82 -0.7, 18.22 -1.03 C19.63 -1.36, 17.78 0.48, 18 0.83" stroke="#000000" stroke-width="1" fill="none"></path></g><g stroke-linecap="round" transform="translate(607.714364188058 104.85711233956476) rotate(0 63.42856270926336 60.000021798270154)"><path d="M94.39 7.37 C103.04 10.86, 111.17 18.71, 116.6 26.51 C122.02 34.3, 125.85 44.85, 126.95 54.12 C128.06 63.39, 127.02 73.49, 123.24 82.11 C119.45 90.73, 111.98 99.87, 104.25 105.83 C96.51 111.79, 86.34 115.75, 76.81 117.88 C67.28 120.01, 56.5 120.74, 47.08 118.61 C37.67 116.47, 27.58 111.45, 20.33 105.07 C13.08 98.69, 6.74 89.01, 3.59 80.32 C0.44 71.63, 0.14 62.14, 1.43 52.92 C2.72 43.7, 5.79 32.66, 11.35 25.03 C16.9 17.4, 26.01 11.31, 34.77 7.14 C43.52 2.96, 53.43 -0.44, 63.87 -0.02 C74.3 0.41, 91.55 7.53, 97.39 9.69 C103.23 11.86, 99.57 12.06, 98.9 12.97 M92.32 6.12 C100.99 9.31, 109.31 17.63, 115.09 25.21 C120.87 32.78, 125.53 42.23, 127.01 51.57 C128.5 60.91, 127.48 72.38, 123.99 81.27 C120.51 90.16, 113.54 98.96, 106.09 104.9 C98.65 110.84, 88.81 114.87, 79.32 116.92 C69.82 118.98, 58.85 119.26, 49.14 117.23 C39.42 115.2, 28.33 110.33, 21.03 104.74 C13.72 99.15, 8.87 92.34, 5.3 83.7 C1.72 75.07, -1.09 62.57, -0.42 52.9 C0.25 43.24, 4 33.46, 9.32 25.73 C14.64 18, 22.79 10.56, 31.49 6.51 C40.2 2.47, 51.71 1.3, 61.54 1.45 C71.38 1.6, 85.38 6.61, 90.49 7.42 C95.6 8.23, 92.29 5.53, 92.22 6.32" stroke="#000000" stroke-width="1" fill="none"></path></g><g stroke-linecap="round" transform="translate(616.2857927594855 310.85712977818093) rotate(0 63.42856270926336 60.000021798270154)"><path d="M81.07 2.84 C90.36 4.37, 100.04 10.63, 107.21 17.1 C114.39 23.58, 120.97 33.05, 124.13 41.68 C127.28 50.31, 127.75 60, 126.16 68.88 C124.58 77.76, 120.62 87.47, 114.62 94.95 C108.63 102.44, 99.03 109.69, 90.18 113.79 C81.34 117.89, 71.16 119.87, 61.55 119.54 C51.94 119.2, 41.16 116.2, 32.52 111.78 C23.87 107.36, 14.9 100.9, 9.67 93.04 C4.44 85.18, 1.96 73.99, 1.15 64.6 C0.33 55.21, 0.99 45.24, 4.77 36.68 C8.55 28.11, 16.2 19.06, 23.83 13.21 C31.47 7.37, 39.64 3.06, 50.58 1.59 C61.53 0.13, 81.84 3.09, 89.51 4.4 C97.18 5.72, 96.97 8.33, 96.61 9.51 M78.7 1.97 C88.01 3.32, 98.61 9.76, 105.95 16.08 C113.3 22.4, 119.2 31.34, 122.77 39.87 C126.35 48.4, 128.5 58.27, 127.41 67.27 C126.31 76.28, 122.16 86.28, 116.18 93.9 C110.21 101.53, 100.61 108.86, 91.55 113 C82.49 117.15, 71.61 118.64, 61.8 118.76 C52 118.88, 40.97 118, 32.74 113.72 C24.51 109.44, 17.96 101.08, 12.41 93.07 C6.86 85.06, 0.99 75.02, -0.56 65.67 C-2.11 56.33, -0.43 45.6, 3.12 37.01 C6.67 28.43, 12.91 20.3, 20.73 14.18 C28.55 8.07, 40.14 2.22, 50.02 0.31 C59.9 -1.59, 75.42 2.15, 80 2.77 C84.58 3.39, 77.88 3.27, 77.51 4.05" stroke="#000000" stroke-width="1" fill="none"></path></g><g stroke-linecap="round" transform="translate(652.8571864536821 272.2857012067518) rotate(0 15.42859758649547 15.428575788225544)"><path d="M8.91 1.12 C8.91 1.12, 8.91 1.12, 8.91 1.12 M8.91 1.12 C8.91 1.12, 8.91 1.12, 8.91 1.12 M3.72 11.02 C8.25 6.81, 13.24 4.48, 14.1 1.64 M4.72 12.78 C7.11 8.53, 10.08 6.19, 13.99 0.38 M3.96 19.86 C8.03 12.61, 18 3.74, 19.26 1.87 M3.45 19.83 C5.72 15.63, 10.41 10.76, 20.07 -0.48 M6.03 22.24 C12.11 17.57, 15.79 9.32, 21.5 2.92 M5.21 24.43 C9.45 18.09, 15.22 12.11, 23.9 2.02 M7.19 26.15 C11.95 21.14, 18 16.28, 25.63 5.62 M7.15 27.48 C14.22 20.03, 22.18 11.11, 25.26 5.39 M9.86 30.31 C13.71 25.25, 20.04 16.84, 30.97 7.57 M10.46 30.16 C17.09 23.36, 23.05 15.24, 29.1 8.44 M16.52 31.96 C21.71 23.8, 26.41 17.79, 31.62 13.69 M14.3 31.03 C18.01 26.08, 22.49 21.15, 31.59 13.22 M21.07 31.71 C23.43 27.95, 26.99 26.61, 33.66 17.53 M18.85 30.71 C22.35 27.92, 26.51 24.04, 31.91 17.14" stroke="#ced4da" stroke-width="0.5" fill="none"></path><path d="M8.63 1.44 C11.51 -0.21, 16.11 -0.81, 19.22 0.07 C22.33 0.95, 25.2 4.13, 27.3 6.71 C29.39 9.28, 31.88 12.33, 31.78 15.5 C31.68 18.68, 28.96 23.29, 26.72 25.75 C24.47 28.22, 21.54 29.77, 18.3 30.3 C15.07 30.83, 10.14 30.7, 7.32 28.93 C4.5 27.15, 2.27 22.89, 1.37 19.64 C0.46 16.4, 0.3 12.41, 1.9 9.46 C3.5 6.5, 9.19 3.37, 10.97 1.91 C12.75 0.46, 12.6 0.66, 12.58 0.72 M16.09 0.86 C19.37 0.64, 24.39 1.79, 26.95 3.82 C29.52 5.85, 31.42 9.76, 31.48 13.04 C31.55 16.32, 29.48 20.85, 27.35 23.5 C25.22 26.15, 21.85 27.78, 18.72 28.93 C15.59 30.08, 11.16 31.6, 8.55 30.4 C5.95 29.21, 4.62 25.01, 3.09 21.74 C1.57 18.47, -0.91 14.12, -0.6 10.79 C-0.29 7.45, 2.32 3.65, 4.97 1.74 C7.61 -0.17, 13.17 -0.21, 15.27 -0.68 C17.38 -1.14, 17.28 -1.56, 17.6 -1.03" stroke="#000000" stroke-width="1" fill="none"></path></g><g stroke-linecap="round" transform="translate(657.1429007393976 229.42855834960915) rotate(0 15.42859758649547 15.428575788225544)"><path d="M2.56 7.52 C2.56 7.52, 2.56 7.52, 2.56 7.52 M2.56 7.52 C2.56 7.52, 2.56 7.52, 2.56 7.52 M-1.63 16.96 C2.39 14.05, 8.81 6.85, 13.3 2.41 M0.6 16.38 C3.26 12.07, 8.33 7.3, 11.7 3.36 M1.19 18.99 C5.16 18.1, 7.51 11.24, 19.32 0.75 M1.15 19.4 C5.28 15.67, 8.73 11.54, 16.97 2.61 M2.55 24.93 C12.32 13.89, 18.51 5.15, 22.73 2.2 M4.74 23.06 C9.22 17.96, 14.08 13.06, 21.83 2.11 M4.78 27.72 C11.23 22.2, 17.81 13.77, 25.83 6.71 M6.12 27.53 C11.32 23.27, 15.04 16.71, 25.6 4.97 M9.24 28.38 C16.23 22.61, 19.85 18.17, 28.17 8.98 M9.09 30.4 C18.02 20.39, 25.61 11.88, 29.04 8.76 M14.87 31.46 C19.05 23.84, 25.43 19.92, 33.18 9.66 M13.93 29.88 C18.31 25.09, 22.68 21.41, 32.71 9.56 M20.53 30.54 C22.87 27.86, 27.28 23.94, 32.46 16.21 M19.68 29.22 C24.86 25.08, 29.13 19.46, 32.13 16.45" stroke="#ced4da" stroke-width="0.5" fill="none"></path><path d="M10.75 1.28 C13.74 0.1, 18.22 -0.28, 21.45 1.11 C24.69 2.49, 28.72 6.62, 30.16 9.59 C31.59 12.56, 30.97 15.75, 30.04 18.91 C29.11 22.07, 27.26 26.55, 24.58 28.53 C21.9 30.51, 17.22 31.03, 13.96 30.8 C10.71 30.56, 7.49 29.26, 5.07 27.11 C2.65 24.95, -0.12 21.08, -0.57 17.86 C-1.03 14.64, 0.14 10.59, 2.34 7.77 C4.55 4.95, 10.97 2.09, 12.64 0.95 C14.31 -0.19, 12.47 0.77, 12.35 0.95 M17.36 1.09 C20.33 1.25, 23.71 3.14, 25.87 5.08 C28.04 7.03, 29.98 9.82, 30.33 12.77 C30.67 15.72, 29.93 20.02, 27.94 22.78 C25.96 25.54, 21.44 28, 18.44 29.35 C15.43 30.7, 12.83 32.26, 9.89 30.9 C6.95 29.54, 2.59 24.59, 0.81 21.2 C-0.97 17.81, -1.47 13.76, -0.78 10.57 C-0.09 7.37, 2.19 3.56, 4.96 2.05 C7.72 0.53, 14.12 1.59, 15.82 1.48 C17.52 1.37, 14.88 1.58, 15.14 1.41" stroke="#000000" stroke-width="1" fill="none"></path></g><g stroke-linecap="round" transform="translate(652.8571864536821 69.42855834960915) rotate(0 15.42859758649547 15.428575788225544)"><path d="M4.49 6.55 C4.49 6.55, 4.49 6.55, 4.49 6.55 M4.49 6.55 C4.49 6.55, 4.49 6.55, 4.49 6.55 M1.62 14.47 C7.83 12.07, 9.51 7.6, 14.52 1.09 M1 15.61 C4.71 12.67, 7.93 7.23, 15.52 0.09 M1.98 19.63 C8.96 14.11, 9.99 12.79, 17.59 0.68 M2.39 19.64 C7.5 14.22, 12.24 8.79, 19.45 2.94 M5.58 25.76 C9.66 17.07, 16.05 9.54, 23.01 2.43 M3.72 25.08 C11.4 16.73, 19.3 7.49, 22.93 3.07 M7.26 26.71 C12.73 22.66, 15.3 17.98, 27.92 4.21 M7.07 28.37 C13.26 21.5, 17.16 15.06, 26.18 5.75 M9.73 30.05 C14.92 22.96, 21.46 18.87, 30.58 10.35 M11.75 30.06 C15.53 24.35, 20.84 18.2, 30.36 8.14 M14.72 32.28 C19.88 25.44, 28.77 17, 31.66 9.92 M13.14 31.89 C18.63 25.89, 25.23 20.97, 31.56 10.5 M21.84 29.93 C26.16 27.06, 29.31 22.32, 30.93 19.34 M20.6 30.52 C25.06 26.31, 28.12 22.07, 31.16 18.6" stroke="#ced4da" stroke-width="0.5" fill="none"></path><path d="M13.32 0.01 C16.25 -0.54, 19.9 1.26, 22.82 2.87 C25.74 4.49, 29.67 6.72, 30.82 9.69 C31.97 12.66, 30.88 17.57, 29.72 20.68 C28.56 23.79, 26.68 26.62, 23.86 28.34 C21.05 30.06, 16.1 31.59, 12.84 31 C9.57 30.4, 6.27 27.4, 4.26 24.78 C2.26 22.15, 0.78 18.29, 0.82 15.25 C0.86 12.21, 2.3 9.04, 4.5 6.53 C6.7 4.01, 12.31 1.21, 14.02 0.16 C15.73 -0.9, 14.79 -0.09, 14.76 0.18 M20.42 0.23 C23.64 0.63, 27.23 3.39, 28.78 6.09 C30.34 8.79, 30.36 13.28, 29.75 16.44 C29.13 19.61, 27.4 22.54, 25.09 25.06 C22.79 27.58, 18.77 31.16, 15.92 31.54 C13.07 31.92, 10.73 29.57, 8 27.35 C5.28 25.13, 0.84 21.54, -0.44 18.24 C-1.73 14.94, -1.1 10.46, 0.3 7.55 C1.7 4.64, 4.54 2.18, 7.96 0.78 C11.38 -0.62, 18.74 -1.01, 20.81 -0.84 C22.87 -0.68, 20.84 1.1, 20.35 1.76" stroke="#000000" stroke-width="1" fill="none"></path></g><g stroke-linecap="round" transform="translate(655.7143293108252 19.428558349609148) rotate(0 15.42859758649547 15.428575788225544)"><path d="M0.93 10.08 C0.93 10.08, 0.93 10.08, 0.93 10.08 M0.93 10.08 C0.93 10.08, 0.93 10.08, 0.93 10.08 M-1.34 18.96 C3.64 13.51, 6.73 10.69, 12.02 3.1 M-0.31 16.85 C4.25 12.53, 6.58 9.83, 11.11 3.16 M1.25 23.27 C6.82 12.93, 16.58 4.8, 18.12 0.86 M1.25 21.12 C8.22 13.31, 15.15 5.75, 20.38 1.55 M4.85 23.4 C10.81 15.04, 17.92 8.53, 22.43 4.4 M4.17 24.7 C10.47 18.18, 15.87 9.68, 23.08 2.1 M5.54 29.22 C12.31 20.76, 18.41 16.1, 24.61 5.13 M7.2 28.63 C12.3 20.54, 17.83 14.63, 26.14 4.86 M10.03 30.29 C14.15 25.48, 21.26 17.81, 31.14 7.62 M10.04 30.36 C17.83 21.66, 25.15 13.94, 28.93 8.98 M13.96 30.75 C21.84 24.96, 28.13 16.02, 29.14 12.7 M13.57 31.13 C18.1 27.47, 23.71 20.78, 29.72 13.6 M17.79 34.78 C24.58 28.23, 29.03 20.81, 32.75 19.14 M18.52 33.16 C21.77 28.8, 24.98 25.62, 31.84 18.16" stroke="#ced4da" stroke-width="0.5" fill="none"></path><path d="M19.31 0.34 C22.6 1.03, 27.16 4.9, 29.01 7.63 C30.86 10.35, 30.88 13.43, 30.43 16.67 C29.98 19.91, 28.68 24.71, 26.32 27.06 C23.95 29.42, 19.49 30.54, 16.24 30.79 C12.99 31.04, 9.55 30.34, 6.82 28.56 C4.08 26.78, 0.77 23.24, -0.17 20.1 C-1.1 16.96, -0.47 12.78, 1.21 9.75 C2.9 6.71, 6.7 3.29, 9.97 1.88 C13.23 0.47, 18.86 1.28, 20.81 1.27 C22.77 1.26, 21.74 1.55, 21.67 1.82 M14.74 0.75 C17.66 0.12, 21.99 0.58, 24.58 2.29 C27.17 4.01, 29.75 7.8, 30.27 11.06 C30.8 14.32, 29.16 18.52, 27.75 21.87 C26.35 25.22, 24.83 29.96, 21.84 31.16 C18.84 32.36, 13.26 30.54, 9.79 29.08 C6.33 27.62, 2.88 25.18, 1.04 22.38 C-0.8 19.57, -1.82 15.11, -1.24 12.26 C-0.66 9.42, 2.02 7.19, 4.5 5.32 C6.99 3.46, 11.75 2.09, 13.66 1.07 C15.57 0.04, 15.56 -0.95, 15.97 -0.8" stroke="#000000" stroke-width="1" fill="none"></path></g><g stroke-linecap="round" transform="translate(659.1429356166295 425.4285757882251) rotate(0 15.42859758649547 15.428575788225544)"><path d="M3.79 5.94 C3.79 5.94, 3.79 5.94, 3.79 5.94 M3.79 5.94 C3.79 5.94, 3.79 5.94, 3.79 5.94 M3.19 15.33 C3.63 12.76, 6.55 8.93, 12.2 1.8 M1.19 15.37 C5.43 9.15, 11.19 3.76, 12.25 2.4 M5.17 17.14 C6.15 16.04, 9.35 8.91, 17.57 4.07 M3.02 18.03 C6.35 14.47, 9.93 12.72, 18.26 2.73 M3.63 22.57 C6.94 18.37, 12.1 13.35, 24.88 2.47 M4.92 22.93 C11.93 14.85, 16.94 8.69, 22.58 1.73 M7.77 26.83 C10.69 21.84, 17.42 14.99, 26.01 4.25 M7.18 27.07 C11.71 19.84, 18.4 13.22, 25.73 4.51 M9.89 27.32 C17.22 22.42, 21.68 19.28, 28.23 9.52 M9.96 29.44 C14.3 24.12, 19.64 18.79, 29.6 8.72 M12.92 32.34 C20.38 25.46, 24.71 16.42, 30.79 10.61 M13.3 30.52 C19.65 26.13, 22.95 19.24, 31.69 11.88 M21.85 30.9 C24.53 26.57, 26.48 23.02, 32.55 15.59 M20.48 30.01 C22.14 27.37, 24.78 24.56, 31.72 17.32" stroke="#ced4da" stroke-width="0.5" fill="none"></path><path d="M12.01 1.2 C15.08 0.33, 20.69 0.03, 23.61 1.45 C26.52 2.88, 28.3 6.68, 29.49 9.74 C30.67 12.8, 31.71 16.62, 30.72 19.81 C29.74 23, 26.38 27.17, 23.57 28.87 C20.76 30.58, 16.98 30.62, 13.85 30.05 C10.72 29.48, 6.92 27.65, 4.77 25.45 C2.63 23.26, 1.14 20.14, 0.98 16.89 C0.81 13.64, 1.42 8.8, 3.77 5.96 C6.12 3.12, 12.83 0.75, 15.1 -0.14 C17.37 -1.04, 17.37 0.29, 17.41 0.57 M20.48 0.17 C23.2 0.85, 25.69 3.96, 27.19 6.57 C28.69 9.18, 29.81 12.4, 29.48 15.85 C29.15 19.31, 27.14 24.94, 25.2 27.31 C23.26 29.68, 21.14 30.18, 17.83 30.07 C14.52 29.96, 8.42 28.7, 5.34 26.64 C2.25 24.58, 0.1 20.82, -0.67 17.71 C-1.45 14.59, -1.2 10.89, 0.69 7.93 C2.57 4.97, 7.29 1.02, 10.64 -0.04 C13.99 -1.1, 19.47 1.22, 20.79 1.56 C22.1 1.89, 18.7 1.92, 18.53 1.97" stroke="#000000" stroke-width="1" fill="none"></path></g><g stroke-linecap="round" transform="translate(664.8572213309149 461.4285932268415) rotate(0 15.42859758649547 15.428575788225544)"><path d="M3.16 8.05 C3.16 8.05, 3.16 8.05, 3.16 8.05 M3.16 8.05 C3.16 8.05, 3.16 8.05, 3.16 8.05 M1.09 16.89 C5.3 12.84, 8.1 8.14, 12.77 4.99 M1.13 16.75 C2.89 14.83, 5.58 10.11, 13.44 2.72 M1.04 19.91 C7.74 15.19, 8.42 12.46, 19.67 1.72 M1.93 20.72 C5.05 17.66, 9.97 14.2, 18.32 2.56 M4.04 23.26 C11.1 16.83, 17.34 10.83, 24.1 3.78 M4.41 25.66 C7.89 19.36, 13.29 13.88, 23.36 2.43 M5.88 28.51 C12.19 23.63, 16.62 14.87, 26.28 5.75 M6.12 28.13 C11.17 22.48, 16.85 15.77, 26.53 5.45 M8.83 31.94 C14.14 26.31, 21.23 19.53, 31.19 6.96 M10.95 30.08 C17.53 23.15, 24.12 14.99, 30.39 8.72 M16.31 32 C21.29 24.63, 24.11 19.09, 29.95 12.87 M14.49 31.97 C18.89 26.83, 20.8 24.57, 31.22 13.3 M19.85 34.16 C23.79 27.36, 28.6 24.22, 29.54 17.24 M18.86 32.49 C22.05 29.21, 25.06 26.37, 31.48 18.09" stroke="#ced4da" stroke-width="0.5" fill="none"></path><path d="M21.47 1.82 C24.48 2.69, 26.84 4.58, 28.38 7.38 C29.92 10.18, 31.28 15.33, 30.72 18.63 C30.16 21.93, 27.5 25.02, 25.03 27.16 C22.56 29.29, 19.24 31.27, 15.89 31.44 C12.54 31.6, 7.59 30.17, 4.93 28.13 C2.28 26.08, 0.29 22.48, -0.04 19.17 C-0.37 15.87, 1.26 11.28, 2.95 8.3 C4.64 5.31, 6.91 2.39, 10.1 1.28 C13.28 0.18, 19.78 1.35, 22.05 1.67 C24.32 1.98, 23.79 2.88, 23.7 3.19 M20.29 -0.12 C23.3 0.44, 27.02 3.56, 28.53 6.45 C30.05 9.34, 29.79 13.52, 29.38 17.22 C28.97 20.92, 28.53 26.53, 26.07 28.64 C23.62 30.75, 18.29 30.3, 14.65 29.87 C11.02 29.45, 6.89 28.22, 4.25 26.11 C1.61 23.99, -0.7 20.02, -1.18 17.19 C-1.66 14.36, -0.28 11.67, 1.39 9.13 C3.05 6.6, 5.44 3.53, 8.82 1.98 C12.2 0.43, 19.53 -0.12, 21.68 -0.18 C23.82 -0.23, 21.97 1.04, 21.69 1.65" stroke="#000000" stroke-width="1" fill="none"></path></g><g stroke-linecap="round" transform="translate(762.0002528599325 20.285666329519472) rotate(0 63.5 60.000021798270154)"><path d="M71.59 0.28 C81.02 0.66, 93.39 4.99, 101.51 10.55 C109.62 16.11, 115.96 25.3, 120.28 33.63 C124.6 41.96, 127.72 51.23, 127.43 60.53 C127.15 69.83, 123.47 81.29, 118.57 89.45 C113.67 97.61, 106.17 104.51, 98.03 109.49 C89.9 114.47, 79.36 118.15, 69.77 119.33 C60.19 120.51, 49.55 119.89, 40.53 116.56 C31.5 113.23, 22.1 106.69, 15.62 99.37 C9.14 92.04, 3.84 81.82, 1.65 72.6 C-0.54 63.38, -0.04 52.92, 2.49 44.06 C5.02 35.19, 10.33 26.1, 16.84 19.4 C23.36 12.7, 31.08 6.68, 41.56 3.84 C52.04 1, 72.45 2.12, 79.74 2.37 C87.04 2.62, 85.48 4.52, 85.33 5.33 M39.83 3.18 C48.25 -0.99, 59.44 -1.5, 69.14 -0.33 C78.84 0.84, 89.49 4.92, 98.02 10.2 C106.54 15.49, 115.6 23.25, 120.27 31.36 C124.94 39.48, 126.13 49.75, 126.02 58.87 C125.92 68, 123.57 78.01, 119.64 86.09 C115.72 94.17, 110.03 101.73, 102.48 107.38 C94.94 113.04, 84.46 118.71, 74.38 120.03 C64.29 121.35, 51.69 118.57, 41.97 115.31 C32.24 112.05, 22.82 106.93, 16.03 100.47 C9.25 94.01, 3.48 85.47, 1.25 76.56 C-0.97 67.64, 0.68 56.22, 2.68 46.99 C4.69 37.76, 7.12 28.27, 13.3 21.18 C19.48 14.09, 35.16 6.8, 39.77 4.44 C44.38 2.08, 40.84 5.94, 40.94 7.02" stroke="#000000" stroke-width="1" fill="none"></path></g><g stroke-linecap="round"><g transform="translate(908.2859584263392 86.57143729073641) rotate(0 42.433603864097904 0.4048069602806663)"><path d="M0.38 0.54 C7.26 0.71, 26.32 1.59, 40.55 1.4 C54.77 1.21, 78.56 -0.26, 85.74 -0.61 M-0.87 -0.22 C6.46 -0.47, 28.54 -0.69, 42.95 -0.59 C57.36 -0.49, 78.85 0.29, 85.59 0.38" stroke="#000000" stroke-width="1" fill="none"></path></g></g><g transform="translate(1012.2860281808034 70.71426827566938) rotate(0 90.5 14)"><text x="0" y="21" font-family="Virgil, Segoe UI Emoji" font-size="20px" fill="#000000" text-anchor="start" style="white-space: pre;" direction="ltr"></text></g><g stroke-linecap="round" transform="translate(800.8573259626123 205.4285757882251) rotate(0 15.42859758649547 15.428575788225544)"><path d="M1.71 8.11 C1.71 8.11, 1.71 8.11, 1.71 8.11 M1.71 8.11 C1.71 8.11, 1.71 8.11, 1.71 8.11 M-0.69 14.97 C4.43 10.49, 8.54 5.95, 9.7 2.47 M1.04 14.84 C4.49 11.06, 6.56 8.51, 10.17 3.46 M2.38 21.5 C7.78 14.53, 10.82 8.7, 17.43 1.84 M0.9 19.87 C7.42 15.46, 11.5 8.91, 18.16 1.15 M2.84 22.44 C10.79 14.63, 15.04 7.22, 23.17 2.66 M4.78 23.84 C9.6 17.1, 14.54 11.69, 23.42 2.3 M7.53 24.97 C12.96 20.08, 15.44 17.39, 25.31 6.82 M5.99 26.58 C10.3 20.45, 16.15 15.47, 26 5.46 M8.22 29.63 C14.53 20.81, 21.88 16.44, 29 6.85 M8.07 29.84 C13.43 25.94, 17.98 19.47, 29.91 5.9 M14.99 31.39 C17.85 24.4, 23.83 20.84, 28.51 11.01 M13.43 30.93 C19.21 23.2, 26.05 15.55, 31.3 10.88 M17.48 34.17 C22.56 24.94, 27.05 21.53, 32.19 15.55 M18.39 33.13 C21.82 26.58, 27.9 19.36, 32.21 16.66" stroke="#ced4da" stroke-width="0.5" fill="none"></path><path d="M19.85 -0.08 C22.88 0.52, 25.7 3.06, 27.47 5.75 C29.24 8.44, 30.69 12.81, 30.49 16.05 C30.3 19.3, 28.62 22.61, 26.3 25.23 C23.98 27.84, 19.86 31.2, 16.58 31.73 C13.3 32.26, 9.3 30.58, 6.64 28.41 C3.97 26.24, 1.47 22.05, 0.62 18.7 C-0.23 15.35, 0.1 11, 1.54 8.3 C2.97 5.6, 6.07 3.78, 9.22 2.51 C12.36 1.24, 18.33 0.64, 20.41 0.66 C22.49 0.69, 21.71 2.4, 21.71 2.65 M23.01 1.47 C25.92 2.57, 27.84 6.31, 29.26 9.25 C30.68 12.2, 32.09 15.98, 31.52 19.13 C30.96 22.28, 28.52 26.18, 25.87 28.17 C23.22 30.16, 18.95 31.51, 15.61 31.08 C12.26 30.64, 8.18 27.76, 5.81 25.54 C3.45 23.33, 1.73 20.87, 1.42 17.77 C1.12 14.67, 2.39 9.89, 3.97 6.93 C5.55 3.96, 8.06 0.99, 10.9 -0.01 C13.73 -1.01, 18.99 0.74, 20.99 0.94 C23 1.14, 22.68 0.96, 22.93 1.19" stroke="#000000" stroke-width="1" fill="none"></path></g><g stroke-linecap="round"><g transform="translate(880.8574567522314 234.0000261579239) rotate(0 58.05613953146553 2.8572495782721035)"><path d="M-0.37 0.6 C18.98 1.36, 96.87 4.05, 116.49 4.8 M1.63 -0.14 C20.79 0.73, 96.27 4.82, 115.49 5.85" stroke="#000000" stroke-width="1" fill="none"></path></g></g><g transform="translate(1022.2858537946431 221.57141985212047) rotate(0 50.5 14)"><text x="0" y="21" font-family="Virgil, Segoe UI Emoji" font-size="20px" fill="#000000" text-anchor="start" style="white-space: pre;" direction="ltr"></text></g></svg>