<svg version="1.1" xmlns="http://www.w3.org/2000/svg" viewBox="0 0 1376.1023462972394 503.42856270926336" width="1376.1023462972394" height="503.42856270926336">
  <!-- svg-source:excalidraw -->
  
  <defs>
    <style>
      @font-face {
        font-family: "Virgil";
        src: url("https://excalidraw.com/Virgil.woff2");
      }
      @font-face {
        font-family: "Cascadia";
        src: url("https://excalidraw.com/Cascadia.woff2");
      }
    </style>
  </defs>
  <rect x="0" y="0" width="1376.1023462972394" height="503.42856270926336" fill="#ffffff"></rect><g stroke-linecap="round" transform="translate(182.81631811643592 10) rotate(0 360.57141985212047 241.71428135463168)"><path d="M0.27 -0.75 C159.55 1.04, 317.66 1.34, 721.32 0.56 M-0.15 0.29 C258.59 1.25, 516.88 0.87, 720.97 -0.21 M720.45 -0.21 C721.28 186.03, 721.95 373.14, 721.25 483.01 M720.76 -0.01 C722.28 109.98, 721.83 219.96, 720.98 483.01 M720.9 483.01 C449.03 482.5, 178.5 482.44, 0.25 483.65 M720.8 483.62 C493.97 485.32, 266.57 485.41, 0.19 483.04 M0.75 484.04 C-2 324.79, -0.98 166.66, -0.62 0.34 M0.36 483.56 C-0.19 294.33, -0.84 106.02, -0.23 0.1" stroke="#000000" stroke-width="1" fill="none"></path></g><g stroke-linecap="round" transform="translate(311.9592973296062 308.28565325055774) rotate(0 63.42856270926336 60.000021798270154)"><path d="M77.18 1.54 C86.59 2.77, 97.3 8.6, 104.66 14.43 C112.03 20.26, 117.76 27.92, 121.36 36.52 C124.95 45.13, 126.97 56.74, 126.23 66.07 C125.5 75.4, 122.27 84.98, 116.95 92.52 C111.63 100.05, 102.98 106.8, 94.32 111.28 C85.66 115.77, 74.63 118.98, 65.01 119.44 C55.39 119.9, 45.23 118.15, 36.61 114.05 C27.99 109.94, 19.31 102.31, 13.29 94.82 C7.27 87.34, 2.22 78.06, 0.49 69.14 C-1.24 60.22, -0.36 50.09, 2.9 41.31 C6.17 32.54, 12.94 23.14, 20.09 16.51 C27.24 9.87, 35.99 4.07, 45.81 1.51 C55.62 -1.06, 73.42 0.84, 78.96 1.14 C84.5 1.43, 79.33 2.25, 79.04 3.28 M38.05 5.57 C46.24 1.5, 58.37 -0.4, 68.31 0.18 C78.26 0.76, 89.52 4.14, 97.73 9.03 C105.95 13.91, 112.67 21.46, 117.59 29.47 C122.52 37.48, 126.75 47.48, 127.27 57.07 C127.8 66.66, 125.14 78.46, 120.75 87.02 C116.36 95.57, 108.76 103.24, 100.93 108.41 C93.1 113.59, 83.4 116.56, 73.76 118.08 C64.12 119.6, 52.77 120.23, 43.08 117.53 C33.38 114.83, 22.57 108.71, 15.58 101.86 C8.6 95.01, 3.77 85.52, 1.18 76.45 C-1.41 67.38, -2.39 56.47, 0.05 47.45 C2.48 38.42, 8.99 29.28, 15.79 22.29 C22.59 15.29, 37.05 8.47, 40.84 5.51 C44.62 2.54, 38.27 3.94, 38.5 4.49" stroke="#000000" stroke-width="1" fill="none"></path></g><g stroke-linecap="round" transform="translate(549.6735743245831 303.14280918666304) rotate(0 63.42856270926336 60.000021798270154)"><path d="M68.72 0.9 C78.36 0.53, 89.69 3.86, 97.89 8.64 C106.09 13.43, 112.98 21.42, 117.92 29.61 C122.86 37.79, 127.06 48.47, 127.54 57.76 C128.01 67.05, 125.25 77.05, 120.76 85.35 C116.28 93.64, 108.57 101.73, 100.62 107.52 C92.68 113.31, 82.63 118.36, 73.1 120.08 C63.57 121.79, 52.8 120.93, 43.43 117.81 C34.06 114.68, 23.71 108.27, 16.89 101.33 C10.08 94.39, 5 85.03, 2.53 76.18 C0.06 67.33, 0.09 57.33, 2.07 48.23 C4.05 39.13, 8.45 28.73, 14.41 21.58 C20.37 14.42, 28.07 8.92, 37.82 5.3 C47.57 1.68, 66.19 0.22, 72.9 -0.14 C79.6 -0.51, 78.15 2.12, 78.05 3.13 M51.39 0.06 C60.4 -2.47, 71.35 -0.74, 80.48 1.77 C89.62 4.28, 99.28 8.59, 106.21 15.12 C113.13 21.66, 118.98 31.9, 122.05 40.98 C125.12 50.06, 125.82 60.46, 124.63 69.61 C123.43 78.77, 120.47 88.29, 114.86 95.89 C109.24 103.48, 100.08 111.04, 90.95 115.18 C81.82 119.31, 69.74 121.41, 60.09 120.68 C50.45 119.95, 41.26 115.69, 33.09 110.81 C24.93 105.94, 16.46 99.26, 11.1 91.43 C5.74 83.6, 1.92 72.8, 0.95 63.86 C-0.02 54.91, 1.46 45.88, 5.28 37.76 C9.11 29.64, 16.23 21.47, 23.9 15.15 C31.58 8.83, 47.06 1.88, 51.32 -0.19 C55.58 -2.25, 49.62 1.73, 49.46 2.77" stroke="#000000" stroke-width="1" fill="none"></path></g><g stroke-linecap="round" transform="translate(319.1020236828422 106.85710362025657) rotate(0 63.42856270926336 60.000021798270154)"><path d="M34.61 7.48 C42.24 2.48, 53.1 -0.45, 62.75 -0.43 C72.4 -0.41, 83.65 3.19, 92.49 7.58 C101.33 11.97, 110.21 18.53, 115.81 25.9 C121.4 33.27, 124.95 42.66, 126.04 51.79 C127.12 60.93, 125.6 71.85, 122.32 80.71 C119.05 89.56, 113.51 98.82, 106.38 104.94 C99.25 111.06, 89.26 115.21, 79.54 117.43 C69.82 119.66, 57.82 120.24, 48.05 118.29 C38.27 116.34, 28.15 111.88, 20.87 105.74 C13.59 99.6, 7.83 90.39, 4.34 81.45 C0.86 72.51, -1.26 61.43, -0.04 52.09 C1.19 42.74, 4.97 33.43, 11.69 25.38 C18.42 17.33, 34.01 7.58, 40.29 3.78 C46.58 -0.02, 49.01 1.71, 49.4 2.58 M49.86 1.04 C59 -1.87, 71.55 -0.75, 80.97 1.68 C90.39 4.1, 99.17 9.23, 106.36 15.59 C113.56 21.96, 120.8 30.71, 124.15 39.85 C127.49 48.98, 128.11 61, 126.44 70.39 C124.77 79.78, 119.97 89.08, 114.14 96.19 C108.31 103.31, 100.28 108.95, 91.46 113.07 C82.64 117.18, 71.45 120.92, 61.21 120.87 C50.97 120.82, 38.77 117.52, 30 112.79 C21.23 108.06, 13.79 100.45, 8.58 92.47 C3.36 84.48, -0.85 74.1, -1.27 64.88 C-1.69 55.66, 1.69 45.56, 6.06 37.14 C10.42 28.72, 17.66 20.56, 24.92 14.38 C32.18 8.21, 45.16 2.31, 49.61 0.1 C54.06 -2.11, 51.37 -0.13, 51.64 1.12" stroke="#000000" stroke-width="1" fill="none"></path></g><g stroke-linecap="round" transform="translate(568.2450028960106 102.57138933454235) rotate(0 63.42856270926336 60.000021798270154)"><path d="M80.74 1.49 C89.88 2.78, 99.03 9.26, 106.24 15.73 C113.45 22.21, 120.68 31.57, 124.01 40.34 C127.34 49.12, 127.91 59.28, 126.2 68.37 C124.5 77.46, 119.65 87.17, 113.78 94.88 C107.9 102.6, 99.6 110.34, 90.96 114.67 C82.31 119, 71.76 121.29, 61.89 120.87 C52.02 120.45, 40.33 116.92, 31.74 112.16 C23.15 107.4, 15.47 100, 10.36 92.3 C5.25 84.59, 2.01 75.18, 1.09 65.94 C0.17 56.69, 1.37 45.38, 4.84 36.83 C8.3 28.27, 14.45 20.65, 21.85 14.6 C29.25 8.54, 39.24 2.46, 49.23 0.5 C59.21 -1.46, 76.15 2.36, 81.75 2.84 C87.34 3.33, 83.16 2.57, 82.79 3.41 M33.47 6.6 C40.94 1.66, 52.59 -1.36, 62.2 -1.27 C71.82 -1.19, 82.53 2.57, 91.14 7.12 C99.76 11.67, 107.96 18.47, 113.89 26.04 C119.83 33.62, 125.28 43.25, 126.76 52.59 C128.24 61.93, 126.46 73.28, 122.76 82.07 C119.05 90.86, 111.66 99.57, 104.52 105.35 C97.39 111.13, 89.1 114.77, 79.96 116.77 C70.82 118.76, 59.27 119.48, 49.68 117.31 C40.08 115.14, 29.89 109.53, 22.39 103.73 C14.89 97.93, 8.18 90.7, 4.68 82.49 C1.18 74.29, 0.16 64.12, 1.39 54.49 C2.63 44.87, 6.88 32.61, 12.06 24.76 C17.25 16.9, 29.04 10.31, 32.52 7.35 C36 4.4, 32.2 5.97, 32.97 7.03" stroke="#000000" stroke-width="1" fill="none"></path></g><g stroke-linecap="round" transform="translate(503.9592450137566 55.71424211774547) rotate(0 15.42859758649547 15.428575788225544)"><path d="M6.6 3.08 C6.6 3.08, 6.6 3.08, 6.6 3.08 M6.6 3.08 C6.6 3.08, 6.6 3.08, 6.6 3.08 M2.64 11.88 C7.66 9.81, 9.05 3.74, 15.26 0.85 M3.77 13.77 C7.65 8.49, 11.63 2.79, 13.51 0.73 M3.21 16.87 C7.62 13.65, 14.33 7.95, 17.81 1.29 M3.64 17.31 C8.14 15.3, 10.65 11.58, 18.63 1.41 M4.83 21.57 C11.16 14.74, 15.05 8.93, 22.1 2.88 M5.48 22.41 C9.45 16.55, 15.23 12.14, 23.06 4.03 M6.62 27.65 C13.83 19.56, 22.31 10.35, 25.37 6.73 M8.52 27.17 C13.63 20.69, 19.56 14.56, 25.42 5.54 M10.48 28.23 C15.1 23.48, 20.15 15.88, 29.6 7.26 M9.22 30.57 C17.71 21.14, 25.75 12.81, 28.13 8.45 M13.38 31.29 C21.6 23.72, 24.47 20.87, 32.98 10.75 M14.61 29.97 C20.04 25.14, 24.27 19.44, 32.24 12.1 M18.1 31.4 C24.37 27.51, 25.63 23.93, 32.85 16.43 M20.6 29.57 C22.95 26.38, 26.41 22.93, 31.4 15.53" stroke="#ced4da" stroke-width="0.5" fill="none"></path><path d="M16.48 -0.34 C19.44 -0.17, 23.78 3.03, 26.2 5.49 C28.63 7.96, 30.81 11.42, 31.03 14.44 C31.25 17.46, 29.58 21.05, 27.52 23.62 C25.46 26.2, 21.67 28.94, 18.66 29.89 C15.65 30.84, 12.2 30.83, 9.46 29.32 C6.71 27.81, 3.71 23.86, 2.19 20.83 C0.68 17.8, -0.32 14.03, 0.37 11.13 C1.06 8.22, 3.2 5.16, 6.32 3.4 C9.45 1.63, 16.82 1.01, 19.11 0.53 C21.39 0.04, 20.05 0.34, 20.04 0.48 M8.41 0.38 C11.05 -1.33, 15.57 -1.31, 18.58 -0.12 C21.59 1.08, 24.64 4.78, 26.47 7.54 C28.3 10.3, 29.64 13.47, 29.57 16.45 C29.5 19.42, 28.34 23.23, 26.03 25.39 C23.72 27.55, 18.86 29.18, 15.72 29.4 C12.58 29.62, 9.64 28.26, 7.2 26.7 C4.75 25.15, 1.99 23.01, 1.05 20.05 C0.11 17.1, 0.11 12.28, 1.58 8.98 C3.06 5.68, 8.56 1.29, 9.88 0.25 C11.21 -0.79, 9.87 2.14, 9.55 2.75" stroke="#000000" stroke-width="1" fill="none"></path></g><g stroke-linecap="round" transform="translate(442.81636171297623 359.7142900739402) rotate(0 15.42859758649547 15.428575788225544)"><path d="M2.11 7.14 C2.11 7.14, 2.11 7.14, 2.11 7.14 M2.11 7.14 C2.11 7.14, 2.11 7.14, 2.11 7.14 M-1.57 16.98 C3.31 11.51, 3.96 10.26, 12.14 3.95 M0.43 16.04 C4.22 10.89, 7.55 5.78, 12.01 2.64 M0.32 18.31 C6.25 16.18, 9.7 11.47, 17.08 0.39 M0.76 20.58 C6.4 15.45, 10.32 11.27, 17.21 2.26 M2.49 23.48 C8.36 14.72, 15.23 9.61, 21.79 1.97 M3.33 22.53 C7.34 18.46, 12.82 14.42, 22.95 3.06 M7.55 26.02 C11.89 22.47, 15.14 16.42, 26.04 5.11 M7.08 27.1 C11.65 21.97, 16.54 16.11, 24.85 5 M6.46 30.04 C15.47 21.12, 21.67 15.79, 27.72 9.32 M8.81 31.26 C15.14 23.68, 22.62 13.7, 28.91 7.38 M13.5 33.76 C16.4 26.24, 24.06 22.4, 30.85 9.31 M12.17 32.83 C18.2 25.96, 23.39 19.3, 32.19 9.47 M17.62 34.55 C21.02 28.43, 24.74 24.93, 32.7 14.73 M15.7 32.39 C20.07 28.21, 24.21 24.16, 31.76 14.15" stroke="#ced4da" stroke-width="0.5" fill="none"></path><path d="M20.31 0.57 C23.35 1.61, 27.82 5.08, 29.54 7.95 C31.26 10.82, 31.49 14.64, 30.64 17.79 C29.78 20.94, 27.02 24.52, 24.39 26.84 C21.76 29.16, 18.01 31.5, 14.87 31.71 C11.72 31.93, 8.12 30.43, 5.54 28.11 C2.97 25.8, -0.01 21.32, -0.58 17.82 C-1.16 14.33, 0.18 9.93, 2.1 7.15 C4.03 4.37, 7.4 2.02, 10.98 1.12 C14.56 0.23, 21.27 1.15, 23.59 1.76 C25.92 2.38, 25.2 4.65, 24.95 4.8 M14.05 -0.63 C17.02 -1.06, 21.64 0.01, 24.59 2 C27.53 3.98, 31.03 7.87, 31.73 11.28 C32.43 14.7, 30.73 19.6, 28.8 22.48 C26.86 25.37, 23.43 27.25, 20.12 28.58 C16.82 29.9, 12.22 31.23, 8.98 30.44 C5.74 29.64, 2.09 26.67, 0.69 23.8 C-0.7 20.93, -0.14 16.34, 0.61 13.2 C1.37 10.05, 2.99 7.01, 5.21 4.93 C7.43 2.85, 12.09 1.71, 13.92 0.71 C15.74 -0.29, 15.76 -1.04, 16.14 -1.08" stroke="#000000" stroke-width="1" fill="none"></path></g><g stroke-linecap="round" transform="translate(493.95920141721626 359.9999346051893) rotate(0 15.42859758649547 15.428575788225544)"><path d="M1.29 9.08 C1.29 9.08, 1.29 9.08, 1.29 9.08 M1.29 9.08 C1.29 9.08, 1.29 9.08, 1.29 9.08 M1.49 16.75 C3.1 10.55, 8.69 8.43, 13.17 4.04 M0.61 16.54 C3.28 12.14, 6.01 9.05, 11.93 2.68 M0.46 21.61 C6.61 16.73, 10.19 10.13, 15.74 1.88 M2.73 21.21 C5.48 17.44, 9.17 12.4, 17.62 3.23 M4.62 22.1 C6.97 18.24, 12.97 13.44, 21.95 1.95 M3.67 23.05 C10.83 17.06, 18.03 9.74, 23.04 2.76 M6.79 27.58 C15.46 18.14, 21.63 10.92, 25.48 4.82 M7.88 26.93 C11.93 22.58, 15.27 16.74, 25.37 6.34 M9.05 30.58 C15.32 21.66, 25.18 12.32, 30.75 8.9 M10.27 29.86 C17.94 21.96, 23.2 14.02, 28.8 7.46 M15.98 30.08 C19.8 26.21, 27.29 17.25, 29.16 12.99 M15.05 30.94 C21.02 23.31, 27.2 17.88, 29.32 12.18 M19.98 32.46 C22.15 27.83, 26.93 23.28, 31.4 15.19 M17.83 32.05 C22.09 27.7, 26.48 21, 30.82 16.69" stroke="#ced4da" stroke-width="0.5" fill="none"></path><path d="M19.5 1.39 C22.71 2.18, 26.72 4.5, 28.53 6.99 C30.35 9.48, 30.89 13.12, 30.4 16.31 C29.9 19.5, 27.78 23.71, 25.57 26.14 C23.36 28.57, 20.24 30.75, 17.16 30.89 C14.08 31.03, 9.92 28.96, 7.08 26.98 C4.25 25, 1.15 21.93, 0.16 18.98 C-0.83 16.03, -0.45 12.21, 1.12 9.28 C2.68 6.35, 5.95 2.7, 9.54 1.38 C13.13 0.06, 19.87 0.94, 22.67 1.36 C25.46 1.77, 26.51 3.53, 26.31 3.87 M16.93 -0.44 C19.87 0.18, 23.3 3.7, 25.41 6.24 C27.52 8.77, 29.31 11.79, 29.6 14.77 C29.89 17.75, 29.17 21.73, 27.13 24.12 C25.1 26.52, 20.46 28.56, 17.38 29.14 C14.3 29.71, 11.27 28.82, 8.64 27.57 C6.01 26.32, 2.87 24.48, 1.6 21.64 C0.32 18.8, -0.16 13.98, 0.98 10.55 C2.12 7.12, 5.53 2.64, 8.42 1.06 C11.3 -0.51, 16.98 1.02, 18.27 1.08 C19.55 1.15, 16.45 1.25, 16.13 1.46" stroke="#000000" stroke-width="1" fill="none"></path></g><g stroke-linecap="round" transform="translate(357.10207599869 266.5714154924665) rotate(0 15.42859758649547 15.428575788225544)"><path d="M2.13 7.16 C2.13 7.16, 2.13 7.16, 2.13 7.16 M2.13 7.16 C2.13 7.16, 2.13 7.16, 2.13 7.16 M1.74 13.39 C2.78 11.76, 7.89 8.8, 13.02 1.29 M1.53 14.1 C5.12 8.64, 10.02 4.8, 11.65 1.4 M3.52 19.27 C7.54 14.16, 9.82 9.04, 16.23 0.42 M3.11 19.05 C7.16 14.79, 9.93 10.75, 17.58 1.27 M2.34 21.52 C8.65 17.21, 14.01 11.12, 20.93 3.43 M3.28 23.38 C10.78 17.3, 16.94 10.31, 21.74 3.13 M6.9 28.4 C10.46 21.89, 16.27 16.29, 24.2 3.24 M6.24 28.22 C14.22 18.52, 20.75 9.47, 25.71 5.69 M10.85 26.77 C16.46 22.38, 21.66 16.61, 29.42 8.81 M10.13 29.54 C14.58 22.77, 19 18.54, 27.98 8.03 M12.91 30.3 C18.93 28.1, 19.86 21.73, 29.02 14.72 M13.77 31.25 C17.2 26.53, 22.82 20.21, 28.22 13.04 M17.19 32.72 C19.73 30.4, 22.36 26.49, 28.14 18.89 M16.78 32.26 C22.63 26.49, 26.11 20.95, 29.64 17.9" stroke="#ced4da" stroke-width="0.5" fill="none"></path><path d="M11.36 0.97 C14.36 -0.19, 18.41 -0.37, 21.2 0.76 C23.99 1.89, 26.64 4.61, 28.11 7.73 C29.57 10.85, 30.51 16.01, 30 19.46 C29.48 22.92, 27.66 26.6, 25.01 28.45 C22.36 30.31, 17.42 30.94, 14.11 30.6 C10.8 30.25, 7.34 28.51, 5.15 26.38 C2.96 24.25, 1.4 21.08, 0.95 17.81 C0.5 14.55, 0.31 9.67, 2.46 6.78 C4.6 3.9, 11.25 1.7, 13.83 0.52 C16.4 -0.66, 17.76 -0.51, 17.89 -0.29 M13.32 -1.4 C16.82 -2, 22.47 -0.59, 25.28 1.44 C28.09 3.48, 29.62 7.62, 30.18 10.8 C30.75 13.98, 30.27 17.36, 28.69 20.52 C27.12 23.68, 23.82 28.05, 20.73 29.77 C17.63 31.49, 13.02 31.69, 10.11 30.84 C7.21 29.99, 5.01 27.22, 3.31 24.65 C1.61 22.08, -0.05 18.65, -0.09 15.43 C-0.12 12.22, 0.62 8.14, 3.11 5.35 C5.6 2.56, 12.87 -0.31, 14.85 -1.32 C16.82 -2.32, 14.96 -0.91, 14.95 -0.66" stroke="#000000" stroke-width="1" fill="none"></path></g><g stroke-linecap="round" transform="translate(355.95923629444906 229.71420288085938) rotate(0 15.42859758649547 15.42857578822543)"><path d="M2.85 5.13 C2.85 5.13, 2.85 5.13, 2.85 5.13 M2.85 5.13 C2.85 5.13, 2.85 5.13, 2.85 5.13 M-0.35 12.08 C4.24 11.22, 7.44 8.48, 12.23 1.73 M0.4 13.46 C4.1 9.16, 9.53 3.18, 12.34 -0.2 M2.4 19.24 C4.82 14.02, 7.22 9.59, 14.03 1.89 M2.18 18.85 C5.16 14.42, 8.35 11.5, 14.88 2.66 M1.57 22.12 C7.56 17.47, 11.78 11.62, 23.63 1.57 M3.43 23.39 C8.92 18.36, 13.48 11.93, 23.34 0.47 M5.37 27.61 C12 19.81, 19.52 9.49, 23.18 6.3 M5.19 28.54 C12.17 18.3, 19.81 10.35, 25.63 4.6 M6.3 29.8 C13.26 23.83, 18.81 20.49, 29.15 5.62 M9.07 30 C14.67 21.53, 22.84 12.03, 28.37 6.18 M12.29 32.62 C20.28 22.94, 24.16 16.44, 31.78 9.8 M13.24 30.02 C18.22 25.75, 21.65 18.63, 30.1 9.39 M15.1 33.67 C21.34 27.26, 26.03 19.02, 32.11 16.76 M14.64 34.13 C17.78 28.97, 21.13 25.8, 31.12 16" stroke="#ced4da" stroke-width="0.5" fill="none"></path><path d="M12.34 0.37 C15.37 -0.76, 19.42 -0.61, 22.24 0.83 C25.07 2.28, 27.81 5.82, 29.27 9.04 C30.73 12.26, 31.77 17.07, 30.99 20.17 C30.2 23.28, 27.54 25.9, 24.56 27.66 C21.59 29.42, 16.63 30.91, 13.12 30.74 C9.6 30.56, 5.64 29.04, 3.49 26.61 C1.34 24.19, 0.34 19.74, 0.22 16.18 C0.09 12.63, 0.44 8.05, 2.72 5.27 C5.01 2.5, 12.06 0.39, 13.92 -0.44 C15.77 -1.27, 13.84 -0.02, 13.84 0.3 M8.14 2.28 C10.87 1, 15.6 -0.05, 18.91 0.64 C22.23 1.33, 26.27 3.84, 28.03 6.43 C29.78 9.01, 29.74 13, 29.44 16.16 C29.14 19.32, 28.38 22.86, 26.22 25.38 C24.06 27.9, 19.81 30.91, 16.47 31.26 C13.13 31.61, 8.68 29.79, 6.19 27.48 C3.7 25.17, 2.14 20.44, 1.52 17.38 C0.91 14.33, 1.38 11.69, 2.5 9.15 C3.61 6.61, 7.19 3.32, 8.22 2.15 C9.25 0.97, 8.6 1.98, 8.68 2.12" stroke="#000000" stroke-width="1" fill="none"></path></g><g stroke-linecap="round" transform="translate(273.6735568859681 145.71430751255548) rotate(0 15.42859758649547 15.428575788225544)"><path d="M2.65 6.28 C2.65 6.28, 2.65 6.28, 2.65 6.28 M2.65 6.28 C2.65 6.28, 2.65 6.28, 2.65 6.28 M-1.38 16.12 C5.4 11.6, 10.21 4.32, 14.5 1.76 M0.07 14.16 C4.78 10.73, 7.72 5.5, 12.46 0 M3.44 18.34 C5.2 13.68, 7.77 9.74, 16.94 -0.71 M3.06 19.17 C7.59 12.94, 13.68 5.31, 17.71 0.23 M3.15 23.1 C9.14 16.65, 13.93 11.56, 22.85 0.84 M4.41 24.06 C8.68 19.39, 11.54 14.75, 21.75 2.7 M6.1 26.73 C11.83 20.97, 15.03 13.26, 27.22 6.22 M7.04 26.78 C12.07 19.17, 19.41 12.37, 25.52 3.92 M10.1 29.16 C13.77 25.19, 20.08 19.35, 26.27 9.64 M10.3 27.68 C16.48 21.23, 21.63 14.86, 26.84 8.65 M15.48 32.03 C19.5 22.22, 26.69 17.21, 29.44 11.09 M12.89 31.3 C20.72 22.28, 25.73 15.47, 29.03 11.93 M20.14 29.63 C23.97 24.5, 26.33 20.88, 31.6 15.53 M20.5 28.41 C21.75 25.81, 24.59 23.56, 30.99 17.57" stroke="#ced4da" stroke-width="0.5" fill="none"></path><path d="M12.6 -0.09 C15.37 -0.97, 19.27 -0.27, 22.06 1.55 C24.85 3.37, 28.01 7.53, 29.34 10.85 C30.67 14.16, 31.19 18.5, 30.04 21.43 C28.9 24.36, 25.33 27, 22.48 28.45 C19.63 29.9, 15.93 30.58, 12.94 30.12 C9.95 29.66, 6.65 28.18, 4.52 25.68 C2.38 23.18, 0.42 18.36, 0.13 15.11 C-0.16 11.85, 0.6 8.79, 2.78 6.14 C4.95 3.48, 11.14 0.12, 13.16 -0.81 C15.18 -1.73, 14.79 0.32, 14.88 0.59 M13.37 -0.91 C16.48 -1.59, 19.97 -0.21, 22.57 1.34 C25.17 2.89, 27.92 5.16, 28.94 8.38 C29.97 11.59, 29.86 17.2, 28.72 20.63 C27.58 24.07, 24.62 27.26, 22.11 28.98 C19.61 30.7, 16.75 31.28, 13.7 30.94 C10.65 30.6, 6.33 29.31, 3.83 26.93 C1.33 24.55, -1.34 20.41, -1.28 16.68 C-1.22 12.95, 1.79 7.44, 4.2 4.54 C6.62 1.64, 11.77 0.18, 13.23 -0.71 C14.69 -1.6, 13.03 -1.38, 12.98 -0.81" stroke="#000000" stroke-width="1" fill="none"></path></g><g stroke-linecap="round" transform="translate(225.67350457011935 139.42855834960938) rotate(0 15.42859758649547 15.428575788225544)"><path d="M1.7 6.78 C1.7 6.78, 1.7 6.78, 1.7 6.78 M1.7 6.78 C1.7 6.78, 1.7 6.78, 1.7 6.78 M1.84 14.35 C6.18 10.44, 8.04 6.99, 12.97 1.56 M0.08 14.23 C4.96 8.93, 8.24 4.95, 11.39 0.41 M1.1 18.56 C6.11 11.02, 11.83 4.64, 15.91 2 M1.92 18.69 C8.36 11.93, 13.4 4.57, 16.85 0.79 M3.42 22.42 C7.53 16.99, 12.97 14.44, 20.67 0.26 M4.38 23.57 C8.64 17.37, 12.94 12.64, 22.53 1.48 M5.38 27.78 C12.54 17.76, 17.75 12.76, 26.44 5.27 M5.44 26.59 C12.28 19.2, 19.96 11.09, 24.14 4.05 M8.31 29.82 C16.67 23.48, 23.1 13.12, 29.51 7.94 M6.83 31.01 C13.67 22.69, 20.64 15.05, 28.52 7.98 M13.64 31.04 C16.18 25.92, 23.52 19.45, 30.6 11.47 M12.91 32.39 C17.04 24.4, 23.43 17.3, 31.43 10.44 M16.83 32.97 C21.19 25.1, 27.42 22.49, 30.05 13.25 M15.31 32.02 C20.47 26.81, 26.02 22.23, 32.6 14.98" stroke="#ced4da" stroke-width="0.5" fill="none"></path><path d="M20.59 0.09 C23.48 0.93, 26.68 4.35, 28.48 7.4 C30.29 10.46, 31.84 15.21, 31.43 18.41 C31.03 21.61, 28.79 24.52, 26.04 26.6 C23.29 28.67, 18.47 30.66, 14.93 30.88 C11.39 31.09, 7.21 30.03, 4.79 27.88 C2.37 25.74, 0.91 21.51, 0.4 17.99 C-0.12 14.47, -0.05 9.73, 1.7 6.78 C3.45 3.82, 7.62 1.15, 10.88 0.27 C14.14 -0.6, 19.17 1.19, 21.26 1.52 C23.36 1.85, 23.55 2.08, 23.46 2.25 M11.18 0.19 C14.39 -0.93, 19.5 -0.26, 22.4 1.12 C25.29 2.5, 27.19 5.5, 28.54 8.47 C29.88 11.44, 31.25 15.48, 30.47 18.91 C29.69 22.34, 26.75 27.1, 23.89 29.04 C21.03 30.98, 16.45 31.33, 13.3 30.54 C10.15 29.75, 7.1 26.61, 5 24.3 C2.9 21.99, 1.21 19.61, 0.71 16.69 C0.22 13.76, 0.24 9.38, 2.01 6.77 C3.79 4.15, 9.88 1.95, 11.39 0.99 C12.89 0.03, 10.68 0.7, 11.04 1" stroke="#000000" stroke-width="1" fill="none"></path></g><g stroke-linecap="round" transform="translate(364.2449331415469 63.714272635323596) rotate(0 15.42859758649547 15.428575788225544)"><path d="M6.37 1.56 C6.37 1.56, 6.37 1.56, 6.37 1.56 M6.37 1.56 C6.37 1.56, 6.37 1.56, 6.37 1.56 M1.93 14.87 C5.02 9.82, 8.56 7.9, 13.12 1.03 M1.81 13.64 C3.91 9.72, 7.32 5.72, 11.97 0.94 M2.31 16.7 C5.9 11.5, 10.68 5.97, 18.95 2.46 M2.43 18.57 C6.93 12.59, 10.85 7.48, 17.74 -0.05 M3.08 22.81 C5.97 19.99, 11.75 13.25, 19.77 1.25 M4.24 23.89 C8.3 17.58, 13.85 11.05, 20.99 3.25 M7.33 25.94 C11.62 16.98, 20.92 13.01, 25.17 6.39 M6.14 25.83 C13.47 18.81, 20.08 9.5, 23.95 5.68 M8.36 30.91 C14 25.73, 15.64 21.34, 28.89 7.36 M9.54 28.97 C16.04 21.08, 23.23 12.4, 28.93 6.74 M11.48 30.9 C17.25 27.16, 21.68 19.19, 31.5 11.43 M12.83 31.06 C18.32 23.67, 24.7 16.44, 30.47 11.51 M17.27 31.79 C19.36 28.19, 26.69 20.62, 30.1 15.55 M16.33 31.21 C19.83 28.44, 23.97 25.47, 31.83 15.43" stroke="#ced4da" stroke-width="0.5" fill="none"></path><path d="M16.06 -0.35 C19.12 -0.03, 23.5 2.94, 25.97 5.54 C28.43 8.13, 30.68 12.08, 30.88 15.19 C31.07 18.31, 29.07 21.77, 27.13 24.21 C25.19 26.65, 22.16 28.97, 19.23 29.85 C16.29 30.74, 12.46 30.95, 9.5 29.52 C6.55 28.09, 3.09 24.22, 1.48 21.25 C-0.12 18.28, -0.92 14.96, -0.14 11.71 C0.65 8.47, 2.88 3.56, 6.19 1.76 C9.5 -0.04, 17.08 1, 19.73 0.9 C22.37 0.79, 22.17 1.02, 22.03 1.15 M8.06 1.35 C10.42 -0.3, 14.8 -1.77, 17.82 -0.94 C20.84 -0.11, 24.27 3.46, 26.19 6.35 C28.12 9.24, 29.17 13.14, 29.36 16.41 C29.55 19.68, 29.31 23.39, 27.33 25.97 C25.34 28.54, 21.02 31.34, 17.47 31.88 C13.91 32.43, 8.61 31.41, 5.98 29.24 C3.35 27.06, 2.34 22.26, 1.7 18.83 C1.05 15.39, 0.93 11.7, 2.12 8.63 C3.32 5.55, 7.76 1.32, 8.86 0.37 C9.96 -0.59, 8.55 2.23, 8.71 2.92" stroke="#000000" stroke-width="1" fill="none"></path></g><g stroke-linecap="round" transform="translate(365.67350457011935 17.99998692103827) rotate(0 15.42859758649547 15.428575788225544)"><path d="M4.42 3.84 C4.42 3.84, 4.42 3.84, 4.42 3.84 M4.42 3.84 C4.42 3.84, 4.42 3.84, 4.42 3.84 M3.17 13.9 C3.55 12.04, 7.06 8.43, 13.3 0.01 M1.93 12.54 C4.49 9.46, 6.97 5.77, 13.22 0.46 M0.5 17.77 C6.09 11.64, 11.35 7.52, 18.71 1.25 M2.37 19.12 C7.26 11.93, 13.03 5.37, 16.2 0.63 M2.77 22.37 C9.1 18.87, 11.5 11.05, 19.96 2.76 M3.85 23.18 C10.3 15.67, 16.54 8.23, 21.95 3.12 M6.3 25.25 C10.01 21.88, 18.73 14.25, 26.14 6.04 M6.19 26.76 C14.13 18.39, 19.79 9.29, 25.44 3.62 M10.91 30.08 C16.43 20.73, 22.76 15.87, 28.93 8.32 M8.96 28.64 C16.52 20.42, 23.25 14.32, 28.31 6.32 M11.29 31.9 C21.02 22.52, 26.57 16.13, 31.22 11.38 M11.45 31.1 C16.22 25.46, 21.19 22.01, 31.3 9.6 M16.8 30.33 C23.1 27.56, 25.44 18.66, 33.57 11.52 M16.23 31.83 C23.39 25.73, 30.3 18.12, 33.46 13.62" stroke="#ced4da" stroke-width="0.5" fill="none"></path><path d="M15.15 -0.53 C18.49 -0.53, 23.59 1.66, 26.32 3.77 C29.05 5.87, 31.18 8.83, 31.54 12.09 C31.89 15.34, 30.38 20.18, 28.46 23.29 C26.55 26.41, 23.07 29.66, 20.03 30.77 C16.99 31.89, 13.3 31.42, 10.22 30 C7.13 28.59, 3.08 25.29, 1.5 22.29 C-0.08 19.29, 0.22 15.16, 0.75 12.03 C1.29 8.89, 1.68 5.46, 4.72 3.49 C7.77 1.51, 16.33 0.54, 19.02 0.16 C21.71 -0.21, 21.04 1.11, 20.87 1.23 M20.72 0.32 C23.7 1.1, 26.06 3.98, 27.76 6.78 C29.47 9.58, 31.35 13.58, 30.96 17.12 C30.57 20.65, 28.05 25.72, 25.42 27.98 C22.78 30.25, 18.34 31.11, 15.15 30.72 C11.97 30.32, 8.69 27.65, 6.31 25.62 C3.92 23.59, 1.76 21.43, 0.86 18.54 C-0.03 15.65, -0.52 11.13, 0.94 8.29 C2.39 5.44, 6.46 2.59, 9.59 1.46 C12.72 0.33, 17.68 1.36, 19.73 1.52 C21.78 1.67, 21.53 2.03, 21.9 2.38" stroke="#000000" stroke-width="1" fill="none"></path></g><g stroke-linecap="round" transform="translate(511.38779028440376 155.14284406389515) rotate(0 15.42859758649547 15.428575788225544)"><path d="M3.59 5.77 C3.59 5.77, 3.59 5.77, 3.59 5.77 M3.59 5.77 C3.59 5.77, 3.59 5.77, 3.59 5.77 M1.39 14.99 C6.48 11.26, 9.71 5.9, 12.07 0.94 M-0.05 15.1 C2.82 11.61, 5.06 9.79, 12.55 2.2 M0.63 18.66 C4.99 13.75, 11.37 12.34, 17.21 3.82 M1.98 19.51 C6.48 13.68, 11.6 8, 16.6 1.62 M2.05 25.44 C9.57 16.77, 12.77 10.41, 21.94 4.23 M2.86 25.15 C9.95 16.54, 17.13 8.4, 22.3 3.03 M4.01 26.76 C13.33 22.65, 18.4 15.08, 27.03 6.64 M5.52 29.21 C12.08 20.06, 17.88 13.8, 24.61 5.06 M10.55 30.83 C14.41 23.77, 22.75 15.36, 29.8 9.18 M9.1 30.05 C12.72 25.35, 18.45 19.7, 27.8 9.3 M14.08 32.21 C19.95 22.71, 28.81 15.68, 32.5 9.63 M13.27 30.53 C19.53 23.34, 27.98 15.32, 30.72 11.14 M17.96 31 C24.74 23.97, 26.01 21.41, 29.82 18.07 M19.31 30.11 C22.69 28.03, 24.73 24.78, 31.71 16.49" stroke="#ced4da" stroke-width="0.5" fill="none"></path><path d="M12.19 1.1 C15.41 0.57, 20.36 1.48, 23.18 2.94 C26 4.4, 27.98 7.01, 29.11 9.87 C30.24 12.74, 30.81 16.96, 29.96 20.14 C29.1 23.33, 26.81 27.31, 23.97 28.98 C21.12 30.64, 16.42 30.65, 12.91 30.13 C9.4 29.61, 5.15 28.46, 2.91 25.86 C0.66 23.27, -0.68 17.9, -0.57 14.56 C-0.47 11.21, 0.99 8.37, 3.56 5.81 C6.13 3.26, 12.63 0.19, 14.86 -0.77 C17.09 -1.73, 17.07 -0.47, 16.95 0.04 M8.4 0.04 C10.98 -1.26, 15.28 -0.16, 18.34 1.04 C21.4 2.25, 24.61 4.59, 26.75 7.3 C28.89 10.01, 31.31 13.91, 31.19 17.31 C31.06 20.72, 28.65 25.36, 25.98 27.73 C23.32 30.1, 18.29 31.74, 15.17 31.53 C12.05 31.33, 9.55 28.74, 7.26 26.5 C4.97 24.25, 2.29 21.3, 1.46 18.08 C0.62 14.86, 0.92 9.83, 2.28 7.18 C3.63 4.52, 8.26 2.86, 9.6 2.15 C10.93 1.44, 10.08 3.07, 10.3 2.92" stroke="#000000" stroke-width="1" fill="none"></path></g><g stroke-linecap="round" transform="translate(612.8163617129762 62.28570120675204) rotate(0 15.42859758649547 15.428575788225544)"><path d="M1.46 9.22 C1.46 9.22, 1.46 9.22, 1.46 9.22 M1.46 9.22 C1.46 9.22, 1.46 9.22, 1.46 9.22 M0.35 17.81 C5.07 12.62, 8.28 7.57, 11.07 2.14 M0.46 15.99 C3.68 11.47, 8.49 7.89, 12.25 3.23 M0.17 20.32 C5.35 16.58, 13.99 8.92, 21.82 0.3 M1.02 21.09 C6.04 15.23, 11.23 8.17, 19.61 0.07 M5.84 24.53 C8.41 16.68, 13.29 12.56, 24.12 4.44 M5.54 23.43 C11.7 16, 18.34 9.15, 22.93 2.82 M5.39 29.26 C14.82 20.87, 20.8 14.23, 27.68 5.75 M7.84 27.56 C10.91 21.32, 16.88 15.33, 26.11 5.72 M11.36 28.57 C16.45 24.79, 20.21 19.97, 29.87 6.44 M10.58 29.14 C17.32 23.11, 23.1 14.37, 29.98 8.85 M15.95 30.49 C18.5 27.6, 23.51 22.27, 29.4 14.08 M14.27 30.08 C21.15 24.64, 27.18 16.52, 30.91 12.41 M19.52 33.6 C20.71 26.46, 26.63 21.68, 32.67 15.94 M18.58 32.88 C22.22 29.18, 24.6 25.91, 31.01 17.66" stroke="#ced4da" stroke-width="0.5" fill="none"></path><path d="M9.36 1.7 C12.3 0.07, 16.84 -1.15, 19.87 -0.4 C22.9 0.36, 25.82 3.31, 27.55 6.23 C29.29 9.15, 30.41 13.8, 30.3 17.12 C30.18 20.44, 29.12 23.99, 26.86 26.14 C24.6 28.3, 19.96 29.76, 16.73 30.03 C13.49 30.3, 10.27 29.45, 7.44 27.75 C4.61 26.04, 0.73 22.93, -0.25 19.83 C-1.24 16.72, -0.04 12.33, 1.54 9.12 C3.11 5.91, 7.58 2.13, 9.19 0.58 C10.79 -0.97, 10.82 -0.34, 11.17 -0.17 M13.63 -1.37 C16.91 -1.79, 22.48 -0.55, 25.38 1.79 C28.27 4.13, 30.34 9.19, 30.99 12.65 C31.64 16.11, 30.71 19.92, 29.27 22.55 C27.84 25.19, 25.36 27.04, 22.37 28.45 C19.38 29.86, 14.93 31.67, 11.36 31.03 C7.79 30.39, 2.99 27.44, 0.95 24.6 C-1.1 21.75, -1.35 17.34, -0.89 13.96 C-0.44 10.59, 0.89 6.52, 3.67 4.36 C6.44 2.19, 13.64 1.49, 15.74 0.99 C17.83 0.5, 16.62 1.48, 16.24 1.4" stroke="#000000" stroke-width="1" fill="none"></path></g><g stroke-linecap="round" transform="translate(607.10207599869 15.142844063895154) rotate(0 15.42859758649547 15.428575788225544)"><path d="M3 5.25 C3 5.25, 3 5.25, 3 5.25 M3 5.25 C3 5.25, 3 5.25, 3 5.25 M2.12 14.89 C5.31 9.73, 8.64 3.77, 9.94 2.41 M0.41 13.41 C3.86 10.24, 8.18 6.07, 10.97 1.74 M1.58 16.46 C6.63 16.47, 7.97 13.35, 15.11 3.47 M2.32 17.35 C6.81 12.41, 10.16 7.92, 14.88 3.46 M4.83 20.94 C7.89 14.79, 14.69 11.42, 23.59 3.05 M3.73 22.8 C10.83 14.73, 18.5 6.17, 21.96 2.15 M7.23 28.59 C12.39 21.22, 19.28 14.65, 25.29 3.44 M5.53 26.29 C11.04 20.09, 16.82 12.56, 25.26 4.11 M7.59 30.5 C17.17 20.41, 25.73 12.39, 26.37 8.14 M8.16 29.51 C15.51 21.99, 20.13 16.9, 28.78 6.79 M11.41 31.2 C18.67 25.82, 23.5 18.58, 32.9 11.31 M11 32.03 C17.39 26.52, 21.07 21.17, 31.23 9.82 M17.16 31.47 C18.98 28.27, 23.23 24.52, 29.42 13.98 M16.4 34.02 C19.51 29.48, 23.06 25.33, 31.22 16.07" stroke="#ced4da" stroke-width="0.5" fill="none"></path><path d="M12.2 1.24 C15.18 0.2, 18.87 0.22, 21.79 1.52 C24.71 2.81, 28.2 5.9, 29.72 9.04 C31.25 12.17, 31.91 17.16, 30.92 20.32 C29.94 23.48, 26.85 26.16, 23.81 27.97 C20.76 29.79, 16.04 31.72, 12.64 31.21 C9.25 30.7, 5.55 27.39, 3.44 24.91 C1.34 22.43, 0.05 19.61, -0.02 16.33 C-0.09 13.05, 0.96 7.97, 3.02 5.22 C5.08 2.48, 10.77 0.51, 12.34 -0.16 C13.91 -0.83, 12.46 0.9, 12.44 1.21 M11.67 0.62 C14.63 0.23, 18.79 1.01, 21.92 2.69 C25.05 4.36, 29.15 7.42, 30.45 10.67 C31.74 13.92, 31.16 19.01, 29.69 22.17 C28.21 25.33, 24.3 28.48, 21.59 29.65 C18.87 30.82, 16.24 30.11, 13.38 29.18 C10.52 28.25, 6.54 26.65, 4.42 24.07 C2.31 21.48, 0.74 16.66, 0.7 13.67 C0.67 10.68, 1.99 8.14, 4.21 6.11 C6.43 4.08, 12.37 2.69, 14.03 1.5 C15.7 0.32, 14.48 -1.09, 14.18 -1.01" stroke="#000000" stroke-width="1" fill="none"></path></g><g stroke-linecap="round" transform="translate(606.2449680187806 224.8571995326447) rotate(0 15.42859758649547 15.428575788225544)"><path d="M2.23 5.92 C2.23 5.92, 2.23 5.92, 2.23 5.92 M2.23 5.92 C2.23 5.92, 2.23 5.92, 2.23 5.92 M1.76 14.31 C5.32 8.69, 8 3.06, 13.11 1.08 M0.09 13.09 C3.78 10.98, 6.35 7.7, 12.36 -0.4 M0.7 19.25 C7.86 13.5, 11.7 9.75, 17.2 1.49 M1.64 18.04 C6.51 11.48, 11.85 6.74, 17.19 0.5 M2.18 21.29 C6.11 18.05, 12.85 14.8, 23.03 3.47 M4.04 22.51 C8.23 18.33, 11.98 12.86, 22.14 1.86 M6.64 27.81 C11.19 22.83, 16.51 16.21, 23.81 4.72 M4.34 26.59 C11.94 18.44, 18.22 12.11, 24.49 5.29 M10.36 29.72 C15.36 23.45, 22.45 12.53, 28.26 7.61 M9.37 29.76 C13.07 23.42, 19.2 18.84, 26.9 7.35 M12.76 31.74 C18.46 25.49, 22.3 19.71, 31.82 9.18 M13.6 30.71 C17.54 25.16, 21.64 20.83, 30.32 10.23 M14.84 30.5 C19.85 26.68, 24.3 22.97, 29.24 14.4 M17.39 32.23 C20.72 27.74, 24.44 22.69, 31.33 16.68" stroke="#ced4da" stroke-width="0.5" fill="none"></path><path d="M12.28 -0.27 C15.08 -1.29, 18.9 -0.21, 21.66 1.45 C24.42 3.11, 27.38 6.66, 28.86 9.67 C30.34 12.68, 31.39 16.57, 30.55 19.51 C29.71 22.45, 26.47 25.53, 23.82 27.32 C21.16 29.11, 17.98 30.39, 14.62 30.23 C11.26 30.06, 6.03 28.61, 3.65 26.34 C1.27 24.07, 0.61 19.97, 0.34 16.62 C0.06 13.26, 0.05 9.08, 1.99 6.19 C3.94 3.31, 9.97 0.42, 12.01 -0.68 C14.05 -1.78, 14.12 -0.76, 14.22 -0.39 M11.84 -0.96 C15.11 -1.67, 19.42 0.23, 22.39 1.85 C25.35 3.47, 28.11 6.04, 29.63 8.75 C31.15 11.46, 32.29 14.73, 31.52 18.1 C30.75 21.48, 28.14 26.7, 25.01 28.98 C21.88 31.27, 16.31 32.13, 12.72 31.81 C9.14 31.49, 5.85 29.49, 3.49 27.06 C1.14 24.62, -1.41 20.45, -1.39 17.21 C-1.37 13.96, 1.25 10.19, 3.61 7.59 C5.96 4.99, 11.66 2.91, 12.73 1.61 C13.79 0.31, 10.1 -0.09, 9.99 -0.22" stroke="#000000" stroke-width="1" fill="none"></path></g><g stroke-linecap="round" transform="translate(604.8163965902081 264.2857360839846) rotate(0 15.42859758649547 15.428575788225544)"><path d="M2.39 6.06 C2.39 6.06, 2.39 6.06, 2.39 6.06 M2.39 6.06 C2.39 6.06, 2.39 6.06, 2.39 6.06 M1.28 14.58 C3.51 9.56, 5.75 7.09, 12.77 -0.31 M0.13 14.49 C4.15 10.87, 7.04 6.48, 11.37 0.65 M3.16 20.54 C5.12 16.86, 9.05 10.76, 17.85 1.94 M1.96 18.03 C4.66 14.4, 9.17 10.27, 16.86 0.78 M2.02 21.6 C10.25 16.61, 18.48 9.07, 23.7 0.65 M3.24 23.59 C11.37 14.51, 18.2 6.59, 22.1 1.27 M6.11 28.24 C10.92 23.66, 14.13 15.98, 25.35 5.17 M4.89 27.54 C11.93 18.63, 20.79 9.44, 25.91 5 M9.83 29.22 C18.03 21.63, 21.55 13.81, 27.88 6.3 M9.87 28.6 C15.87 22, 23.62 12.92, 27.61 7.22 M14.41 31.02 C21.3 21.5, 28.66 16.39, 29.84 8.6 M13.38 31.1 C18.07 24.72, 23.95 18.44, 30.9 8.88 M14.32 33.63 C19.54 28.76, 24.91 19.26, 30.47 14.23 M16.05 33.52 C20.77 27.75, 24.97 23.1, 32.75 14.18" stroke="#ced4da" stroke-width="0.5" fill="none"></path><path d="M21.03 1.15 C23.96 2.04, 27.69 5.21, 29.38 8.27 C31.07 11.33, 31.97 16.31, 31.16 19.51 C30.35 22.72, 27.45 25.54, 24.5 27.5 C21.56 29.47, 16.89 31.63, 13.48 31.3 C10.06 30.97, 6.27 27.87, 4.03 25.52 C1.79 23.16, 0.29 20.44, 0.04 17.17 C-0.21 13.9, 0.72 8.74, 2.53 5.9 C4.34 3.07, 7.68 0.7, 10.9 0.17 C14.13 -0.37, 19.89 2.25, 21.88 2.67 C23.87 3.09, 22.84 2.67, 22.83 2.68 M7.58 1.84 C10.66 0.33, 16.61 -0.21, 20.01 0.8 C23.42 1.82, 26.46 5.1, 28.04 7.91 C29.62 10.72, 29.64 14.8, 29.49 17.67 C29.34 20.53, 29.12 23.06, 27.14 25.08 C25.16 27.09, 20.93 29.53, 17.6 29.77 C14.26 30.01, 9.91 28.12, 7.13 26.51 C4.34 24.9, 1.65 22.82, 0.88 20.08 C0.11 17.34, 0.96 13.43, 2.51 10.06 C4.05 6.7, 9.21 1.23, 10.15 -0.13 C11.09 -1.48, 8.43 1.64, 8.15 1.94" stroke="#000000" stroke-width="1" fill="none"></path></g><g stroke-linecap="round" transform="translate(707.10207599869 145.14284406389515) rotate(0 15.42859758649547 15.428575788225544)"><path d="M5.59 2.21 C5.59 2.21, 5.59 2.21, 5.59 2.21 M5.59 2.21 C5.59 2.21, 5.59 2.21, 5.59 2.21 M1.97 12.74 C4.77 7.14, 9.96 4.56, 10.53 0.9 M1.89 13.16 C4.67 9.85, 6.72 6.49, 11.44 0.49 M4.13 17.73 C8.09 13.9, 9.64 10.41, 17.32 0.27 M1.62 17.12 C6.31 13.25, 10.48 8.49, 16.17 2.03 M1.45 23.77 C10 18.73, 15.98 12.01, 19.35 5.16 M3.44 24.13 C7.18 18.6, 12.09 13.49, 19.97 2.5 M6.98 27.81 C14.73 18.15, 19.39 9.7, 24.92 6.9 M6.28 25.39 C12.19 19.74, 17.82 13.37, 24.75 5.84 M9.11 30.84 C14.02 22.14, 18.71 18.47, 27.1 8.2 M8.49 28.84 C14.01 24.66, 17.07 18.49, 28.02 7.84 M11.4 33.9 C15.18 28.07, 23.35 18.95, 29.14 10.31 M11.48 32.12 C15.27 27.88, 19.18 22.95, 29.42 10.86 M17.03 30.27 C24.39 23.51, 27.12 17.29, 31.59 14.39 M16.91 32.37 C22.4 25.12, 29 19.34, 31.53 13.97" stroke="#ced4da" stroke-width="0.5" fill="none"></path><path d="M15.64 0.03 C18.54 0.19, 22.61 2.49, 25.16 4.71 C27.7 6.92, 30.42 10.31, 30.9 13.33 C31.38 16.35, 29.75 20.12, 28.06 22.81 C26.37 25.51, 23.97 28.35, 20.77 29.5 C17.56 30.66, 11.93 30.89, 8.82 29.73 C5.72 28.58, 3.67 25.52, 2.12 22.55 C0.58 19.57, -1.01 15.25, -0.45 11.88 C0.11 8.51, 2.17 4.4, 5.48 2.34 C8.78 0.28, 16.78 -0.3, 19.37 -0.5 C21.97 -0.71, 21.32 0.86, 21.05 1.11 M9.05 2.02 C11.74 0.68, 15.97 -0.19, 19.3 0.3 C22.63 0.8, 26.99 2.15, 29.03 5 C31.07 7.84, 32.18 13.66, 31.54 17.35 C30.9 21.03, 27.78 24.73, 25.2 27.09 C22.63 29.44, 19.38 31.2, 16.09 31.46 C12.79 31.72, 7.86 30.46, 5.43 28.67 C2.99 26.89, 1.93 23.81, 1.46 20.75 C0.99 17.69, 1.68 13.68, 2.62 10.32 C3.55 6.95, 6.02 2.16, 7.08 0.55 C8.15 -1.05, 8.82 0.18, 9.01 0.68" stroke="#000000" stroke-width="1" fill="none"></path></g><g stroke-linecap="round" transform="translate(749.9592188558331 135.14284406389515) rotate(0 15.42859758649547 15.428575788225544)"><path d="M2.44 6.09 C2.44 6.09, 2.44 6.09, 2.44 6.09 M2.44 6.09 C2.44 6.09, 2.44 6.09, 2.44 6.09 M-0.21 14.13 C2.8 10.69, 9.02 4.01, 11.2 1.16 M0.24 15.31 C2.64 11.55, 4.97 8.15, 10.76 1.53 M2.28 19.99 C5.77 14.16, 9.6 11.27, 15.86 1.2 M1.66 17.79 C5.77 14.22, 9 10.01, 17.62 1.85 M4.38 23.42 C10.51 18.61, 14.94 11.13, 24.52 0.24 M4.75 22.22 C11.06 14.86, 17.79 6.29, 21.85 2.14 M6.85 28.84 C13.01 17.55, 20.41 10.73, 26.75 5.11 M4.43 27.27 C10.13 21.73, 15.09 17.55, 25.69 3.86 M10.93 29.88 C14.54 21.82, 23.19 11.66, 29.2 5.65 M8.93 29.99 C16.45 21.02, 22.02 13.59, 28.85 6.88 M14.94 28.82 C20.09 26.02, 21.97 17.53, 30.95 7.92 M13.16 30.32 C19.61 23.17, 25.36 15.12, 31.5 10.55 M18.25 30.38 C20.33 25.26, 22.87 23.49, 30.66 17.52 M20.03 28.89 C23.47 25.03, 28.16 19.43, 30.3 16.01" stroke="#ced4da" stroke-width="0.5" fill="none"></path><path d="M22.07 0.96 C25.26 2.21, 28.86 6.2, 30.26 9.22 C31.65 12.23, 31.56 15.8, 30.43 19.04 C29.3 22.27, 26.3 26.82, 23.46 28.62 C20.62 30.43, 16.57 30.23, 13.4 29.89 C10.22 29.54, 6.67 28.87, 4.41 26.53 C2.15 24.2, 0.18 19.29, -0.15 15.89 C-0.48 12.48, 0.65 8.53, 2.44 6.1 C4.22 3.66, 7.01 1.78, 10.56 1.26 C14.12 0.74, 21.15 2.39, 23.77 2.96 C26.39 3.53, 26.44 4.64, 26.28 4.7 M18.08 0.39 C21.44 0.77, 24.91 3.8, 26.82 6.35 C28.73 8.9, 29.29 12.81, 29.56 15.69 C29.83 18.56, 30.13 21.3, 28.47 23.6 C26.8 25.91, 22.84 28.83, 19.56 29.49 C16.28 30.15, 11.82 28.81, 8.81 27.56 C5.8 26.3, 2.67 24.57, 1.5 21.96 C0.32 19.35, 0.61 15.43, 1.77 11.9 C2.92 8.37, 5.93 2.71, 8.41 0.8 C10.88 -1.11, 15.28 0.69, 16.61 0.45 C17.95 0.21, 16.18 -1.06, 16.42 -0.62" stroke="#000000" stroke-width="1" fill="none"></path></g><g stroke-linecap="round" transform="translate(627.10207599869 425.1428440638949) rotate(0 15.42859758649547 15.428575788225544)"><path d="M2.54 7.51 C2.54 7.51, 2.54 7.51, 2.54 7.51 M2.54 7.51 C2.54 7.51, 2.54 7.51, 2.54 7.51 M-0.28 14.85 C4.27 13, 5.78 8.14, 10.09 3.07 M0.83 15.88 C2.43 12.95, 4.37 10.32, 10.43 3.43 M3.87 20.48 C7.12 14.88, 13.32 6.52, 16.78 1.48 M1.67 20.25 C6.55 14.98, 10.76 10.34, 17.43 2.32 M5.53 25.37 C9.85 20.73, 11.48 16.16, 21.85 3.78 M4.33 23.75 C9.49 18.12, 13.45 11.55, 23.75 3.31 M7.77 28.2 C11.68 20.32, 20.09 13.95, 26.36 3.61 M6.2 28.16 C10.81 23.03, 16.78 16.86, 25.11 5.96 M11.27 27.37 C18.02 21.12, 22.67 14.87, 27.96 8.19 M11.38 29.78 C17.67 20.01, 25.5 12.64, 29.19 6.86 M13.43 31.99 C22.48 21.71, 25.86 15.73, 28.65 12.87 M14.93 30.33 C20.74 23.18, 25.66 16.96, 31.28 10.95 M20.06 29.99 C20.13 26.92, 24.16 24.82, 33.15 17.98 M18.31 31.79 C23.63 27.42, 26.9 21.02, 31.37 16.05" stroke="#ced4da" stroke-width="0.5" fill="none"></path><path d="M8.81 2.05 C11.69 0.65, 16.91 0.09, 20.09 0.79 C23.26 1.49, 25.98 3.6, 27.84 6.25 C29.7 8.9, 31.7 13.27, 31.24 16.67 C30.78 20.07, 27.54 24.31, 25.09 26.64 C22.65 28.97, 19.85 30.51, 16.57 30.64 C13.3 30.76, 8.18 29.48, 5.42 27.37 C2.66 25.26, 0.52 21.27, 0.02 17.98 C-0.48 14.69, 0.29 10.66, 2.42 7.65 C4.55 4.63, 10.54 1.26, 12.8 -0.09 C15.06 -1.45, 16.08 -0.86, 15.98 -0.5 M8.31 1.73 C11.1 -0.22, 16.38 -1.82, 19.7 -0.98 C23.02 -0.14, 26.6 3.8, 28.22 6.77 C29.85 9.74, 29.84 13.59, 29.46 16.85 C29.08 20.12, 28.13 23.99, 25.93 26.36 C23.73 28.73, 19.2 30.56, 16.24 31.09 C13.29 31.63, 10.54 31.18, 8.19 29.56 C5.83 27.94, 3.55 24.86, 2.11 21.39 C0.68 17.92, -1.46 12.17, -0.42 8.71 C0.62 5.26, 7.11 1.66, 8.37 0.66 C9.63 -0.33, 6.84 2.24, 7.14 2.74" stroke="#000000" stroke-width="1" fill="none"></path></g><g stroke-linecap="round" transform="translate(622.8163617129762 453.71427263532337) rotate(0 15.42859758649547 15.428575788225544)"><path d="M2.97 5.23 C2.97 5.23, 2.97 5.23, 2.97 5.23 M2.97 5.23 C2.97 5.23, 2.97 5.23, 2.97 5.23 M-2.06 16.04 C4.28 9.35, 7.23 5.5, 10.09 0.35 M-0.9 15.29 C3.06 9.89, 7.35 5.05, 10.48 2.4 M1.31 19.28 C7.85 13.17, 11.62 5.71, 14.76 2.35 M1.08 19.27 C4.48 15.09, 8.49 12.34, 15.6 1.4 M4.53 24.92 C8.82 17.48, 13.18 12.91, 22.45 1.86 M2.91 24.02 C9.52 15.47, 15.2 9.43, 21.97 2.95 M5.58 26.06 C12.66 19.24, 21.25 10.81, 23.98 2.87 M5.55 26.73 C13.32 19.55, 20.01 10.37, 26.32 4.09 M7.32 30.01 C14.49 21.22, 21.7 13.71, 29.05 8.85 M9.73 28.65 C13.49 23.14, 19.65 17.05, 27.72 7.92 M14.5 32.42 C16.68 23.51, 23.2 16.51, 31.2 11.9 M12.83 30.92 C18.22 23.31, 24.53 18.33, 29.28 9.75 M16.27 29.05 C21.19 24.79, 27.06 21.67, 33.79 14.58 M18.07 31.14 C23.19 24.93, 26.31 20.16, 31.86 14.71" stroke="#ced4da" stroke-width="0.5" fill="none"></path><path d="M14.3 0.33 C17.41 -0.26, 21.4 0.13, 23.92 1.97 C26.45 3.81, 28.59 8.28, 29.45 11.37 C30.3 14.46, 30.24 17.5, 29.07 20.51 C27.91 23.52, 25.32 27.9, 22.44 29.43 C19.57 30.96, 15.09 30.54, 11.81 29.7 C8.52 28.85, 4.84 26.74, 2.72 24.36 C0.59 21.98, -1.06 18.68, -0.96 15.43 C-0.87 12.18, 0.76 7.53, 3.28 4.87 C5.8 2.22, 12.28 0.42, 14.17 -0.5 C16.06 -1.41, 14.49 -0.79, 14.61 -0.61 M17.68 1.36 C20.53 1.73, 23.41 3.93, 25.76 6 C28.11 8.06, 31.34 10.73, 31.79 13.74 C32.24 16.75, 30.56 21.51, 28.44 24.07 C26.33 26.63, 22.44 28.17, 19.1 29.12 C15.75 30.07, 11.22 30.91, 8.38 29.77 C5.53 28.63, 3.1 25.78, 2.02 22.3 C0.94 18.83, 1.18 12.23, 1.91 8.94 C2.64 5.64, 3.96 4.15, 6.41 2.51 C8.86 0.87, 14.62 -0.8, 16.62 -0.91 C18.61 -1.02, 18.14 1.2, 18.37 1.85" stroke="#000000" stroke-width="1" fill="none"></path></g><g stroke-linecap="round" transform="translate(683.9592014172163 349.4285583496096) rotate(0 15.42859758649547 15.428575788225544)"><path d="M5.41 3.38 C5.41 3.38, 5.41 3.38, 5.41 3.38 M5.41 3.38 C5.41 3.38, 5.41 3.38, 5.41 3.38 M3.09 13.54 C4.1 9.4, 7.63 5.21, 11.72 1.72 M2.42 12.22 C5.18 8.6, 8.44 4.83, 13.54 1.4 M2.66 19.32 C7.33 12.54, 10.67 7.49, 17.52 0.2 M2.65 18.33 C5.29 15.58, 9.34 10.87, 16.57 1.14 M4.56 25.83 C7.59 19.35, 13.5 12.26, 21.01 4.16 M3.66 24.23 C9.11 15.95, 17.06 10.17, 22.1 3.51 M5.34 27.09 C14.24 19.89, 21.54 8.08, 25.23 4.9 M6.01 27.65 C10.96 22.57, 13.9 17.92, 26.45 4.18 M10.44 29.22 C16 21.98, 22.84 13.28, 30.2 6.66 M9.08 28.96 C14.83 23.57, 20.03 16.16, 29.27 7.52 M15.97 28.53 C19.58 22.25, 25.09 16.12, 32.23 11.3 M14.47 29.58 C18.09 24.77, 24.35 18, 30.07 10.9 M17.98 28.47 C21.82 26.57, 26.82 24.42, 33.9 14.27 M20.08 30.74 C23.68 24, 28.72 18.31, 34.02 13.33" stroke="#ced4da" stroke-width="0.5" fill="none"></path><path d="M15.79 0.13 C18.94 -0.29, 22.41 0.95, 24.97 2.99 C27.53 5.02, 30.67 8.95, 31.14 12.33 C31.62 15.71, 29.53 20.34, 27.81 23.25 C26.09 26.16, 23.93 28.75, 20.84 29.78 C17.74 30.82, 12.44 30.75, 9.23 29.45 C6.03 28.16, 2.97 24.98, 1.6 22.03 C0.23 19.08, 0.37 14.9, 1.03 11.76 C1.69 8.63, 3.02 5.29, 5.56 3.2 C8.11 1.11, 14.39 -0.39, 16.31 -0.78 C18.24 -1.18, 17.22 0.38, 17.12 0.83 M18.74 -1.14 C21.96 -0.72, 25.81 3.19, 27.6 6.03 C29.38 8.87, 29.63 12.62, 29.46 15.89 C29.28 19.15, 28.59 23.11, 26.55 25.62 C24.5 28.12, 20.11 30.18, 17.19 30.92 C14.27 31.66, 11.49 31.48, 9.03 30.04 C6.57 28.6, 4.08 25.7, 2.45 22.3 C0.82 18.89, -1.59 13.15, -0.75 9.62 C0.1 6.1, 4.66 2.63, 7.53 1.15 C10.4 -0.33, 14.58 0.8, 16.48 0.75 C18.37 0.7, 18.52 0.51, 18.88 0.88" stroke="#000000" stroke-width="1" fill="none"></path></g><g stroke-linecap="round" transform="translate(736.5306997431094 351.7143249511721) rotate(0 15.42859758649547 15.428575788225544)"><path d="M2.45 6.1 C2.45 6.1, 2.45 6.1, 2.45 6.1 M2.45 6.1 C2.45 6.1, 2.45 6.1, 2.45 6.1 M0.45 13.91 C2.78 10.85, 5.03 6.38, 13.22 1.25 M-1.12 14.99 C3.5 9.85, 7.94 5.66, 12.83 1.04 M2.81 19.34 C6.69 11.77, 12.3 5.45, 15.38 -0.27 M1.82 18.19 C6.56 14.65, 9.33 8.94, 16.32 1.59 M5.38 21.83 C11.66 14.74, 17.35 7.68, 22.56 3.59 M3.78 22.45 C8.06 17.95, 14.84 11.35, 21.91 3.41 M5.07 28.62 C14.19 19.63, 18.7 9.26, 25.86 2.72 M5.63 28.44 C11.62 20.04, 18.05 13.85, 25.14 5.49 M8.91 28.24 C16.88 19.94, 23.37 15.75, 27.26 7.01 M8.64 29.16 C17.19 20.15, 23.73 12.61, 28.12 7.95 M11.53 29.78 C16.68 23.97, 22.01 22.36, 31.54 9.42 M12.58 30.06 C18.93 24.94, 23.34 16.76, 31.13 8.96 M14.78 32.39 C22.14 27.85, 29.21 20.42, 31.52 16.35 M17.06 32.34 C20.17 27.48, 24.32 23.57, 30.59 15.78" stroke="#ced4da" stroke-width="0.5" fill="none"></path><path d="M11.48 0.05 C14.21 -0.92, 18.26 0.59, 21.15 1.9 C24.04 3.22, 27.27 4.98, 28.8 7.93 C30.33 10.88, 31.1 16.4, 30.32 19.62 C29.55 22.84, 26.91 25.45, 24.15 27.25 C21.39 29.04, 17.17 30.43, 13.75 30.41 C10.32 30.4, 6.02 29.43, 3.6 27.16 C1.18 24.89, -0.57 20.3, -0.77 16.79 C-0.96 13.28, 0.23 9.05, 2.43 6.12 C4.63 3.19, 10.26 0.36, 12.44 -0.77 C14.63 -1.91, 15.33 -1.14, 15.56 -0.68 M15.32 0.76 C18.65 0.37, 24.41 0.99, 27.16 3.01 C29.9 5.04, 31.51 9.6, 31.79 12.88 C32.07 16.16, 30.82 19.65, 28.86 22.69 C26.89 25.73, 23.12 29.77, 19.98 31.12 C16.85 32.47, 12.94 32.55, 10.04 30.8 C7.14 29.04, 4.36 23.75, 2.59 20.6 C0.83 17.44, -1.01 15.01, -0.56 11.88 C-0.12 8.74, 2.29 3.54, 5.25 1.79 C8.21 0.05, 15.25 1.43, 17.21 1.4 C19.17 1.38, 16.92 1.53, 17.01 1.64" stroke="#000000" stroke-width="1" fill="none"></path></g><g stroke-linecap="round" transform="translate(349.1021108759228 459.9999346051893) rotate(0 15.42859758649547 15.428575788225544)"><path d="M2.09 7.11 C2.09 7.11, 2.09 7.11, 2.09 7.11 M2.09 7.11 C2.09 7.11, 2.09 7.11, 2.09 7.11 M-0.27 14.1 C2.78 10.34, 4.59 9.7, 12.38 2.55 M0.69 13.66 C3.72 10.26, 7.61 8.31, 12.2 2.22 M3.32 17.25 C7.03 11.74, 11.99 6.44, 15.5 1.11 M2.17 19.01 C7.49 12.91, 10.63 7.95, 17.36 2.37 M3.38 24.4 C10.37 15.77, 17.41 7.92, 23.23 2.06 M4 21.74 C10.94 17.01, 15.79 10.56, 23.05 3 M6.99 28.4 C13.06 18.08, 17.76 13.5, 23.51 5.01 M6.81 27.35 C12.07 19.94, 19.54 11.94, 26.27 5.21 M9.17 29.71 C12.44 25, 19.82 18.39, 28.19 9.34 M10.08 29.35 C16.84 20.28, 25.06 12.4, 29.13 6.74 M12.52 30.3 C18.92 23.05, 29.56 14.2, 31.66 9.64 M12.79 30.86 C20.42 22.51, 25 16.63, 31.19 10.09 M16.28 32.88 C21.45 30.78, 23.71 26.15, 32.68 15.44 M16.22 32.46 C20.69 27.17, 26.12 22.08, 32.11 15.91" stroke="#ced4da" stroke-width="0.5" fill="none"></path><path d="M20.92 0.49 C23.94 1.4, 28.21 4.75, 29.65 7.81 C31.09 10.86, 30.34 15.54, 29.57 18.83 C28.8 22.11, 27.64 25.59, 25.03 27.53 C22.41 29.46, 17.31 30.71, 13.89 30.42 C10.48 30.13, 6.72 28.08, 4.55 25.76 C2.38 23.45, 1.24 19.69, 0.88 16.52 C0.53 13.35, 0.82 9.54, 2.4 6.75 C3.97 3.97, 7.13 0.62, 10.35 -0.16 C13.56 -0.95, 19.63 1.53, 21.67 2.05 C23.7 2.58, 22.47 2.78, 22.55 2.98 M15.46 0.95 C18.16 1, 21.1 2.22, 23.43 4.19 C25.76 6.16, 28.74 9.65, 29.45 12.78 C30.15 15.91, 28.88 19.97, 27.67 22.95 C26.45 25.93, 24.76 29.28, 22.17 30.66 C19.58 32.04, 15.66 32.56, 12.11 31.22 C8.57 29.89, 2.87 25.84, 0.92 22.68 C-1.03 19.51, -0.08 15.23, 0.42 12.22 C0.92 9.22, 1.3 6.62, 3.91 4.66 C6.52 2.69, 14.08 0.95, 16.11 0.44 C18.13 -0.08, 16.19 1.17, 16.05 1.59" stroke="#000000" stroke-width="1" fill="none"></path></g><g stroke-linecap="round" transform="translate(349.9592188558331 426.5714154924665) rotate(0 15.42859758649547 15.428575788225544)"><path d="M6.2 1.42 C6.2 1.42, 6.2 1.42, 6.2 1.42 M6.2 1.42 C6.2 1.42, 6.2 1.42, 6.2 1.42 M1.86 11.67 C4.29 7.41, 9.49 4.88, 12.83 0.47 M1.47 11.99 C4.29 9.63, 8.37 5.78, 12.54 1.09 M1.25 17.66 C5.01 13.36, 8.98 6.61, 16.14 1.27 M3.01 18.31 C5.74 12.77, 9.61 9.06, 17.41 2.23 M4.66 22.73 C10.5 15.41, 17.13 9.36, 21.07 2.63 M2 24.63 C9.67 17.07, 15.62 10.34, 22.01 2.69 M6.89 27.6 C8.64 20.3, 16.14 13.41, 25.72 4.31 M5.84 26.35 C11.17 21.07, 15.95 15.32, 25.92 2.83 M8.69 28.9 C16.12 23.73, 21.64 13.2, 30.44 7.94 M8.33 30.13 C13.16 24.65, 19.16 17.96, 27.85 7.21 M13.06 28.15 C20.72 24.09, 26.77 14.77, 30.58 10.93 M13.62 30.77 C17.55 23.32, 23.96 17.01, 31.04 9.4 M18 31.95 C22.49 27.66, 24.45 24.28, 31.04 15.01 M17.58 30.18 C22.2 25.66, 27.02 19.45, 31.5 14.37" stroke="#ced4da" stroke-width="0.5" fill="none"></path><path d="M16.28 0.57 C19.31 0.63, 23.51 1.45, 25.93 3.78 C28.34 6.12, 30.49 11.27, 30.79 14.59 C31.09 17.91, 29.74 21.13, 27.74 23.69 C25.73 26.26, 22.12 28.93, 18.78 30 C15.44 31.06, 10.76 31.46, 7.72 30.08 C4.68 28.69, 1.76 24.9, 0.52 21.67 C-0.72 18.44, -0.62 14.01, 0.28 10.69 C1.18 7.36, 2.65 3.59, 5.92 1.74 C9.19 -0.11, 17.18 -0.47, 19.91 -0.41 C22.64 -0.36, 22.38 1.68, 22.29 2.08 M22.26 -0.22 C25.62 0.51, 28.63 4.34, 30.12 7.26 C31.61 10.18, 32.01 13.77, 31.19 17.31 C30.37 20.85, 27.8 26.03, 25.23 28.5 C22.65 30.98, 18.93 32.69, 15.74 32.16 C12.55 31.63, 8.86 27.71, 6.09 25.31 C3.31 22.9, -0.1 20.94, -0.92 17.73 C-1.73 14.52, -0.83 8.66, 1.22 6.05 C3.27 3.44, 7.97 2.67, 11.39 2.07 C14.81 1.47, 19.9 2.49, 21.75 2.46 C23.6 2.44, 22.41 2.13, 22.47 1.93" stroke="#000000" stroke-width="1" fill="none"></path></g><g stroke-linecap="round" transform="translate(276.53061255002876 353.14289637974366) rotate(0 15.5 17.5)"><path d="M5.56 3.51 C5.56 3.51, 5.56 3.51, 5.56 3.51 M5.56 3.51 C5.56 3.51, 5.56 3.51, 5.56 3.51 M1.25 12.59 C4.61 10.3, 9.93 5.91, 12.55 0.63 M1.62 12.97 C5.19 11.55, 7.06 8.68, 13.25 0.74 M2.08 17.86 C8.19 11.28, 11.85 5.74, 18.7 -0.08 M2.74 18.7 C6.52 13.07, 12.1 8.87, 19.66 1.08 M1.25 26.96 C9.24 17.97, 18.48 7.89, 21.97 3.78 M3.15 26.48 C8.9 19.31, 15.44 12.45, 22.02 2.58 M5.77 26.78 C10.8 21.54, 16.27 13.46, 26.21 4.31 M4.51 29.13 C13.51 19.09, 22.06 10.17, 24.73 5.49 M6.7 32.11 C15.9 23.4, 19.73 19.44, 29.58 7.79 M7.93 30.78 C14.22 24.94, 19.31 18.25, 28.85 9.14 M9.36 34.53 C17.26 28.97, 19.86 23.75, 30.14 12.73 M11.99 32.61 C16.04 27.47, 21.2 22.1, 28.61 11.79 M17.8 35.12 C20.5 30.03, 24.12 25.73, 31.69 17.34 M16.02 33.19 C23.01 26.49, 28.27 20.9, 31.05 16.8" stroke="#ced4da" stroke-width="0.5" fill="none"></path><path d="M17 -0.54 C20.09 -0.41, 22.95 2.17, 25.31 4.82 C27.67 7.48, 30.8 11.73, 31.18 15.39 C31.57 19.05, 29.57 23.81, 27.62 26.8 C25.67 29.78, 22.39 32.34, 19.46 33.32 C16.52 34.3, 13.02 34.09, 10.03 32.69 C7.04 31.29, 3.22 28.3, 1.53 24.94 C-0.15 21.58, -0.73 16.04, -0.09 12.5 C0.56 8.96, 2.27 5.61, 5.41 3.68 C8.54 1.76, 15.82 1.17, 18.73 0.97 C21.65 0.78, 22.81 2.14, 22.89 2.5 M7.65 2.6 C10.14 0.87, 15.37 0.43, 18.56 1.32 C21.75 2.21, 24.6 4.82, 26.8 7.96 C29 11.09, 31.61 16.27, 31.77 20.12 C31.92 23.96, 30.46 28.73, 27.71 31.03 C24.96 33.33, 18.74 33.97, 15.26 33.89 C11.78 33.82, 9.46 32.47, 6.82 30.57 C4.18 28.68, 0.07 25.88, -0.59 22.53 C-1.25 19.17, 1.03 13.71, 2.85 10.43 C4.67 7.15, 9.19 4.05, 10.33 2.86 C11.46 1.67, 9.96 3.38, 9.63 3.29" stroke="#000000" stroke-width="1" fill="none"></path></g><g stroke-linecap="round" transform="translate(234.81639659020902 352.2857012067527) rotate(0 15.42859758649547 15.428575788225544)"><path d="M3.19 5.42 C3.19 5.42, 3.19 5.42, 3.19 5.42 M3.19 5.42 C3.19 5.42, 3.19 5.42, 3.19 5.42 M-1.63 13.97 C3.74 12.48, 6.63 8.42, 12.52 -0.93 M-1.19 16.24 C3.8 11.83, 7.08 8.39, 12.64 0.94 M-0.11 19.9 C4.9 12.11, 10.92 7.97, 16.57 1.41 M0.74 18.95 C4.16 15.58, 9.03 12.23, 17.73 2.49 M4.3 23.19 C8.64 19.64, 11.89 13.59, 22.79 2.28 M3.82 24.28 C8.4 19.14, 13.28 13.28, 21.59 2.17 M3.86 26.46 C12.66 17.8, 18.64 12.72, 24.47 6.49 M6.21 27.68 C12.32 20.36, 19.56 10.65, 25.65 4.55 M10.24 30.93 C13.15 23.42, 20.81 19.57, 27.59 6.48 M8.92 30 C14.94 23.13, 20.14 16.47, 28.94 6.64 M13.71 32.47 C17.75 25.64, 22.11 21.4, 31.42 9.63 M11.79 30.32 C16.71 25.47, 21.41 20.77, 30.47 9.06 M16.96 34.4 C20.3 29.33, 24.42 23.05, 33.04 16.88 M15.03 34.52 C19.07 29.36, 24.2 23.47, 32.5 15.32" stroke="#ced4da" stroke-width="0.5" fill="none"></path><path d="M11.08 -0.43 C14.19 -1.43, 19.08 0.36, 22.12 1.82 C25.16 3.28, 28.02 5.43, 29.31 8.34 C30.6 11.24, 30.89 15.81, 29.85 19.25 C28.82 22.68, 25.92 27.05, 23.11 28.96 C20.31 30.87, 16.21 31.26, 13.03 30.71 C9.85 30.16, 6.36 28.17, 4.05 25.65 C1.75 23.14, -0.67 19.01, -0.81 15.63 C-0.95 12.26, 0.66 7.96, 3.21 5.4 C5.76 2.85, 12.2 1.19, 14.47 0.33 C16.75 -0.53, 16.74 0.21, 16.84 0.27 M20.06 -0.61 C23.12 -0.08, 26.68 1.84, 28.54 4.81 C30.4 7.79, 31.39 13.46, 31.23 17.22 C31.07 20.98, 29.76 25.38, 27.59 27.38 C25.43 29.39, 21.86 29.06, 18.24 29.26 C14.61 29.46, 8.98 30.33, 5.85 28.57 C2.72 26.81, 0.09 21.69, -0.57 18.7 C-1.23 15.71, 0.3 13.25, 1.89 10.62 C3.48 7.98, 5.91 4.52, 8.98 2.9 C12.05 1.28, 18.42 1.48, 20.31 0.9 C22.21 0.31, 20.77 -0.79, 20.35 -0.6" stroke="#000000" stroke-width="1" fill="none"></path></g><g stroke-linecap="round" transform="translate(780.5306823044943 104.85711233956499) rotate(0 63.42856270926336 60.000021798270154)"><path d="M40.09 3.85 C48.45 -0.04, 61.63 -0.82, 71.41 0.25 C81.18 1.31, 90.76 5.08, 98.73 10.23 C106.7 15.39, 114.41 23.02, 119.23 31.18 C124.04 39.35, 127.58 49.82, 127.62 59.22 C127.67 68.63, 124.29 79.4, 119.5 87.62 C114.71 95.85, 107.12 103.19, 98.89 108.56 C90.65 113.93, 79.93 118.55, 70.1 119.86 C60.26 121.16, 48.87 119.72, 39.89 116.39 C30.91 113.07, 22.55 106.78, 16.19 99.9 C9.83 93.02, 4.27 84.06, 1.74 75.09 C-0.79 66.12, -1.48 55.37, 1 46.06 C3.48 36.75, 9.2 26.6, 16.61 19.24 C24.02 11.89, 39.99 4.85, 45.45 1.96 C50.92 -0.94, 49.16 0.69, 49.41 1.85 M82.35 2.15 C91.32 3.77, 102.87 10.47, 109.7 17.48 C116.54 24.49, 120.5 35.02, 123.36 44.23 C126.22 53.44, 128.48 63.54, 126.86 72.75 C125.24 81.96, 120.03 92.14, 113.63 99.47 C107.22 106.79, 97.93 113.47, 88.43 116.71 C78.93 119.94, 66.49 120.05, 56.64 118.88 C46.79 117.72, 37.33 114.65, 29.33 109.73 C21.34 104.8, 13.76 97.12, 8.68 89.34 C3.59 81.57, -0.85 72.42, -1.17 63.06 C-1.5 53.7, 2.51 41.55, 6.74 33.16 C10.96 24.78, 16.31 17.93, 24.18 12.76 C32.06 7.6, 43.94 3.79, 53.98 2.17 C64.01 0.54, 79.3 2.51, 84.42 3.03 C89.54 3.54, 85.08 4.18, 84.71 5.24" stroke="#000000" stroke-width="1" fill="none"></path></g><g stroke-linecap="round" transform="translate(789.1021108759219 310.8571297781807) rotate(0 63.42856270926336 60.000021798270154)"><path d="M78.87 2.09 C88.22 3.41, 98.26 8.42, 105.52 14.51 C112.78 20.59, 119.11 29.64, 122.42 38.6 C125.73 47.56, 126.68 59.01, 125.38 68.28 C124.08 77.56, 120.13 86.84, 114.62 94.25 C109.12 101.66, 101.05 108.6, 92.33 112.73 C83.6 116.87, 72 119.2, 62.28 119.08 C52.55 118.96, 42.46 116.16, 33.97 112 C25.49 107.84, 16.93 101.65, 11.37 94.12 C5.8 86.6, 1.64 76.28, 0.58 66.86 C-0.48 57.44, 1.43 46.15, 5.02 37.59 C8.6 29.04, 14.97 21.4, 22.07 15.52 C29.17 9.65, 37.86 4.45, 47.62 2.35 C57.37 0.24, 74.83 2.53, 80.61 2.9 C86.39 3.26, 82.4 3.56, 82.31 4.55 M89.39 6 C97.85 9.02, 106.61 15.12, 112.81 22.71 C119.02 30.3, 124.73 41.97, 126.6 51.54 C128.48 61.11, 127.05 71.43, 124.08 80.11 C121.11 88.78, 115.68 97.58, 108.78 103.61 C101.87 109.63, 92.44 113.69, 82.65 116.24 C72.86 118.8, 60.04 120.48, 50.05 118.93 C40.05 117.38, 30.21 113.03, 22.67 106.96 C15.12 100.88, 8.37 91, 4.79 82.48 C1.21 73.96, 0.48 65.13, 1.17 55.83 C1.85 46.52, 3.68 34.56, 8.9 26.67 C14.11 18.79, 23.6 12.85, 32.47 8.51 C41.34 4.17, 52.48 0.88, 62.11 0.63 C71.75 0.37, 85.48 5.89, 90.27 6.98 C95.05 8.08, 91.14 6.57, 90.81 7.2" stroke="#000000" stroke-width="1" fill="none"></path></g><g stroke-linecap="round" transform="translate(825.6735045701175 272.2857012067518) rotate(0 15.42859758649547 15.428575788225544)"><path d="M3.15 6.71 C3.15 6.71, 3.15 6.71, 3.15 6.71 M3.15 6.71 C3.15 6.71, 3.15 6.71, 3.15 6.71 M-0.98 18.95 C1.6 13.55, 4.16 8.94, 11.31 0.85 M-1.2 18.57 C1.92 13.96, 5.26 10.88, 12.15 1.62 M0.16 19.57 C5.41 15.75, 8.89 10.76, 18.94 2.8 M2.02 20.84 C6.7 16.68, 10.48 11.15, 18.65 1.7 M5.27 23.55 C11.19 16.58, 17.99 7.08, 21.12 4.51 M5.09 24.48 C11.34 15.1, 18.24 8.01, 23.57 2.81 M3.58 28.76 C10.68 22.62, 16.39 19.11, 27.09 3.82 M6.34 28.96 C12.19 20.2, 20.61 10.41, 26.31 4.39 M9.57 31.58 C18.01 21.37, 22.36 14.33, 30.37 7.25 M10.52 28.98 C15.85 24.28, 19.65 16.74, 28.69 6.84 M14.35 30.37 C20.37 24.22, 24.82 16.24, 30.7 14.21 M13.89 30.82 C16.89 25.82, 20.11 22.8, 29.72 13.45 M21.7 28.68 C24.29 25.92, 29.04 20.09, 29.98 17.27 M21.27 29.03 C22.43 27.13, 25.17 23.31, 30.97 17.35" stroke="#ced4da" stroke-width="0.5" fill="none"></path><path d="M11.33 0.44 C14.31 -0.71, 17.9 -0.33, 20.81 0.86 C23.73 2.05, 27.12 4.68, 28.85 7.57 C30.58 10.46, 31.91 14.88, 31.19 18.21 C30.47 21.53, 27.41 25.56, 24.53 27.53 C21.66 29.49, 17.39 30.08, 13.95 29.98 C10.51 29.88, 6.36 28.99, 3.88 26.91 C1.41 24.82, -0.72 20.79, -0.89 17.48 C-1.07 14.17, 0.53 9.81, 2.85 7.06 C5.16 4.31, 11.08 2.01, 12.99 0.96 C14.9 -0.08, 14.14 0.82, 14.3 0.78 M19.06 1.27 C22.4 2.16, 27.37 5.57, 29.52 8.52 C31.67 11.47, 32.9 16.06, 31.98 18.98 C31.06 21.91, 26.68 24.29, 24.01 26.07 C21.33 27.85, 19.16 29.34, 15.92 29.66 C12.68 29.98, 6.96 29.8, 4.58 27.98 C2.2 26.16, 1.85 21.87, 1.63 18.73 C1.41 15.59, 1.79 11.88, 3.25 9.16 C4.72 6.43, 7.77 3.91, 10.43 2.38 C13.08 0.85, 17.5 0.31, 19.18 -0.03 C20.86 -0.37, 20.32 0.02, 20.51 0.35" stroke="#000000" stroke-width="1" fill="none"></path></g><g stroke-linecap="round" transform="translate(829.9592188558331 229.42855834960938) rotate(0 15.42859758649547 15.42857578822543)"><path d="M8.51 0.77 C8.51 0.77, 8.51 0.77, 8.51 0.77 M8.51 0.77 C8.51 0.77, 8.51 0.77, 8.51 0.77 M5.29 11.15 C6.2 8.15, 7.7 5.68, 13.45 -0.88 M5.01 11.76 C7.71 7.91, 11.56 3.02, 14.03 -0.17 M1.39 20.24 C6.97 14.25, 11.35 9.63, 19.78 -0.51 M2.65 21.2 C6.63 16.87, 9.19 12.57, 18.69 1.35 M4.35 23.87 C9.73 18.53, 12.59 11.22, 24.15 4.88 M5.29 23.93 C9.88 16.84, 16.77 10.56, 22.45 2.58 M7.03 27.81 C10.87 23.66, 17.35 17.62, 23.86 7.55 M7.23 26.34 C13.64 19.62, 19.01 13, 24.43 6.56 M11.76 31.45 C16.56 20.75, 24.52 14.86, 27.68 8.24 M9.16 30.72 C17.76 20.8, 23.53 13.11, 27.27 9.08 M14.52 31.42 C20.28 23.88, 24.22 18.23, 31.47 10.77 M14.97 29.89 C17.15 25.96, 21.31 22.45, 30.7 13.32 M18.27 31.73 C24.14 28.36, 26.12 21.08, 30.62 16.18 M18.71 31.13 C24.4 26.15, 27.65 20.85, 30.72 16.74" stroke="#ced4da" stroke-width="0.5" fill="none"></path><path d="M8.51 0.77 C11.19 -0.89, 15.71 -0.99, 18.79 0.08 C21.86 1.14, 25.09 4.43, 26.96 7.16 C28.82 9.9, 30.11 13.4, 29.98 16.48 C29.86 19.56, 28.49 23.42, 26.19 25.65 C23.88 27.88, 19.34 29.6, 16.15 29.86 C12.96 30.12, 9.6 28.86, 7.05 27.2 C4.51 25.54, 1.82 22.94, 0.9 19.92 C-0.03 16.89, -0.14 12.32, 1.51 9.02 C3.15 5.73, 9.05 1.39, 10.77 0.13 C12.5 -1.13, 12.06 0.98, 11.87 1.48 M10.57 1.76 C13.5 0.96, 18.48 1.51, 21.7 2.25 C24.92 3, 28.56 3.54, 29.88 6.23 C31.19 8.92, 30.53 15.08, 29.57 18.41 C28.62 21.73, 26.4 23.86, 24.14 26.16 C21.88 28.47, 19.05 31.82, 16.02 32.21 C12.98 32.61, 8.34 30.8, 5.92 28.53 C3.5 26.25, 1.91 22.26, 1.49 18.56 C1.08 14.87, 2.16 9.29, 3.45 6.37 C4.75 3.45, 8.27 1.83, 9.27 1.03 C10.27 0.23, 9.29 1.55, 9.46 1.57" stroke="#000000" stroke-width="1" fill="none"></path></g><g stroke-linecap="round" transform="translate(825.6735045701175 69.42855834960938) rotate(0 15.42859758649547 15.428575788225544)"><path d="M5.24 4.55 C5.24 4.55, 5.24 4.55, 5.24 4.55 M5.24 4.55 C5.24 4.55, 5.24 4.55, 5.24 4.55 M0.97 14.47 C5.02 8.04, 9.79 2.76, 13.15 0.93 M1.79 14.6 C7.21 9.02, 11.24 2.83, 14.09 -0.28 M1.98 19.84 C5.78 14.73, 10.94 12.51, 17.91 -0.81 M2.94 20.99 C6.9 15.14, 10.89 10.76, 19.77 0.41 M3.28 25.95 C10.67 15.66, 16.12 10.38, 25 2.69 M3.33 24.76 C10.4 17.1, 18.32 8.72, 22.7 1.47 M6.86 27.24 C15.22 20.9, 21.65 10.54, 28.06 5.36 M5.38 28.43 C12.22 20.11, 19.2 12.47, 27.07 5.4 M10.89 29.97 C13.59 24.65, 21.11 17.98, 28.49 9.64 M10.16 31.32 C14.48 23.1, 21.07 15.77, 29.33 8.61 M12.76 33.4 C18.19 24.31, 25.48 20.47, 29.26 9.91 M11.24 32.46 C17.44 26.06, 24 20.32, 31.81 11.64 M20.22 31.22 C25.96 24.05, 27.61 19.76, 32.71 15.7 M19.58 30.67 C23.18 25.54, 26.46 22.68, 33.3 14.02" stroke="#ced4da" stroke-width="0.5" fill="none"></path><path d="M14.43 -0.42 C17.46 -0.79, 21.96 0.47, 24.78 2.49 C27.6 4.51, 30.67 8.34, 31.35 11.7 C32.02 15.06, 30.66 19.76, 28.83 22.64 C27.01 25.52, 23.62 27.72, 20.39 29 C17.16 30.28, 12.64 31.18, 9.44 30.29 C6.24 29.4, 2.68 26.51, 1.19 23.65 C-0.31 20.78, -0.2 16.31, 0.48 13.12 C1.15 9.94, 2.83 6.65, 5.25 4.54 C7.67 2.43, 13.02 1.33, 15 0.48 C16.97 -0.37, 16.86 -0.64, 17.11 -0.58 M19.82 1.4 C23.38 2.04, 27.54 4.98, 29.12 7.29 C30.71 9.61, 29.7 12.35, 29.33 15.27 C28.97 18.2, 29.14 22.14, 26.94 24.82 C24.74 27.5, 19.24 30.7, 16.13 31.35 C13.03 32.01, 10.67 30.45, 8.31 28.74 C5.94 27.04, 3.04 24.13, 1.94 21.12 C0.84 18.11, 0.86 14.09, 1.73 10.7 C2.6 7.3, 4.27 2.6, 7.17 0.75 C10.06 -1.1, 17.07 -0.32, 19.09 -0.39 C21.1 -0.46, 19.55 -0.2, 19.27 0.35" stroke="#000000" stroke-width="1" fill="none"></path></g><g stroke-linecap="round" transform="translate(828.5306474272606 19.428558349609375) rotate(0 15.42859758649547 15.428575788225544)"><path d="M7.93 1.6 C7.93 1.6, 7.93 1.6, 7.93 1.6 M7.93 1.6 C7.93 1.6, 7.93 1.6, 7.93 1.6 M3.53 11.38 C5.94 7.76, 9.28 3.89, 15.27 1.8 M3.63 12.88 C6.8 8.61, 9.48 5.04, 14.3 -0.21 M2.94 18.71 C5.28 16.52, 10.5 10.42, 17 0.18 M4.1 19.8 C7.38 14.43, 12.13 8.82, 18.23 2.17 M5.22 24.11 C9.51 15.14, 18.82 11.18, 23.06 4.56 M4.03 24 C11.36 16.98, 17.97 7.67, 21.85 3.85 M6.9 28.33 C12.28 23.46, 13.64 19.39, 26.13 6.29 M8.09 26.38 C14.07 19.08, 20.75 11, 26.17 5.67 M9.37 29.07 C15.51 24.87, 20.33 16.46, 30.71 8.09 M10.72 29.23 C16.72 21.25, 23.6 13.45, 29.68 8.17 M15.17 29.96 C17.62 25.93, 25.32 17.93, 29.31 12.21 M14.22 29.38 C18 26.29, 22.43 22.99, 31.04 12.09 M20.73 32.67 C22.92 24.93, 27.99 19.3, 34.18 14.46 M20.18 31.12 C22.83 26.5, 27.77 20.31, 32.5 16.16" stroke="#ced4da" stroke-width="0.5" fill="none"></path><path d="M17.14 -0.24 C20.15 0.25, 23.76 3.35, 25.9 5.86 C28.05 8.36, 29.78 11.72, 30.01 14.8 C30.25 17.89, 29.32 21.92, 27.29 24.39 C25.25 26.85, 20.94 28.98, 17.8 29.6 C14.67 30.21, 11.22 29.42, 8.49 28.07 C5.76 26.72, 2.71 24.42, 1.44 21.5 C0.18 18.59, -0.19 13.92, 0.9 10.59 C2 7.26, 4.94 3.09, 8.02 1.49 C11.11 -0.1, 17.54 0.98, 19.41 1.03 C21.28 1.07, 19.51 1.52, 19.26 1.75 M9.23 3.09 C12.04 1.07, 16.9 -1.68, 19.79 -1.14 C22.68 -0.61, 24.94 3.59, 26.58 6.28 C28.23 8.96, 29.5 11.47, 29.65 14.95 C29.79 18.43, 29.4 24.32, 27.45 27.16 C25.49 30.01, 21.09 31.71, 17.92 32.01 C14.76 32.3, 11.09 31.14, 8.45 28.94 C5.82 26.74, 3.48 22, 2.11 18.79 C0.74 15.58, -0.63 12.46, 0.26 9.68 C1.15 6.91, 6.15 3.6, 7.44 2.13 C8.74 0.65, 7.61 0.59, 8.03 0.83" stroke="#000000" stroke-width="1" fill="none"></path></g><g stroke-linecap="round" transform="translate(831.959253733065 425.42857578822554) rotate(0 15.42859758649547 15.428575788225544)"><path d="M3.24 5.46 C3.24 5.46, 3.24 5.46, 3.24 5.46 M3.24 5.46 C3.24 5.46, 3.24 5.46, 3.24 5.46 M-1.08 13.75 C4.03 8.17, 8.81 4.6, 15.82 -1.26 M0.79 15.1 C5.17 8.51, 10.43 2.53, 13.31 -1.88 M1.19 18.35 C7.17 15.25, 9.23 7.83, 17.07 0.25 M2.28 19.16 C8.26 12.2, 14.04 5.3, 19.07 0.61 M3.41 22.74 C7.32 19.14, 16.23 11.29, 23.91 2.78 M3.3 24.25 C11.5 15.6, 17.41 6.21, 23.21 0.36 M8.02 27.57 C13.74 17.99, 20.27 12.89, 26.7 5.05 M6.07 26.13 C13.86 17.65, 20.82 11.29, 26.07 3.06 M8.4 29.39 C18.39 19.71, 24.19 13.02, 28.99 8.11 M8.56 28.59 C13.48 22.77, 18.6 19.14, 29.07 6.33 M11.95 30.08 C18.86 26.59, 21.83 16.97, 30.68 9.01 M11.37 31.58 C19.3 24.63, 26.97 16.16, 30.57 11.11 M19.06 30.59 C20.2 27.06, 23.26 25.11, 28.05 18.45 M17.65 30.69 C21.9 26.65, 24.72 22.62, 29.59 18.04" stroke="#ced4da" stroke-width="0.5" fill="none"></path><path d="M13.52 -0.91 C16.88 -1.48, 22.12 -0.12, 24.9 1.86 C27.68 3.84, 29.54 7.78, 30.22 10.96 C30.89 14.14, 30.46 17.83, 28.96 20.94 C27.45 24.05, 24.24 28, 21.19 29.63 C18.13 31.25, 13.61 31.53, 10.61 30.69 C7.61 29.84, 4.94 27.18, 3.17 24.57 C1.39 21.97, -0.1 18.28, -0.04 15.04 C0.02 11.8, 0.68 7.77, 3.54 5.12 C6.39 2.46, 14.42 -0.04, 17.1 -0.89 C19.78 -1.74, 19.66 -0.22, 19.62 0.03 M18.82 1.22 C21.57 1.11, 23.29 1.93, 25.34 4 C27.4 6.07, 30.93 10.04, 31.13 13.61 C31.33 17.19, 28.39 22.58, 26.54 25.47 C24.7 28.35, 22.9 30.11, 20.07 30.93 C17.23 31.74, 12.62 31.73, 9.54 30.35 C6.47 28.97, 3.31 26.08, 1.62 22.66 C-0.07 19.24, -1.55 13.35, -0.6 9.84 C0.34 6.33, 4.21 3.26, 7.29 1.58 C10.37 -0.1, 16.36 -0.2, 17.86 -0.23 C19.35 -0.25, 16.26 1.24, 16.24 1.42" stroke="#000000" stroke-width="1" fill="none"></path></g><g stroke-linecap="round" transform="translate(837.6735394473512 461.4285932268415) rotate(0 15.42859758649547 15.428575788225544)"><path d="M2.39 8.7 C2.39 8.7, 2.39 8.7, 2.39 8.7 M2.39 8.7 C2.39 8.7, 2.39 8.7, 2.39 8.7 M0.62 14.79 C3.37 11.69, 7.64 11.23, 11.09 5.92 M1.64 15.42 C4.4 11.76, 7.63 8.2, 10.63 4.27 M1.76 21.21 C8.7 13.21, 11.32 7.51, 19.68 2.26 M2.57 20.92 C8.92 13.2, 15.34 5.93, 20.04 1.07 M4.37 21.78 C12.9 18.6, 17.16 11.96, 24.77 4.67 M5.89 24.23 C11.59 16.05, 16.55 10.75, 22.35 3.1 M7.63 29.62 C11.94 22.05, 20.72 13.13, 28.19 6.47 M6.19 28.84 C10.09 23.81, 16.11 17.82, 26.2 6.58 M11.16 31 C17.54 20.92, 26.91 13.31, 30.89 6.91 M10.36 29.32 C17.13 21.54, 26.1 12.92, 29.11 8.42 M12.9 32.15 C21.3 23.34, 23.57 19.52, 28.71 14.76 M14.4 31.16 C18.72 28.26, 21.52 24.02, 30.81 13.01 M17.39 31.96 C21.58 27.14, 27.54 22.6, 32.12 18.48 M17.5 33.28 C20.65 29, 23.83 26.72, 31.66 17.24" stroke="#ced4da" stroke-width="0.5" fill="none"></path><path d="M8.63 1.9 C11.4 0.59, 16.07 -0.12, 19.33 0.68 C22.59 1.47, 26.43 4.04, 28.18 6.69 C29.94 9.35, 30.22 13.42, 29.86 16.62 C29.51 19.82, 28.33 23.46, 26.07 25.88 C23.81 28.29, 19.64 30.85, 16.32 31.12 C12.99 31.4, 8.65 29.74, 6.11 27.52 C3.58 25.3, 1.77 20.93, 1.13 17.81 C0.49 14.7, 0.68 11.62, 2.26 8.84 C3.84 6.07, 8.83 2.5, 10.6 1.17 C12.36 -0.15, 12.79 0.71, 12.84 0.89 M20.74 -0.91 C23.48 -0.41, 25.69 4.26, 27.16 7.07 C28.63 9.88, 29.64 12.46, 29.58 15.93 C29.51 19.39, 28.87 25.17, 26.76 27.87 C24.66 30.56, 20.14 32.02, 16.95 32.11 C13.76 32.19, 10.16 30.77, 7.64 28.39 C5.12 26.01, 3.01 21.12, 1.84 17.85 C0.68 14.58, -0.42 11.48, 0.66 8.79 C1.74 6.1, 5.22 3.27, 8.33 1.7 C11.43 0.13, 17.25 -0.56, 19.29 -0.62 C21.33 -0.68, 20.7 1.14, 20.55 1.35" stroke="#000000" stroke-width="1" fill="none"></path></g><g stroke-linecap="round" transform="translate(934.8165709763684 20.2856663295197) rotate(0 63.5 60.000021798270154)"><path d="M50.33 1.08 C59.43 -1.72, 71.79 -0.56, 81.22 1.94 C90.65 4.44, 99.75 9.65, 106.91 16.05 C114.06 22.45, 120.89 31.31, 124.14 40.34 C127.39 49.38, 128.08 60.94, 126.43 70.25 C124.77 79.57, 120.07 89.03, 114.19 96.24 C108.32 103.45, 100.03 109.44, 91.17 113.5 C82.31 117.55, 71.15 120.73, 61.04 120.56 C50.93 120.39, 39.18 117.18, 30.5 112.46 C21.81 107.73, 14.15 100.19, 8.93 92.23 C3.72 84.28, -0.27 73.98, -0.79 64.74 C-1.32 55.51, 1.57 45.27, 5.78 36.81 C10 28.36, 16.59 20.17, 24.51 14.02 C32.43 7.87, 47.75 2.16, 53.3 -0.06 C58.84 -2.29, 57.56 -0.5, 57.76 0.67 M92.49 6.49 C101.47 9.11, 110.5 15.63, 115.98 23.05 C121.46 30.47, 124.24 41.53, 125.37 51 C126.5 60.47, 125.85 71.29, 122.75 79.86 C119.64 88.43, 113.57 96.03, 106.71 102.42 C99.86 108.82, 91.15 115.77, 81.61 118.24 C72.06 120.71, 59.06 119.21, 49.44 117.25 C39.81 115.3, 31.03 112.12, 23.84 106.51 C16.65 100.9, 10.27 92.03, 6.31 83.6 C2.35 75.17, -0.71 65.2, 0.08 55.92 C0.87 46.63, 5.6 35.98, 11.05 27.89 C16.5 19.81, 24.47 12.25, 32.78 7.4 C41.1 2.55, 51.12 -1.1, 60.95 -1.21 C70.78 -1.32, 87.02 5.37, 91.76 6.73 C96.5 8.09, 90.07 6.33, 89.4 6.96" stroke="#000000" stroke-width="1" fill="none"></path></g><g stroke-linecap="round"><g transform="translate(1081.1022765427756 86.57143729073687) rotate(0 42.0105542819947 -0.00908229287267659)"><path d="M-0.47 -1.18 C6.7 -1.07, 27.9 0.01, 42.06 0.14 C56.22 0.28, 77.51 -0.18, 84.49 -0.37 M1.49 0.82 C8.65 1.09, 27.89 1.17, 41.59 1.16 C55.29 1.15, 76.64 1.02, 83.68 0.75" stroke="#000000" stroke-width="1" fill="none"></path></g></g><g transform="translate(1185.1023462972394 70.71426827566938) rotate(0 90.5 14)"><text x="0" y="21" font-family="Virgil, Segoe UI Emoji" font-size="20px" fill="#000000" text-anchor="start" style="white-space: pre;" direction="ltr"></text></g><g stroke-linecap="round" transform="translate(973.6736440790487 205.42857578822532) rotate(0 15.42859758649547 15.428575788225544)"><path d="M4.45 3.87 C4.45 3.87, 4.45 3.87, 4.45 3.87 M4.45 3.87 C4.45 3.87, 4.45 3.87, 4.45 3.87 M-0.04 16.65 C3.31 10.99, 7 8.27, 12.89 -1.38 M-0.65 14.45 C3.31 11.05, 6.39 7.01, 14.65 -0.73 M1.41 20.83 C6.89 16.73, 10.69 9.97, 18.92 0.67 M1.77 19.64 C7.13 13.39, 12.91 5.9, 16.26 2.57 M3.88 26.26 C9.8 15.25, 16.95 8.72, 23.12 3.28 M1.45 24.69 C7.01 19.32, 11.83 15.31, 22.07 2.03 M7.3 28.05 C11.65 19.13, 21.04 8.11, 27.54 1.56 M5.3 28.16 C13.51 18.39, 19.78 10.15, 27.19 2.79 M10.65 27.75 C16.16 24.52, 18.41 15.61, 27.98 5.34 M8.87 29.25 C15.77 21.57, 21.98 13, 28.53 7.96 M10.44 33.33 C13.98 26.07, 18.04 22.78, 30.29 12.16 M12.54 31.58 C18.44 24.87, 25.84 16.11, 29.87 10.39 M19.09 31.01 C19.67 28.87, 24.33 21.72, 33.14 13.44 M18.64 29.77 C21.64 26.39, 24.44 24.6, 32.24 14.56" stroke="#ced4da" stroke-width="0.5" fill="none"></path><path d="M14.06 -0.91 C17.29 -1.29, 22.43 0.05, 25.23 2.29 C28.03 4.53, 30.17 9.13, 30.83 12.51 C31.49 15.9, 30.67 19.87, 29.2 22.6 C27.72 25.33, 24.99 27.53, 21.98 28.88 C18.97 30.23, 14.55 31.49, 11.12 30.72 C7.69 29.95, 3.35 27.09, 1.41 24.26 C-0.53 21.43, -1 17.07, -0.54 13.73 C-0.09 10.39, 1.33 6.4, 4.15 4.22 C6.97 2.04, 14.14 1.18, 16.37 0.66 C18.61 0.14, 17.85 1.05, 17.58 1.08 M17.51 1.43 C20.92 1.93, 24.42 3.69, 26.85 5.9 C29.28 8.11, 31.65 11.82, 32.07 14.68 C32.49 17.54, 31.65 20.42, 29.37 23.05 C27.09 25.68, 21.96 29.36, 18.4 30.47 C14.84 31.58, 10.88 31.35, 7.98 29.71 C5.09 28.07, 2.1 23.61, 1.02 20.62 C-0.05 17.63, 0.73 14.99, 1.54 11.77 C2.35 8.55, 3.16 3.18, 5.87 1.29 C8.59 -0.6, 15.76 0.5, 17.84 0.44 C19.91 0.39, 18.53 0.54, 18.32 0.95" stroke="#000000" stroke-width="1" fill="none"></path></g><g stroke-linecap="round"><g transform="translate(1053.673774868667 234.00002615792437) rotate(0 57.600632169576784 2.558554327224442)"><path d="M-1 -0.08 C18.56 0.61, 96.77 4.3, 116.2 5.08 M0.68 -1.17 C20.15 -0.41, 95.52 5.2, 115.06 6.29" stroke="#000000" stroke-width="1" fill="none"></path></g></g><g transform="translate(1190.5308130941148 215.85713413783515) rotate(0 50.5 14)"><text x="0" y="21" font-family="Virgil, Segoe UI Emoji" font-size="20px" fill="#000000" text-anchor="start" style="white-space: pre;" direction="ltr"></text></g><g stroke-linecap="round"><g transform="translate(11.602320139314998 26.571502685547557) rotate(0 76.48220959420587 26.09680675081904)"><path d="M-0.09 -0.94 C25.73 8.04, 128.73 44.31, 154.57 53.13 M-1.6 1.18 C24.12 9.87, 127.75 42.67, 153.77 51.3" stroke="#000000" stroke-width="1" fill="none"></path></g><g transform="translate(11.602320139314998 26.571502685547557) rotate(0 76.48220959420587 26.09680675081904)"><path d="M122.22 52.86 C132.76 53.21, 138.87 50.6, 153.4 51.7 M124.46 52 C133.68 52.88, 142.22 51.92, 154.21 50.86" stroke="#000000" stroke-width="1" fill="none"></path></g><g transform="translate(11.602320139314998 26.571502685547557) rotate(0 76.48220959420587 26.09680675081904)"><path d="M128.54 33.33 C137.26 38.91, 141.68 41.53, 153.4 51.7 M130.77 32.47 C138.07 39.66, 144.58 44.99, 154.21 50.86" stroke="#000000" stroke-width="1" fill="none"></path></g></g><g transform="translate(79.03086540996219 12.142905099051859) rotate(0 20.5 14)"><text x="0" y="21" font-family="Virgil, Segoe UI Emoji" font-size="20px" fill="#000000" text-anchor="start" style="white-space: pre;" direction="ltr"></text></g><g stroke-linecap="round" transform="translate(456.1736789562797 151.4286150251121) rotate(0 15.42859758649547 15.428575788225544)"><path d="M4.35 3.78 C4.35 3.78, 4.35 3.78, 4.35 3.78 M4.35 3.78 C4.35 3.78, 4.35 3.78, 4.35 3.78 M1.68 13.49 C4.8 11.79, 7.82 7.02, 10.9 3.31 M1.27 12.76 C3.88 10.97, 5.31 7.52, 10.76 2.59 M2.36 16.57 C5.32 13.07, 9.55 10.21, 16.91 1.88 M3.41 18.46 C7.62 10.97, 12.94 5.87, 16.83 0.77 M3.08 21.44 C7.97 18.37, 14.08 10.89, 21.73 4.3 M3.84 23.39 C7.53 18.04, 10.92 14.67, 20.54 2.22 M6.36 24.23 C9.95 20.06, 15.01 15.95, 25.23 5.53 M6.75 24.66 C12.75 17.53, 18.96 11.82, 24.29 5.15 M8.23 28.47 C17.38 19.08, 24.98 12.29, 29.23 7.72 M8.9 28.08 C15.86 22.6, 20.44 16.18, 28.41 5.77 M11.38 32.41 C16.31 27.4, 19.66 20.2, 29.21 10.17 M12.35 31.96 C18.69 23.6, 25.23 15.24, 31.62 9.68 M17.56 33.17 C23.39 24.55, 27.04 22.33, 33.45 14.77 M17.7 32.95 C22.18 27.39, 26.9 20.59, 31.91 14.01" stroke="#fa5252" stroke-width="0.5" fill="none"></path><path d="M15.79 0.79 C19.14 0.56, 23.79 1.83, 26.23 3.84 C28.67 5.85, 29.97 9.58, 30.44 12.86 C30.9 16.14, 30.65 20.54, 28.99 23.53 C27.33 26.52, 23.6 29.81, 20.47 30.79 C17.34 31.78, 13.16 30.76, 10.23 29.43 C7.29 28.1, 4.38 25.52, 2.87 22.82 C1.36 20.12, 0.9 16.43, 1.17 13.23 C1.45 10.03, 1.96 5.87, 4.5 3.61 C7.05 1.34, 14.24 0.28, 16.46 -0.38 C18.68 -1.04, 18.03 -0.64, 17.84 -0.37 M17.25 -1.47 C20.32 -1.34, 22.63 2.71, 25.11 5 C27.6 7.3, 31.78 9.21, 32.16 12.32 C32.53 15.43, 29.33 20.57, 27.37 23.67 C25.41 26.77, 23.31 29.75, 20.4 30.91 C17.48 32.08, 12.77 31.98, 9.9 30.66 C7.02 29.34, 4.69 25.91, 3.14 22.98 C1.59 20.06, 0.01 16.25, 0.61 13.11 C1.21 9.97, 4.07 6.39, 6.73 4.16 C9.39 1.92, 14.89 0.18, 16.54 -0.32 C18.2 -0.81, 16.52 0.88, 16.67 1.21" stroke="#000000" stroke-width="1" fill="none"></path></g><g stroke-linecap="round" transform="translate(960.745124966324 307.1429007393974) rotate(0 15.42859758649547 15.428575788225544)"><path d="M1.56 7.98 C1.56 7.98, 1.56 7.98, 1.56 7.98 M1.56 7.98 C1.56 7.98, 1.56 7.98, 1.56 7.98 M-1.17 14.27 C2.22 13.41, 4.8 7.43, 14.51 0.64 M1.14 14.66 C3.42 12.2, 6.94 7.93, 13.01 1.64 M1.98 18.84 C7.92 11.38, 13.2 8.46, 16.82 0.66 M3.05 18.48 C6.66 15.38, 8.96 10.44, 18.9 1.42 M4.09 23.86 C9.48 14.74, 15.67 10.01, 21.85 1.28 M4.94 22.45 C9.15 18.37, 13.67 13.84, 23.47 1.68 M5.82 28.94 C8.59 24.25, 15.26 19.61, 25.83 2.76 M6.73 27.38 C12.27 21.05, 18.25 13.85, 26.15 3.43 M9.14 31 C14.23 21.86, 18.95 17.14, 28.83 6.93 M8.71 29 C15.05 22.07, 23.09 13.53, 27.92 7.9 M11.27 30.55 C20.63 24.11, 26 16.56, 32.76 10.75 M13.25 32.11 C20.27 23.89, 26.25 16.6, 31.93 10.89 M18.38 31.74 C22.42 24.9, 27.18 18.62, 31.92 15.43 M17.3 33.3 C20.24 29.71, 23.92 25.09, 31.82 15.7" stroke="#fa5252" stroke-width="0.5" fill="none"></path><path d="M21.79 0.2 C24.82 1.11, 27.71 5.33, 29.09 8.57 C30.48 11.81, 30.93 16.58, 30.09 19.64 C29.25 22.69, 26.67 25, 24.05 26.89 C21.43 28.78, 17.61 30.98, 14.39 30.96 C11.16 30.93, 6.95 29.18, 4.68 26.76 C2.4 24.34, 1.23 19.62, 0.75 16.44 C0.28 13.25, 0 10.43, 1.83 7.66 C3.66 4.9, 8.39 0.85, 11.74 -0.16 C15.09 -1.17, 19.9 1.05, 21.93 1.6 C23.96 2.15, 23.88 2.79, 23.93 3.16 M24.04 2.4 C26.97 3.74, 29.94 6.97, 30.89 10.02 C31.84 13.08, 30.8 17.41, 29.71 20.72 C28.62 24.03, 27.1 28.22, 24.35 29.86 C21.6 31.5, 16.74 31.13, 13.2 30.54 C9.67 29.95, 5.34 28.56, 3.14 26.33 C0.95 24.09, -0.11 20.51, 0.05 17.12 C0.21 13.73, 1.81 8.77, 4.11 5.98 C6.4 3.2, 10.5 0.9, 13.82 0.41 C17.14 -0.08, 22.57 2.57, 24.05 3.06 C25.52 3.54, 23.2 3.22, 22.68 3.32" stroke="#000000" stroke-width="1" fill="none"></path></g><g transform="translate(1201.8880082671049 318.4286542619982) rotate(0 20.5 14)"><text x="0" y="21" font-family="Virgil, Segoe UI Emoji" font-size="20px" fill="#000000" text-anchor="start" style="white-space: pre;" direction="ltr"></text></g><g stroke-linecap="round"><g transform="translate(1037.8879385126402 323.71431623186413) rotate(0 63.48176415172952 4.215913652818472)"><path d="M0.16 0.98 C2.88 2.19, -3.78 6.8, 17.56 7.74 C38.9 8.67, 109.73 6.61, 128.18 6.58 M-1.22 0.45 C1.28 1.29, -4.62 4.86, 16.83 6.07 C38.29 7.29, 108.87 7.88, 127.51 7.76" stroke="#000000" stroke-width="1" fill="none"></path></g></g><g stroke-linecap="round"><g transform="translate(472.17373999143547 130.5714852469314) rotate(0 16.26348454595677 -21.493542912017006)"><path d="M1.04 1.03 C6.16 -6.21, 26.48 -36.55, 31.48 -44.01" stroke="#000000" stroke-width="1.5" fill="none" stroke-dasharray="8 9"></path></g><g transform="translate(472.17373999143547 130.5714852469314) rotate(0 16.26348454595677 -21.493542912017006)"><path d="M26.73 -18.69 C26.55 -29.07, 29.39 -35.63, 30.21 -44.45" stroke="#000000" stroke-width="1.5" fill="none"></path></g><g transform="translate(472.17373999143547 130.5714852469314) rotate(0 16.26348454595677 -21.493542912017006)"><path d="M11.41 -28.96 C16.79 -35.71, 25.25 -38.5, 30.21 -44.45" stroke="#000000" stroke-width="1.5" fill="none"></path></g></g></svg>